<svg xmlns="http://www.w3.org/2000/svg" width="663.6965942382812" height="885.7857666015625" viewBox="-228.7332000732422 -351.8447570800781 663.6965942382812 885.7857666015625"><title>Neo4j Graph Visualization</title><desc>Created using Neo4j (http://www.neo4j.com/)</desc><g class="layer relationships"><g class="relationship" transform="translate(112.8921760522746 405.93186191259383) rotate(538.8839003328073)"><path class="outline" fill="#A5ABB6" stroke="none" d="M 25 0.5 L 37.622528571017405 0.5 L 37.622528571017405 -0.5 L 25 -0.5 Z M 83.1850285710174 0.5 L 95.80755714203481 0.5 L 95.80755714203481 3.5 L 102.80755714203481 0 L 95.80755714203481 -3.5 L 95.80755714203481 -0.5 L 83.1850285710174 -0.5 Z"/><text text-anchor="middle" pointer-events="none" font-size="8px" fill="#000000" x="60.403778571017405" y="3" transform="rotate(180 60.403778571017405 0)" font-family="sans-serif">ACTED_IN</text></g><g class="relationship" transform="translate(112.8921760522746 405.93186191259383) rotate(481.51920541480126)"><path class="outline" fill="#A5ABB6" stroke="none" d="M 25 0.5 L 31.791008553087202 0.5 L 31.791008553087202 -0.5 L 25 -0.5 Z M 77.35350855308721 0.5 L 84.1445171061744 0.5 L 84.1445171061744 3.5 L 91.1445171061744 0 L 84.1445171061744 -3.5 L 84.1445171061744 -0.5 L 77.35350855308721 -0.5 Z"/><text text-anchor="middle" pointer-events="none" font-size="8px" fill="#000000" x="54.5722585530872" y="3" transform="rotate(180 54.5722585530872 0)" font-family="sans-serif">ACTED_IN</text></g><g class="relationship" transform="translate(112.8921760522746 405.93186191259383) rotate(295.2404481589489)"><path class="outline" fill="#A5ABB6" stroke="none" d="M 25 0.5 L 43.33169626705143 0.5 L 43.33169626705143 -0.5 L 25 -0.5 Z M 88.89419626705143 0.5 L 107.22589253410285 0.5 L 107.22589253410285 3.5 L 114.22589253410285 0 L 107.22589253410285 -3.5 L 107.22589253410285 -0.5 L 88.89419626705143 -0.5 Z"/><text text-anchor="middle" pointer-events="none" font-size="8px" fill="#000000" x="66.11294626705143" y="3" font-family="sans-serif">ACTED_IN</text></g><g class="relationship" transform="translate(112.8921760522746 405.93186191259383) rotate(351.6980425319582)"><path class="outline" fill="#A5ABB6" stroke="none" d="M 25 0.5 L 27.241618122220487 0.5 L 27.241618122220487 -0.5 L 25 -0.5 Z M 72.80411812222049 0.5 L 75.04573624444097 0.5 L 75.04573624444097 3.5 L 82.04573624444097 0 L 75.04573624444097 -3.5 L 75.04573624444097 -0.5 L 72.80411812222049 -0.5 Z"/><text text-anchor="middle" pointer-events="none" font-size="8px" fill="#000000" x="50.02286812222049" y="3" font-family="sans-serif">ACTED_IN</text></g><g class="relationship" transform="translate(112.8921760522746 405.93186191259383) rotate(319.75028519134014)"><path class="outline" fill="#A5ABB6" stroke="none" d="M 25 0.5 L 29.00175486124003 0.5 L 29.00175486124003 -0.5 L 25 -0.5 Z M 74.56425486124003 0.5 L 78.56600972248006 0.5 L 78.56600972248006 3.5 L 85.56600972248006 0 L 78.56600972248006 -3.5 L 78.56600972248006 -0.5 L 74.56425486124003 -0.5 Z"/><text text-anchor="middle" pointer-events="none" font-size="8px" fill="#000000" x="51.78300486124003" y="3" font-family="sans-serif">ACTED_IN</text></g><g class="relationship" transform="translate(92.48235575672972 333.75835183041227) rotate(326.02525014110614)"><path class="outline" fill="#A5ABB6" stroke="none" d="M 25 0.5 L 26.932710360134585 0.5 L 26.932710360134585 -0.5 L 25 -0.5 Z M 62.268647860134585 0.5 L 64.20135822026917 0.5 L 64.20135822026917 3.5 L 71.20135822026917 0 L 64.20135822026917 -3.5 L 64.20135822026917 -0.5 L 62.268647860134585 -0.5 Z"/><text text-anchor="middle" pointer-events="none" font-size="8px" fill="#000000" x="44.600679110134585" y="3" font-family="sans-serif">ACTE…</text></g><g class="relationship" transform="translate(92.48235575672972 333.75835183041227) rotate(384.1775496062676)"><path class="outline" fill="#A5ABB6" stroke="none" d="M 25 0.5 L 42.959397866564245 0.5 L 42.959397866564245 -0.5 L 25 -0.5 Z M 88.52189786656425 0.5 L 106.48129573312849 0.5 L 106.48129573312849 3.5 L 113.48129573312849 0 L 106.48129573312849 -3.5 L 106.48129573312849 -0.5 L 88.52189786656425 -0.5 Z"/><text text-anchor="middle" pointer-events="none" font-size="8px" fill="#000000" x="65.74064786656425" y="3" font-family="sans-serif">ACTED_IN</text></g><g class="relationship" transform="translate(92.48235575672972 333.75835183041227) rotate(360.4016082541771)"><path class="outline" fill="#A5ABB6" stroke="none" d="M 25 0.5 L 26.118909524038152 0.5 L 26.118909524038152 -0.5 L 25 -0.5 Z M 71.68140952403814 0.5 L 72.8003190480763 0.5 L 72.8003190480763 3.5 L 79.8003190480763 0 L 72.8003190480763 -3.5 L 72.8003190480763 -0.5 L 71.68140952403814 -0.5 Z"/><text text-anchor="middle" pointer-events="none" font-size="8px" fill="#000000" x="48.90015952403815" y="3" font-family="sans-serif">ACTED_IN</text></g><g class="relationship" transform="translate(298.0598176540943 346.9767159492782) rotate(208.03183875397826)"><path class="outline" fill="#A5ABB6" stroke="none" d="M 25 0.5 L 44.97803118187595 0.5 L 44.97803118187595 -0.5 L 25 -0.5 Z M 90.54053118187595 0.5 L 110.5185623637519 0.5 L 110.5185623637519 3.5 L 117.5185623637519 0 L 110.5185623637519 -3.5 L 110.5185623637519 -0.5 L 90.54053118187595 -0.5 Z"/><text text-anchor="middle" pointer-events="none" font-size="8px" fill="#000000" x="67.75928118187595" y="3" transform="rotate(180 67.75928118187595 0)" font-family="sans-serif">ACTED_IN</text></g><g class="relationship" transform="translate(298.0598176540943 346.9767159492782) rotate(511.23652203305437)"><path class="outline" fill="#A5ABB6" stroke="none" d="M 25 0.5 L 26.69873649373161 0.5 L 26.69873649373161 -0.5 L 25 -0.5 Z M 56.69873649373161 0.5 L 58.39747298746322 0.5 L 58.39747298746322 3.5 L 65.39747298746322 0 L 58.39747298746322 -3.5 L 58.39747298746322 -0.5 L 56.69873649373161 -0.5 Z"/><text text-anchor="middle" pointer-events="none" font-size="8px" fill="#000000" x="41.69873649373161" y="3" transform="rotate(180 41.69873649373161 0)" font-family="sans-serif">ACT…</text></g><g class="relationship" transform="translate(298.0598176540943 346.9767159492782) rotate(187.0613716777741)"><path class="outline" fill="#A5ABB6" stroke="none" d="M 25 0.5 L 26.718344098576807 0.5 L 26.718344098576807 -0.5 L 25 -0.5 Z M 67.83162534857681 0.5 L 69.54996944715361 0.5 L 69.54996944715361 3.5 L 76.54996944715361 0 L 69.54996944715361 -3.5 L 69.54996944715361 -0.5 L 67.83162534857681 -0.5 Z"/><text text-anchor="middle" pointer-events="none" font-size="8px" fill="#000000" x="47.27498472357681" y="3" transform="rotate(180 47.27498472357681 0)" font-family="sans-serif">ACTED…</text></g><g class="relationship" transform="translate(281.477612336363 259.2916042486606) rotate(366.7134316130519)"><path class="outline" fill="#A5ABB6" stroke="none" d="M 25 0.5 L 36.39135586436914 0.5 L 36.39135586436914 -0.5 L 25 -0.5 Z M 81.95385586436913 0.5 L 93.34521172873828 0.5 L 93.34521172873828 3.5 L 100.34521172873828 0 L 93.34521172873828 -3.5 L 93.34521172873828 -0.5 L 81.95385586436913 -0.5 Z"/><text text-anchor="middle" pointer-events="none" font-size="8px" fill="#000000" x="59.17260586436914" y="3" font-family="sans-serif">ACTED_IN</text></g><g class="relationship" transform="translate(281.477612336363 259.2916042486606) rotate(293.8401034621015)"><path class="outline" fill="#A5ABB6" stroke="none" d="M 25 0.5 L 39.38706494256088 0.5 L 39.38706494256088 -0.5 L 25 -0.5 Z M 84.94956494256088 0.5 L 99.33662988512177 0.5 L 99.33662988512177 3.5 L 106.33662988512177 0 L 99.33662988512177 -3.5 L 99.33662988512177 -0.5 L 84.94956494256088 -0.5 Z"/><text text-anchor="middle" pointer-events="none" font-size="8px" fill="#000000" x="62.16831494256088" y="3" font-family="sans-serif">ACTED_IN</text></g><g class="relationship" transform="translate(281.477612336363 259.2916042486606) rotate(327.4018071237234)"><path class="outline" fill="#A5ABB6" stroke="none" d="M 25 0.5 L 39.19657334067517 0.5 L 39.19657334067517 -0.5 L 25 -0.5 Z M 84.75907334067517 0.5 L 98.95564668135034 0.5 L 98.95564668135034 3.5 L 105.95564668135034 0 L 98.95564668135034 -3.5 L 98.95564668135034 -0.5 L 84.75907334067517 -0.5 Z"/><text text-anchor="middle" pointer-events="none" font-size="8px" fill="#000000" x="61.97782334067517" y="3" font-family="sans-serif">ACTED_IN</text></g><g class="relationship" transform="translate(281.477612336363 259.2916042486606) rotate(254.97722868326957)"><path class="outline" fill="#A5ABB6" stroke="none" d="M 25 0.5 L 34.40895383506307 0.5 L 34.40895383506307 -0.5 L 25 -0.5 Z M 79.97145383506307 0.5 L 89.38040767012615 0.5 L 89.38040767012615 3.5 L 96.38040767012615 0 L 89.38040767012615 -3.5 L 89.38040767012615 -0.5 L 79.97145383506307 -0.5 Z"/><text text-anchor="middle" pointer-events="none" font-size="8px" fill="#000000" x="57.19020383506307" y="3" transform="rotate(180 57.19020383506307 0)" font-family="sans-serif">ACTED_IN</text></g><g class="relationship" transform="translate(281.477612336363 259.2916042486606) rotate(529.2645405307283)"><path class="outline" fill="#A5ABB6" stroke="none" d="M 25 0.5 L 29.300058832235358 0.5 L 29.300058832235358 -0.5 L 25 -0.5 Z M 74.86255883223535 0.5 L 79.16261766447072 0.5 L 79.16261766447072 3.5 L 86.16261766447072 0 L 79.16261766447072 -3.5 L 79.16261766447072 -0.5 L 74.86255883223535 -0.5 Z"/><text text-anchor="middle" pointer-events="none" font-size="8px" fill="#000000" x="52.08130883223536" y="3" transform="rotate(180 52.08130883223536 0)" font-family="sans-serif">ACTED_IN</text></g><g class="relationship" transform="translate(281.477612336363 259.2916042486606) rotate(475.531988104373)"><path class="outline" fill="#A5ABB6" stroke="none" d="M 25 0.5 L 46.40932483863577 0.5 L 46.40932483863577 -0.5 L 25 -0.5 Z M 91.97182483863577 0.5 L 113.38114967727154 0.5 L 113.38114967727154 3.5 L 120.38114967727154 0 L 113.38114967727154 -3.5 L 113.38114967727154 -0.5 L 91.97182483863577 -0.5 Z"/><text text-anchor="middle" pointer-events="none" font-size="8px" fill="#000000" x="69.19057483863577" y="3" transform="rotate(180 69.19057483863577 0)" font-family="sans-serif">ACTED_IN</text></g><g class="relationship" transform="translate(281.477612336363 259.2916042486606) rotate(498.23024417658365)"><path class="outline" fill="#A5ABB6" stroke="none" d="M 25 0.5 L 30.16443337497423 0.5 L 30.16443337497423 -0.5 L 25 -0.5 Z M 75.72693337497424 0.5 L 80.89136674994846 0.5 L 80.89136674994846 3.5 L 87.89136674994846 0 L 80.89136674994846 -3.5 L 80.89136674994846 -0.5 L 75.72693337497424 -0.5 Z"/><text text-anchor="middle" pointer-events="none" font-size="8px" fill="#000000" x="52.94568337497423" y="3" transform="rotate(180 52.94568337497423 0)" font-family="sans-serif">ACTED_IN</text></g><g class="relationship" transform="translate(126.4214479218635 -146.06786186364556) rotate(188.0201059569983)"><path class="outline" fill="#A5ABB6" stroke="none" d="M 25 0.5 L 45.639838493522674 0.5 L 45.639838493522674 -0.5 L 25 -0.5 Z M 91.20233849352267 0.5 L 111.84217698704535 0.5 L 111.84217698704535 3.5 L 118.84217698704535 0 L 111.84217698704535 -3.5 L 111.84217698704535 -0.5 L 91.20233849352267 -0.5 Z"/><text text-anchor="middle" pointer-events="none" font-size="8px" fill="#000000" x="68.42108849352267" y="3" transform="rotate(180 68.42108849352267 0)" font-family="sans-serif">ACTED_IN</text></g><g class="relationship" transform="translate(126.4214479218635 -146.06786186364556) rotate(491.7527028775306)"><path class="outline" fill="#A5ABB6" stroke="none" d="M 25 0.5 L 25.0209801851668 0.5 L 25.0209801851668 -0.5 L 25 -0.5 Z M 60.3569176851668 0.5 L 60.3778978703336 0.5 L 60.3778978703336 3.5 L 67.3778978703336 0 L 60.3778978703336 -3.5 L 60.3778978703336 -0.5 L 60.3569176851668 -0.5 Z"/><text text-anchor="middle" pointer-events="none" font-size="8px" fill="#000000" x="42.6889489351668" y="3" transform="rotate(180 42.6889489351668 0)" font-family="sans-serif">ACTE…</text></g><g class="relationship" transform="translate(126.4214479218635 -146.06786186364556) rotate(526.6487164491884)"><path class="outline" fill="#A5ABB6" stroke="none" d="M 25 0.5 L 26.14314540765359 0.5 L 26.14314540765359 -0.5 L 25 -0.5 Z M 71.70564540765359 0.5 L 72.84879081530718 0.5 L 72.84879081530718 3.5 L 79.84879081530718 0 L 72.84879081530718 -3.5 L 72.84879081530718 -0.5 L 71.70564540765359 -0.5 Z"/><text text-anchor="middle" pointer-events="none" font-size="8px" fill="#000000" x="48.92439540765359" y="3" transform="rotate(180 48.92439540765359 0)" font-family="sans-serif">ACTED_IN</text></g><g class="relationship" transform="translate(-8.612106368697097 -29.436000463119452) rotate(266.900720590613)"><path class="outline" fill="#A5ABB6" stroke="none" d="M 25 0.5 L 42.169272707669066 0.5 L 42.169272707669066 -0.5 L 25 -0.5 Z M 87.73177270766907 0.5 L 104.90104541533813 0.5 L 104.90104541533813 3.5 L 111.90104541533813 0 L 104.90104541533813 -3.5 L 104.90104541533813 -0.5 L 87.73177270766907 -0.5 Z"/><text text-anchor="middle" pointer-events="none" font-size="8px" fill="#000000" x="64.95052270766907" y="3" transform="rotate(180 64.95052270766907 0)" font-family="sans-serif">ACTED_IN</text></g><g class="relationship" transform="translate(-8.612106368697097 -29.436000463119452) rotate(327.014971341756)"><path class="outline" fill="#A5ABB6" stroke="none" d="M 25 0.5 L 25.32238204419413 0.5 L 25.32238204419413 -0.5 L 25 -0.5 Z M 55.32238204419413 0.5 L 55.64476408838826 0.5 L 55.64476408838826 3.5 L 62.64476408838826 0 L 55.64476408838826 -3.5 L 55.64476408838826 -0.5 L 55.32238204419413 -0.5 Z"/><text text-anchor="middle" pointer-events="none" font-size="8px" fill="#000000" x="40.32238204419413" y="3" font-family="sans-serif">ACT…</text></g><g class="relationship" transform="translate(-8.612106368697097 -29.436000463119452) rotate(289.66007869821976)"><path class="outline" fill="#A5ABB6" stroke="none" d="M 25 0.5 L 25.01397386863058 0.5 L 25.01397386863058 -0.5 L 25 -0.5 Z M 66.12725511863059 0.5 L 66.14122898726116 0.5 L 66.14122898726116 3.5 L 73.14122898726116 0 L 66.14122898726116 -3.5 L 66.14122898726116 -0.5 L 66.12725511863059 -0.5 Z"/><text text-anchor="middle" pointer-events="none" font-size="8px" fill="#000000" x="45.57061449363058" y="3" font-family="sans-serif">ACTED…</text></g><g class="relationship" transform="translate(85.45242467455189 -209.61645220801003) rotate(340.03987748727263)"><path class="outline" fill="#A5ABB6" stroke="none" d="M 25 0.5 L 34.96052624143064 0.5 L 34.96052624143064 -0.5 L 25 -0.5 Z M 80.52302624143064 0.5 L 90.48355248286128 0.5 L 90.48355248286128 3.5 L 97.48355248286128 0 L 90.48355248286128 -3.5 L 90.48355248286128 -0.5 L 80.52302624143064 -0.5 Z"/><text text-anchor="middle" pointer-events="none" font-size="8px" fill="#000000" x="57.74177624143064" y="3" font-family="sans-serif">ACTED_IN</text></g><g class="relationship" transform="translate(85.45242467455189 -209.61645220801003) rotate(484.8224205742096)"><path class="outline" fill="#A5ABB6" stroke="none" d="M 25 0.5 L 27.17080683617504 0.5 L 27.17080683617504 -0.5 L 25 -0.5 Z M 72.73330683617505 0.5 L 74.90411367235008 0.5 L 74.90411367235008 3.5 L 81.90411367235008 0 L 74.90411367235008 -3.5 L 74.90411367235008 -0.5 L 72.73330683617505 -0.5 Z"/><text text-anchor="middle" pointer-events="none" font-size="8px" fill="#000000" x="49.95205683617504" y="3" transform="rotate(180 49.95205683617504 0)" font-family="sans-serif">ACTED_IN</text></g><g class="relationship" transform="translate(85.45242467455189 -209.61645220801003) rotate(516.8042215407096)"><path class="outline" fill="#A5ABB6" stroke="none" d="M 25 0.5 L 28.91358891788714 0.5 L 28.91358891788714 -0.5 L 25 -0.5 Z M 74.47608891788714 0.5 L 78.38967783577428 0.5 L 78.38967783577428 3.5 L 85.38967783577428 0 L 78.38967783577428 -3.5 L 78.38967783577428 -0.5 L 74.47608891788714 -0.5 Z"/><text text-anchor="middle" pointer-events="none" font-size="8px" fill="#000000" x="51.69483891788714" y="3" transform="rotate(180 51.69483891788714 0)" font-family="sans-serif">ACTED_IN</text></g><g class="relationship" transform="translate(85.45242467455189 -209.61645220801003) rotate(458.81703357308027)"><path class="outline" fill="#A5ABB6" stroke="none" d="M 25 0.5 L 40.74323823611026 0.5 L 40.74323823611026 -0.5 L 25 -0.5 Z M 86.30573823611026 0.5 L 102.04897647222052 0.5 L 102.04897647222052 3.5 L 109.04897647222052 0 L 102.04897647222052 -3.5 L 102.04897647222052 -0.5 L 86.30573823611026 -0.5 Z"/><text text-anchor="middle" pointer-events="none" font-size="8px" fill="#000000" x="63.52448823611026" y="3" transform="rotate(180 63.52448823611026 0)" font-family="sans-serif">ACTED_IN</text></g><g class="relationship" transform="translate(85.45242467455189 -209.61645220801003) rotate(267.1206455536874)"><path class="outline" fill="#A5ABB6" stroke="none" d="M 25 0.5 L 30.404467210590454 0.5 L 30.404467210590454 -0.5 L 25 -0.5 Z M 75.96696721059045 0.5 L 81.37143442118091 0.5 L 81.37143442118091 3.5 L 88.37143442118091 0 L 81.37143442118091 -3.5 L 81.37143442118091 -0.5 L 75.96696721059045 -0.5 Z"/><text text-anchor="middle" pointer-events="none" font-size="8px" fill="#000000" x="53.185717210590454" y="3" transform="rotate(180 53.185717210590454 0)" font-family="sans-serif">ACTED_IN</text></g><g class="relationship" transform="translate(-77.21019116956347 -69.96289801650097) rotate(202.8956580872013)"><path class="outline" fill="#A5ABB6" stroke="none" d="M 25 0.5 L 34.396287148845 0.5 L 34.396287148845 -0.5 L 25 -0.5 Z M 79.958787148845 0.5 L 89.35507429769 0.5 L 89.35507429769 3.5 L 96.35507429769 0 L 89.35507429769 -3.5 L 89.35507429769 -0.5 L 79.958787148845 -0.5 Z"/><text text-anchor="middle" pointer-events="none" font-size="8px" fill="#000000" x="57.177537148845" y="3" transform="rotate(180 57.177537148845 0)" font-family="sans-serif">ACTED_IN</text></g><g class="relationship" transform="translate(-77.21019116956347 -69.96289801650097) rotate(521.6449990889669)"><path class="outline" fill="#A5ABB6" stroke="none" d="M 25 0.5 L 38.26408512225643 0.5 L 38.26408512225643 -0.5 L 25 -0.5 Z M 83.82658512225643 0.5 L 97.09067024451286 0.5 L 97.09067024451286 3.5 L 104.09067024451286 0 L 97.09067024451286 -3.5 L 97.09067024451286 -0.5 L 83.82658512225643 -0.5 Z"/><text text-anchor="middle" pointer-events="none" font-size="8px" fill="#000000" x="61.04533512225643" y="3" transform="rotate(180 61.04533512225643 0)" font-family="sans-serif">ACTED_IN</text></g><g class="relationship" transform="translate(-77.21019116956347 -69.96289801650097) rotate(452.63056921810744)"><path class="outline" fill="#A5ABB6" stroke="none" d="M 25 0.5 L 38.112848049616915 0.5 L 38.112848049616915 -0.5 L 25 -0.5 Z M 83.67534804961691 0.5 L 96.78819609923383 0.5 L 96.78819609923383 3.5 L 103.78819609923383 0 L 96.78819609923383 -3.5 L 96.78819609923383 -0.5 L 83.67534804961691 -0.5 Z"/><text text-anchor="middle" pointer-events="none" font-size="8px" fill="#000000" x="60.894098049616915" y="3" transform="rotate(180 60.894098049616915 0)" font-family="sans-serif">ACTED_IN</text></g><g class="relationship" transform="translate(-77.21019116956347 -69.96289801650097) rotate(332.94767743850684)"><path class="outline" fill="#A5ABB6" stroke="none" d="M 25 0.5 L 30.76883049671418 0.5 L 30.76883049671418 -0.5 L 25 -0.5 Z M 76.33133049671417 0.5 L 82.10016099342836 0.5 L 82.10016099342836 3.5 L 89.10016099342836 0 L 82.10016099342836 -3.5 L 82.10016099342836 -0.5 L 76.33133049671417 -0.5 Z"/><text text-anchor="middle" pointer-events="none" font-size="8px" fill="#000000" x="53.55008049671418" y="3" font-family="sans-serif">ACTED_IN</text></g><g class="relationship" transform="translate(-77.21019116956347 -69.96289801650097) rotate(302.46897842282254)"><path class="outline" fill="#A5ABB6" stroke="none" d="M 25 0.5 L 30.715274283048004 0.5 L 30.715274283048004 -0.5 L 25 -0.5 Z M 76.277774283048 0.5 L 81.99304856609601 0.5 L 81.99304856609601 3.5 L 88.99304856609601 0 L 81.99304856609601 -3.5 L 81.99304856609601 -0.5 L 76.277774283048 -0.5 Z"/><text text-anchor="middle" pointer-events="none" font-size="8px" fill="#000000" x="53.496524283048004" y="3" font-family="sans-serif">ACTED_IN</text></g><g class="relationship" transform="translate(-77.21019116956347 -69.96289801650097) rotate(487.74804093906)"><path class="outline" fill="#A5ABB6" stroke="none" d="M 25 0.5 L 40.750686309881544 0.5 L 40.750686309881544 -0.5 L 25 -0.5 Z M 86.31318630988154 0.5 L 102.06387261976309 0.5 L 102.06387261976309 3.5 L 109.06387261976309 0 L 102.06387261976309 -3.5 L 102.06387261976309 -0.5 L 86.31318630988154 -0.5 Z"/><text text-anchor="middle" pointer-events="none" font-size="8px" fill="#000000" x="63.531936309881544" y="3" transform="rotate(180 63.531936309881544 0)" font-family="sans-serif">ACTED_IN</text></g><g class="relationship" transform="translate(-77.21019116956347 -69.96289801650097) rotate(357.10426823005366)"><path class="outline" fill="#A5ABB6" stroke="none" d="M 25 0.5 L 44.867417785744195 0.5 L 44.867417785744195 -0.5 L 25 -0.5 Z M 90.4299177857442 0.5 L 110.29733557148839 0.5 L 110.29733557148839 3.5 L 117.29733557148839 0 L 110.29733557148839 -3.5 L 110.29733557148839 -0.5 L 90.4299177857442 -0.5 Z"/><text text-anchor="middle" pointer-events="none" font-size="8px" fill="#000000" x="67.6486677857442" y="3" font-family="sans-serif">ACTED_IN</text></g></g><g class="layer nodes"><g class="node" transform="translate(112.8921760522746,405.93186191259383)"><circle class="outline" cx="0" cy="0" r="25" fill="#F79767" stroke="#f36924" stroke-width="2px"/><text text-anchor="middle" pointer-events="none" font-family="sans-serif" dy="1.5625" font-size="25" fill="#FFFFFF"/><text text-anchor="middle" pointer-events="none" font-family="sans-serif" dy="1.5625" font-size="25" fill="#FFFFFF"/><text text-anchor="middle" pointer-events="none" x="0" y="0" font-size="10px" fill="#FFFFFF" font-family="sans-serif"> Hugo</text><text text-anchor="middle" pointer-events="none" x="0" y="10" font-size="10px" fill="#FFFFFF" font-family="sans-serif"> Weaving</text></g><g class="node" transform="translate(-14.891133225186113,408.4213463402044)"><circle class="outline" cx="0" cy="0" r="25" fill="#57C7E3" stroke="#23b3d7" stroke-width="2px"/><text text-anchor="middle" pointer-events="none" font-family="sans-serif" dy="1.5625" font-size="25" fill="#2A2C34"/><text text-anchor="middle" pointer-events="none" font-family="sans-serif" dy="1.5625" font-size="25" fill="#2A2C34"/><text text-anchor="middle" pointer-events="none" x="0" y="0" font-size="10px" fill="#2A2C34" font-family="sans-serif"> Cloud</text><text text-anchor="middle" pointer-events="none" x="0" y="10" font-size="10px" fill="#2A2C34" font-family="sans-serif"> Atlas</text></g><g class="node" transform="translate(52.17364151831291,504.94099491493125)"><circle class="outline" cx="0" cy="0" r="25" fill="#57C7E3" stroke="#23b3d7" stroke-width="2px"/><text text-anchor="middle" pointer-events="none" font-family="sans-serif" dy="1.5625" font-size="25" fill="#2A2C34"/><text text-anchor="middle" pointer-events="none" font-family="sans-serif" dy="1.5625" font-size="25" fill="#2A2C34"/><text text-anchor="middle" pointer-events="none" x="0" y="0" font-size="10px" fill="#2A2C34" font-family="sans-serif"> V for</text><text text-anchor="middle" pointer-events="none" x="0" y="10" font-size="10px" fill="#2A2C34" font-family="sans-serif"> Vendetta</text></g><g class="node" transform="translate(172.26059591234866,279.9983879065317)"><circle class="outline" cx="0" cy="0" r="25" fill="#57C7E3" stroke="#23b3d7" stroke-width="2px"/><text text-anchor="middle" pointer-events="none" font-family="sans-serif" dy="1.5625" font-size="25" fill="#2A2C34"/><text text-anchor="middle" pointer-events="none" font-family="sans-serif" dy="1.5625" font-size="25" fill="#2A2C34"/><text text-anchor="middle" pointer-events="none" font-family="sans-serif" dy="1.5625" font-size="25" fill="#2A2C34"/><text text-anchor="middle" pointer-events="none" x="0" y="-5" font-size="10px" fill="#2A2C34" font-family="sans-serif"> The</text><text text-anchor="middle" pointer-events="none" x="0" y="5" font-size="10px" fill="#2A2C34" font-family="sans-serif"> Matrix</text><text text-anchor="middle" pointer-events="none" x="0" y="15" font-size="10px" fill="#2A2C34" font-family="sans-serif"> Revol…</text></g><g class="node" transform="translate(218.8161646835696,390.4755272710396)"><circle class="outline" cx="0" cy="0" r="25" fill="#57C7E3" stroke="#23b3d7" stroke-width="2px"/><text text-anchor="middle" pointer-events="none" font-family="sans-serif" dy="1.5625" font-size="25" fill="#2A2C34"/><text text-anchor="middle" pointer-events="none" font-family="sans-serif" dy="1.5625" font-size="25" fill="#2A2C34"/><text text-anchor="middle" pointer-events="none" font-family="sans-serif" dy="1.5625" font-size="25" fill="#2A2C34"/><text text-anchor="middle" pointer-events="none" x="0" y="-5" font-size="10px" fill="#2A2C34" font-family="sans-serif"> The</text><text text-anchor="middle" pointer-events="none" x="0" y="5" font-size="10px" fill="#2A2C34" font-family="sans-serif"> Matrix</text><text text-anchor="middle" pointer-events="none" x="0" y="15" font-size="10px" fill="#2A2C34" font-family="sans-serif"> Reloa…</text></g><g class="node" transform="translate(92.48235575672972,333.75835183041227)"><circle class="outline" cx="0" cy="0" r="25" fill="#F79767" stroke="#f36924" stroke-width="2px"/><text text-anchor="middle" pointer-events="none" font-family="sans-serif" dy="1.5625" font-size="25" fill="#FFFFFF"/><text text-anchor="middle" pointer-events="none" font-family="sans-serif" dy="1.5625" font-size="25" fill="#FFFFFF"/><text text-anchor="middle" pointer-events="none" x="0" y="0" font-size="10px" fill="#FFFFFF" font-family="sans-serif"> Laurence</text><text text-anchor="middle" pointer-events="none" x="0" y="10" font-size="10px" fill="#FFFFFF" font-family="sans-serif"> Fishbur…</text></g><g class="node" transform="translate(298.0598176540943,346.9767159492782)"><circle class="outline" cx="0" cy="0" r="25" fill="#F79767" stroke="#f36924" stroke-width="2px"/><text text-anchor="middle" pointer-events="none" font-family="sans-serif" dy="1.5625" font-size="25" fill="#FFFFFF"/><text text-anchor="middle" pointer-events="none" x="0" y="5" font-size="10px" fill="#FFFFFF" font-family="sans-serif"> Carrie-A…</text></g><g class="node" transform="translate(281.477612336363,259.2916042486606)"><circle class="outline" cx="0" cy="0" r="25" fill="#F79767" stroke="#f36924" stroke-width="2px"/><text text-anchor="middle" pointer-events="none" font-family="sans-serif" dy="1.5625" font-size="25" fill="#FFFFFF"/><text text-anchor="middle" pointer-events="none" font-family="sans-serif" dy="1.5625" font-size="25" fill="#FFFFFF"/><text text-anchor="middle" pointer-events="none" x="0" y="0" font-size="10px" fill="#FFFFFF" font-family="sans-serif"> Keanu</text><text text-anchor="middle" pointer-events="none" x="0" y="10" font-size="10px" fill="#FFFFFF" font-family="sans-serif"> Reeves</text></g><g class="node" transform="translate(405.9633659932165,273.94490557660083)"><circle class="outline" cx="0" cy="0" r="25" fill="#57C7E3" stroke="#23b3d7" stroke-width="2px"/><text text-anchor="middle" pointer-events="none" font-family="sans-serif" dy="1.5625" font-size="25" fill="#2A2C34"/><text text-anchor="middle" pointer-events="none" x="0" y="5" font-size="10px" fill="#2A2C34" font-family="sans-serif"> Somethi…</text></g><g class="node" transform="translate(334.56198846326714,139.16101130581845)"><circle class="outline" cx="0" cy="0" r="25" fill="#57C7E3" stroke="#23b3d7" stroke-width="2px"/><text text-anchor="middle" pointer-events="none" font-family="sans-serif" dy="1.5625" font-size="25" fill="#2A2C34"/><text text-anchor="middle" pointer-events="none" font-family="sans-serif" dy="1.5625" font-size="25" fill="#2A2C34"/><text text-anchor="middle" pointer-events="none" x="0" y="0" font-size="10px" fill="#2A2C34" font-family="sans-serif"> The</text><text text-anchor="middle" pointer-events="none" x="0" y="10" font-size="10px" fill="#2A2C34" font-family="sans-serif"> Replac…</text></g><g class="node" transform="translate(391.80373605519895,188.74000736448815)"><circle class="outline" cx="0" cy="0" r="25" fill="#57C7E3" stroke="#23b3d7" stroke-width="2px"/><text text-anchor="middle" pointer-events="none" font-family="sans-serif" dy="1.5625" font-size="25" fill="#2A2C34"/><text text-anchor="middle" pointer-events="none" font-family="sans-serif" dy="1.5625" font-size="25" fill="#2A2C34"/><text text-anchor="middle" pointer-events="none" x="0" y="0" font-size="10px" fill="#2A2C34" font-family="sans-serif"> Johnny</text><text text-anchor="middle" pointer-events="none" x="0" y="10" font-size="10px" fill="#2A2C34" font-family="sans-serif"> Mnemo…</text></g><g class="node" transform="translate(250.015456619454,142.05962856023763)"><circle class="outline" cx="0" cy="0" r="25" fill="#57C7E3" stroke="#23b3d7" stroke-width="2px"/><text text-anchor="middle" pointer-events="none" font-family="sans-serif" dy="1.5625" font-size="25" fill="#2A2C34"/><text text-anchor="middle" pointer-events="none" font-family="sans-serif" dy="1.5625" font-size="25" fill="#2A2C34"/><text text-anchor="middle" pointer-events="none" font-family="sans-serif" dy="1.5625" font-size="25" fill="#2A2C34"/><text text-anchor="middle" pointer-events="none" x="0" y="-5" font-size="10px" fill="#2A2C34" font-family="sans-serif"> The</text><text text-anchor="middle" pointer-events="none" x="0" y="5" font-size="10px" fill="#2A2C34" font-family="sans-serif"> Devil's</text><text text-anchor="middle" pointer-events="none" x="0" y="15" font-size="10px" fill="#2A2C34" font-family="sans-serif"> Advoc…</text></g><g class="node" transform="translate(197.2801003170745,334.4929317398235)"><circle class="outline" cx="0" cy="0" r="25" fill="#57C7E3" stroke="#23b3d7" stroke-width="2px"/><text text-anchor="middle" pointer-events="none" font-family="sans-serif" dy="1.5625" font-size="25" fill="#2A2C34"/><text text-anchor="middle" pointer-events="none" font-family="sans-serif" dy="1.5625" font-size="25" fill="#2A2C34"/><text text-anchor="middle" pointer-events="none" x="0" y="0" font-size="10px" fill="#2A2C34" font-family="sans-serif"> The</text><text text-anchor="middle" pointer-events="none" x="0" y="10" font-size="10px" fill="#2A2C34" font-family="sans-serif"> Matrix</text></g><g class="node" transform="translate(126.4214479218635,-146.06786186364556)"><circle class="outline" cx="0" cy="0" r="25" fill="#F79767" stroke="#f36924" stroke-width="2px"/><text text-anchor="middle" pointer-events="none" font-family="sans-serif" dy="1.5625" font-size="25" fill="#FFFFFF"/><text text-anchor="middle" pointer-events="none" font-family="sans-serif" dy="1.5625" font-size="25" fill="#FFFFFF"/><text text-anchor="middle" pointer-events="none" x="0" y="0" font-size="10px" fill="#FFFFFF" font-family="sans-serif"> Laurence</text><text text-anchor="middle" pointer-events="none" x="0" y="10" font-size="10px" fill="#FFFFFF" font-family="sans-serif"> Fishbur…</text></g><g class="node" transform="translate(-16.013833159581683,-166.13680761627995)"><circle class="outline" cx="0" cy="0" r="25" fill="#57C7E3" stroke="#23b3d7" stroke-width="2px"/><text text-anchor="middle" pointer-events="none" font-family="sans-serif" dy="1.5625" font-size="25" fill="#2A2C34"/><text text-anchor="middle" pointer-events="none" font-family="sans-serif" dy="1.5625" font-size="25" fill="#2A2C34"/><text text-anchor="middle" pointer-events="none" font-family="sans-serif" dy="1.5625" font-size="25" fill="#2A2C34"/><text text-anchor="middle" pointer-events="none" x="0" y="-5" font-size="10px" fill="#2A2C34" font-family="sans-serif"> The</text><text text-anchor="middle" pointer-events="none" x="0" y="5" font-size="10px" fill="#2A2C34" font-family="sans-serif"> Matrix</text><text text-anchor="middle" pointer-events="none" x="0" y="15" font-size="10px" fill="#2A2C34" font-family="sans-serif"> Reloa…</text></g><g class="node" transform="translate(24.406450136831573,-121.85610516670242)"><circle class="outline" cx="0" cy="0" r="25" fill="#57C7E3" stroke="#23b3d7" stroke-width="2px"/><text text-anchor="middle" pointer-events="none" font-family="sans-serif" dy="1.5625" font-size="25" fill="#2A2C34"/><text text-anchor="middle" pointer-events="none" font-family="sans-serif" dy="1.5625" font-size="25" fill="#2A2C34"/><text text-anchor="middle" pointer-events="none" font-family="sans-serif" dy="1.5625" font-size="25" fill="#2A2C34"/><text text-anchor="middle" pointer-events="none" x="0" y="-5" font-size="10px" fill="#2A2C34" font-family="sans-serif"> The</text><text text-anchor="middle" pointer-events="none" x="0" y="5" font-size="10px" fill="#2A2C34" font-family="sans-serif"> Matrix</text><text text-anchor="middle" pointer-events="none" x="0" y="15" font-size="10px" fill="#2A2C34" font-family="sans-serif"> Revol…</text></g><g class="node" transform="translate(-8.612106368697097,-29.436000463119452)"><circle class="outline" cx="0" cy="0" r="25" fill="#F79767" stroke="#f36924" stroke-width="2px"/><text text-anchor="middle" pointer-events="none" font-family="sans-serif" dy="1.5625" font-size="25" fill="#FFFFFF"/><text text-anchor="middle" pointer-events="none" x="0" y="5" font-size="10px" fill="#FFFFFF" font-family="sans-serif"> Carrie-A…</text></g><g class="node" transform="translate(85.45242467455189,-209.61645220801003)"><circle class="outline" cx="0" cy="0" r="25" fill="#F79767" stroke="#f36924" stroke-width="2px"/><text text-anchor="middle" pointer-events="none" font-family="sans-serif" dy="1.5625" font-size="25" fill="#FFFFFF"/><text text-anchor="middle" pointer-events="none" font-family="sans-serif" dy="1.5625" font-size="25" fill="#FFFFFF"/><text text-anchor="middle" pointer-events="none" x="0" y="0" font-size="10px" fill="#FFFFFF" font-family="sans-serif"> Hugo</text><text text-anchor="middle" pointer-events="none" x="0" y="10" font-size="10px" fill="#FFFFFF" font-family="sans-serif"> Weaving</text></g><g class="node" transform="translate(200.57844367890058,-251.42817756145817)"><circle class="outline" cx="0" cy="0" r="25" fill="#57C7E3" stroke="#23b3d7" stroke-width="2px"/><text text-anchor="middle" pointer-events="none" font-family="sans-serif" dy="1.5625" font-size="25" fill="#2A2C34"/><text text-anchor="middle" pointer-events="none" font-family="sans-serif" dy="1.5625" font-size="25" fill="#2A2C34"/><text text-anchor="middle" pointer-events="none" x="0" y="0" font-size="10px" fill="#2A2C34" font-family="sans-serif"> V for</text><text text-anchor="middle" pointer-events="none" x="0" y="10" font-size="10px" fill="#2A2C34" font-family="sans-serif"> Vendetta</text></g><g class="node" transform="translate(79.7574299981827,-322.8447577607836)"><circle class="outline" cx="0" cy="0" r="25" fill="#57C7E3" stroke="#23b3d7" stroke-width="2px"/><text text-anchor="middle" pointer-events="none" font-family="sans-serif" dy="1.5625" font-size="25" fill="#2A2C34"/><text text-anchor="middle" pointer-events="none" font-family="sans-serif" dy="1.5625" font-size="25" fill="#2A2C34"/><text text-anchor="middle" pointer-events="none" x="0" y="0" font-size="10px" fill="#2A2C34" font-family="sans-serif"> Cloud</text><text text-anchor="middle" pointer-events="none" x="0" y="10" font-size="10px" fill="#2A2C34" font-family="sans-serif"> Atlas</text></g><g class="node" transform="translate(-77.21019116956347,-69.96289801650097)"><circle class="outline" cx="0" cy="0" r="25" fill="#F79767" stroke="#f36924" stroke-width="2px"/><text text-anchor="middle" pointer-events="none" font-family="sans-serif" dy="1.5625" font-size="25" fill="#FFFFFF"/><text text-anchor="middle" pointer-events="none" font-family="sans-serif" dy="1.5625" font-size="25" fill="#FFFFFF"/><text text-anchor="middle" pointer-events="none" x="0" y="0" font-size="10px" fill="#FFFFFF" font-family="sans-serif"> Keanu</text><text text-anchor="middle" pointer-events="none" x="0" y="10" font-size="10px" fill="#FFFFFF" font-family="sans-serif"> Reeves</text></g><g class="node" transform="translate(-189.0042927105118,-117.17659219996847)"><circle class="outline" cx="0" cy="0" r="25" fill="#57C7E3" stroke="#23b3d7" stroke-width="2px"/><text text-anchor="middle" pointer-events="none" font-family="sans-serif" dy="1.5625" font-size="25" fill="#2A2C34"/><text text-anchor="middle" pointer-events="none" font-family="sans-serif" dy="1.5625" font-size="25" fill="#2A2C34"/><text text-anchor="middle" pointer-events="none" font-family="sans-serif" dy="1.5625" font-size="25" fill="#2A2C34"/><text text-anchor="middle" pointer-events="none" x="0" y="-5" font-size="10px" fill="#2A2C34" font-family="sans-serif"> The</text><text text-anchor="middle" pointer-events="none" x="0" y="5" font-size="10px" fill="#2A2C34" font-family="sans-serif"> Devil's</text><text text-anchor="middle" pointer-events="none" x="0" y="15" font-size="10px" fill="#2A2C34" font-family="sans-serif"> Advoc…</text></g><g class="node" transform="translate(-199.7331959532218,-29.311767122500036)"><circle class="outline" cx="0" cy="0" r="25" fill="#57C7E3" stroke="#23b3d7" stroke-width="2px"/><text text-anchor="middle" pointer-events="none" font-family="sans-serif" dy="1.5625" font-size="25" fill="#2A2C34"/><text text-anchor="middle" pointer-events="none" font-family="sans-serif" dy="1.5625" font-size="25" fill="#2A2C34"/><text text-anchor="middle" pointer-events="none" x="0" y="0" font-size="10px" fill="#2A2C34" font-family="sans-serif"> The</text><text text-anchor="middle" pointer-events="none" x="0" y="10" font-size="10px" fill="#2A2C34" font-family="sans-serif"> Replac…</text></g><g class="node" transform="translate(-83.12104982833922,58.689584293055255)"><circle class="outline" cx="0" cy="0" r="25" fill="#57C7E3" stroke="#23b3d7" stroke-width="2px"/><text text-anchor="middle" pointer-events="none" font-family="sans-serif" dy="1.5625" font-size="25" fill="#2A2C34"/><text text-anchor="middle" pointer-events="none" font-family="sans-serif" dy="1.5625" font-size="25" fill="#2A2C34"/><text text-anchor="middle" pointer-events="none" x="0" y="0" font-size="10px" fill="#2A2C34" font-family="sans-serif"> Johnny</text><text text-anchor="middle" pointer-events="none" x="0" y="10" font-size="10px" fill="#2A2C34" font-family="sans-serif"> Mnemo…</text></g><g class="node" transform="translate(-159.2827861096237,36.042814573023506)"><circle class="outline" cx="0" cy="0" r="25" fill="#57C7E3" stroke="#23b3d7" stroke-width="2px"/><text text-anchor="middle" pointer-events="none" font-family="sans-serif" dy="1.5625" font-size="25" fill="#2A2C34"/><text text-anchor="middle" pointer-events="none" x="0" y="5" font-size="10px" fill="#2A2C34" font-family="sans-serif"> Somethi…</text></g><g class="node" transform="translate(64.90544825211848,-77.15155175077231)"><circle class="outline" cx="0" cy="0" r="25" fill="#57C7E3" stroke="#23b3d7" stroke-width="2px"/><text text-anchor="middle" pointer-events="none" font-family="sans-serif" dy="1.5625" font-size="25" fill="#2A2C34"/><text text-anchor="middle" pointer-events="none" font-family="sans-serif" dy="1.5625" font-size="25" fill="#2A2C34"/><text text-anchor="middle" pointer-events="none" x="0" y="0" font-size="10px" fill="#2A2C34" font-family="sans-serif"> The</text><text text-anchor="middle" pointer-events="none" x="0" y="10" font-size="10px" fill="#2A2C34" font-family="sans-serif"> Matrix</text></g></g></svg>