<svg xmlns="http://www.w3.org/2000/svg" width="975.468994140625" height="751.9917602539062" viewBox="-386.3320007324219 -325.66717529296875 975.468994140625 751.9917602539062"><title>Neo4j Graph Visualization</title><desc>Created using Neo4j (http://www.neo4j.com/)</desc><g class="layer relationships"><g class="relationship" transform="translate(364.2472159379464 -16.27438787117565) rotate(476.6946190798977)"><path class="outline" fill="#A5ABB6" stroke="none" d="M 25 0.5 L 41.697817907765014 0.5 L 41.697817907765014 -0.5 L 25 -0.5 Z M 87.26031790776501 0.5 L 103.95813581553003 0.5 L 103.95813581553003 3.5 L 110.95813581553003 0 L 103.95813581553003 -3.5 L 103.95813581553003 -0.5 L 87.26031790776501 -0.5 Z"/><text text-anchor="middle" pointer-events="none" font-size="8px" fill="#000000" x="64.47906790776501" y="3" transform="rotate(180 64.47906790776501 0)" font-family="sans-serif">ACTED_IN</text></g><g class="relationship" transform="translate(364.2472159379464 -16.27438787117565) rotate(414.2022682717057)"><path class="outline" fill="#A5ABB6" stroke="none" d="M 25 0.5 L 45.2521669202648 0.5 L 45.2521669202648 -0.5 L 25 -0.5 Z M 90.8146669202648 0.5 L 111.0668338405296 0.5 L 111.0668338405296 3.5 L 118.0668338405296 0 L 111.0668338405296 -3.5 L 111.0668338405296 -0.5 L 90.8146669202648 -0.5 Z"/><text text-anchor="middle" pointer-events="none" font-size="8px" fill="#000000" x="68.0334169202648" y="3" font-family="sans-serif">ACTED_IN</text></g><g class="relationship" transform="translate(364.2472159379464 -16.27438787117565) rotate(219.2984166934192)"><path class="outline" fill="#A5ABB6" stroke="none" d="M 25 0.5 L 29.93037144816971 0.5 L 29.93037144816971 -0.5 L 25 -0.5 Z M 75.49287144816971 0.5 L 80.42324289633942 0.5 L 80.42324289633942 3.5 L 87.42324289633942 0 L 80.42324289633942 -3.5 L 80.42324289633942 -0.5 L 75.49287144816971 -0.5 Z"/><text text-anchor="middle" pointer-events="none" font-size="8px" fill="#000000" x="52.71162144816971" y="3" transform="rotate(180 52.71162144816971 0)" font-family="sans-serif">ACTED_IN</text></g><g class="relationship" transform="translate(364.2472159379464 -16.27438787117565) rotate(249.36594114653775)"><path class="outline" fill="#A5ABB6" stroke="none" d="M 25 0.5 L 32.635766206200785 0.5 L 32.635766206200785 -0.5 L 25 -0.5 Z M 78.19826620620078 0.5 L 85.83403241240157 0.5 L 85.83403241240157 3.5 L 92.83403241240157 0 L 85.83403241240157 -3.5 L 85.83403241240157 -0.5 L 78.19826620620078 -0.5 Z"/><text text-anchor="middle" pointer-events="none" font-size="8px" fill="#000000" x="55.417016206200785" y="3" transform="rotate(180 55.417016206200785 0)" font-family="sans-serif">ACTED_IN</text></g><g class="relationship" transform="translate(364.2472159379464 -16.27438787117565) rotate(268.27745553013585)"><path class="outline" fill="#A5ABB6" stroke="none" d="M 25 0.5 L 52.81940933107536 0.5 L 52.81940933107536 -0.5 L 25 -0.5 Z M 98.38190933107536 0.5 L 126.20131866215073 0.5 L 126.20131866215073 3.5 L 133.20131866215073 0 L 126.20131866215073 -3.5 L 126.20131866215073 -0.5 L 98.38190933107536 -0.5 Z"/><text text-anchor="middle" pointer-events="none" font-size="8px" fill="#000000" x="75.60065933107536" y="3" transform="rotate(180 75.60065933107536 0)" font-family="sans-serif">ACTED_IN</text></g><g class="relationship" transform="translate(192.6560222241174 135.74363552280806) rotate(344.54674417524825)"><path class="outline" fill="#A5ABB6" stroke="none" d="M 25 0.5 L 31.048333932986765 0.5 L 31.048333932986765 -0.5 L 25 -0.5 Z M 76.61083393298676 0.5 L 82.65916786597353 0.5 L 82.65916786597353 3.5 L 89.65916786597353 0 L 82.65916786597353 -3.5 L 82.65916786597353 -0.5 L 76.61083393298676 -0.5 Z"/><text text-anchor="middle" pointer-events="none" font-size="8px" fill="#000000" x="53.829583932986765" y="3" font-family="sans-serif">ACTED_IN</text></g><g class="relationship" transform="translate(309.51024269428177 240.0995972843306) rotate(267.30926619288243)"><path class="outline" fill="#A5ABB6" stroke="none" d="M 25 0.5 L 41.246770990915394 0.5 L 41.246770990915394 -0.5 L 25 -0.5 Z M 86.8092709909154 0.5 L 103.05604198183079 0.5 L 103.05604198183079 3.5 L 110.05604198183079 0 L 103.05604198183079 -3.5 L 103.05604198183079 -0.5 L 86.8092709909154 -0.5 Z"/><text text-anchor="middle" pointer-events="none" font-size="8px" fill="#000000" x="64.0280209909154" y="3" transform="rotate(180 64.0280209909154 0)" font-family="sans-serif">ACTED_IN</text></g><g class="relationship" transform="translate(240.19267984752156 218.1916781623993) rotate(299.13204743343437)"><path class="outline" fill="#A5ABB6" stroke="none" d="M 25 0.5 L 38.400611919849496 0.5 L 38.400611919849496 -0.5 L 25 -0.5 Z M 83.9631119198495 0.5 L 97.36372383969899 0.5 L 97.36372383969899 3.5 L 104.36372383969899 0 L 97.36372383969899 -3.5 L 97.36372383969899 -0.5 L 83.9631119198495 -0.5 Z"/><text text-anchor="middle" pointer-events="none" font-size="8px" fill="#000000" x="61.181861919849496" y="3" font-family="sans-serif">ACTED_IN</text></g><g class="relationship" transform="translate(560.1368935306228 70.48154688761578) rotate(525.3731400913798)"><path class="outline" fill="#A5ABB6" stroke="none" d="M 25 0.5 L 31.701017825720598 0.5 L 31.701017825720598 -0.5 L 25 -0.5 Z M 77.2635178257206 0.5 L 83.9645356514412 0.5 L 83.9645356514412 3.5 L 90.9645356514412 0 L 83.9645356514412 -3.5 L 83.9645356514412 -0.5 L 77.2635178257206 -0.5 Z"/><text text-anchor="middle" pointer-events="none" font-size="8px" fill="#000000" x="54.4822678257206" y="3" transform="rotate(180 54.4822678257206 0)" font-family="sans-serif">ACTED_IN</text></g><g class="relationship" transform="translate(546.1293766318329 171.57698276591796) rotate(216.17762711972102)"><path class="outline" fill="#A5ABB6" stroke="none" d="M 25 0.5 L 34.546192175729495 0.5 L 34.546192175729495 -0.5 L 25 -0.5 Z M 80.10869217572949 0.5 L 89.65488435145899 0.5 L 89.65488435145899 3.5 L 96.65488435145899 0 L 89.65488435145899 -3.5 L 89.65488435145899 -0.5 L 80.10869217572949 -0.5 Z"/><text text-anchor="middle" pointer-events="none" font-size="8px" fill="#000000" x="57.327442175729495" y="3" transform="rotate(180 57.327442175729495 0)" font-family="sans-serif">ACTED_IN</text></g><g class="relationship" transform="translate(415.3111896186725 218.1875041204151) rotate(285.400249075437)"><path class="outline" fill="#A5ABB6" stroke="none" d="M 25 0.5 L 35.13507230008841 0.5 L 35.13507230008841 -0.5 L 25 -0.5 Z M 80.69757230008841 0.5 L 90.83264460017682 0.5 L 90.83264460017682 3.5 L 97.83264460017682 0 L 90.83264460017682 -3.5 L 90.83264460017682 -0.5 L 80.69757230008841 -0.5 Z"/><text text-anchor="middle" pointer-events="none" font-size="8px" fill="#000000" x="57.91632230008841" y="3" font-family="sans-serif">ACTED_IN</text></g><g class="relationship" transform="translate(486.66124155640824 226.270125592366) rotate(252.9775707615517)"><path class="outline" fill="#A5ABB6" stroke="none" d="M 25 0.5 L 39.86922084394129 0.5 L 39.86922084394129 -0.5 L 25 -0.5 Z M 85.43172084394129 0.5 L 100.30094168788258 0.5 L 100.30094168788258 3.5 L 107.30094168788258 0 L 100.30094168788258 -3.5 L 100.30094168788258 -0.5 L 85.43172084394129 -0.5 Z"/><text text-anchor="middle" pointer-events="none" font-size="8px" fill="#000000" x="62.65047084394129" y="3" transform="rotate(180 62.65047084394129 0)" font-family="sans-serif">ACTED_IN</text></g><g class="relationship" transform="translate(418.64956068078925 -103.88724766271004) rotate(533.3809002393891)"><path class="outline" fill="#A5ABB6" stroke="none" d="M 25 0.5 L 44.89414617374422 0.5 L 44.89414617374422 -0.5 L 25 -0.5 Z M 90.45664617374422 0.5 L 110.35079234748844 0.5 L 110.35079234748844 3.5 L 117.35079234748844 0 L 110.35079234748844 -3.5 L 110.35079234748844 -0.5 L 90.45664617374422 -0.5 Z"/><text text-anchor="middle" pointer-events="none" font-size="8px" fill="#000000" x="67.67539617374422" y="3" transform="rotate(180 67.67539617374422 0)" font-family="sans-serif">ACTED_IN</text></g><g class="relationship" transform="translate(418.64956068078925 -103.88724766271004) rotate(193.29208326388016)"><path class="outline" fill="#A5ABB6" stroke="none" d="M 25 0.5 L 25.227049416258275 0.5 L 25.227049416258275 -0.5 L 25 -0.5 Z M 66.34033066625827 0.5 L 66.56738008251655 0.5 L 66.56738008251655 3.5 L 73.56738008251655 0 L 66.56738008251655 -3.5 L 66.56738008251655 -0.5 L 66.34033066625827 -0.5 Z"/><text text-anchor="middle" pointer-events="none" font-size="8px" fill="#000000" x="45.783690041258275" y="3" transform="rotate(180 45.783690041258275 0)" font-family="sans-serif">ACTED…</text></g><g class="relationship" transform="translate(418.64956068078925 -103.88724766271004) rotate(230.00617926401787)"><path class="outline" fill="#A5ABB6" stroke="none" d="M 25 0.5 L 27.52251826861218 0.5 L 27.52251826861218 -0.5 L 25 -0.5 Z M 57.52251826861218 0.5 L 60.04503653722436 0.5 L 60.04503653722436 3.5 L 67.04503653722436 0 L 60.04503653722436 -3.5 L 60.04503653722436 -0.5 L 57.52251826861218 -0.5 Z"/><text text-anchor="middle" pointer-events="none" font-size="8px" fill="#000000" x="42.52251826861218" y="3" transform="rotate(180 42.52251826861218 0)" font-family="sans-serif">ACT…</text></g><g class="relationship" transform="translate(225.75736625639908 -175.9435056982639) rotate(419.79878149438304)"><path class="outline" fill="#A5ABB6" stroke="none" d="M 25 0.5 L 27.12261686910604 0.5 L 27.12261686910604 -0.5 L 25 -0.5 Z M 68.23589811910604 0.5 L 70.35851498821208 0.5 L 70.35851498821208 3.5 L 77.35851498821208 0 L 70.35851498821208 -3.5 L 70.35851498821208 -0.5 L 68.23589811910604 -0.5 Z"/><text text-anchor="middle" pointer-events="none" font-size="8px" fill="#000000" x="47.67925749410604" y="3" font-family="sans-serif">ACTED…</text></g><g class="relationship" transform="translate(225.75736625639908 -175.9435056982639) rotate(386.994271273119)"><path class="outline" fill="#A5ABB6" stroke="none" d="M 25 0.5 L 28.129367977424643 0.5 L 28.129367977424643 -0.5 L 25 -0.5 Z M 73.69186797742464 0.5 L 76.82123595484929 0.5 L 76.82123595484929 3.5 L 83.82123595484929 0 L 76.82123595484929 -3.5 L 76.82123595484929 -0.5 L 73.69186797742464 -0.5 Z"/><text text-anchor="middle" pointer-events="none" font-size="8px" fill="#000000" x="50.91061797742464" y="3" font-family="sans-serif">ACTED_IN</text></g><g class="relationship" transform="translate(225.75736625639908 -175.9435056982639) rotate(360.65944785413916)"><path class="outline" fill="#A5ABB6" stroke="none" d="M 25 0.5 L 40.590374279238716 0.5 L 40.590374279238716 -0.5 L 25 -0.5 Z M 86.15287427923872 0.5 L 101.74324855847743 0.5 L 101.74324855847743 3.5 L 108.74324855847743 0 L 101.74324855847743 -3.5 L 101.74324855847743 -0.5 L 86.15287427923872 -0.5 Z"/><text text-anchor="middle" pointer-events="none" font-size="8px" fill="#000000" x="63.371624279238716" y="3" font-family="sans-serif">ACTED_IN</text></g><g class="relationship" transform="translate(266.15730524807896 -220.28776972842556) rotate(445.2265489208247)"><path class="outline" fill="#A5ABB6" stroke="none" d="M 25 0.5 L 40.35440118056613 0.5 L 40.35440118056613 -0.5 L 25 -0.5 Z M 85.91690118056613 0.5 L 101.27130236113226 0.5 L 101.27130236113226 3.5 L 108.27130236113226 0 L 101.27130236113226 -3.5 L 101.27130236113226 -0.5 L 85.91690118056613 -0.5 Z"/><text text-anchor="middle" pointer-events="none" font-size="8px" fill="#000000" x="63.13565118056613" y="3" font-family="sans-serif">ACTED_IN</text></g><g class="relationship" transform="translate(266.15730524807896 -220.28776972842556) rotate(418.8915631980105)"><path class="outline" fill="#A5ABB6" stroke="none" d="M 25 0.5 L 28.460259046506508 0.5 L 28.460259046506508 -0.5 L 25 -0.5 Z M 74.02275904650651 0.5 L 77.48301809301302 0.5 L 77.48301809301302 3.5 L 84.48301809301302 0 L 77.48301809301302 -3.5 L 77.48301809301302 -0.5 L 74.02275904650651 -0.5 Z"/><text text-anchor="middle" pointer-events="none" font-size="8px" fill="#000000" x="51.24150904650651" y="3" font-family="sans-serif">ACTED_IN</text></g><g class="relationship" transform="translate(266.15730524807896 -220.28776972842556) rotate(386.17889775191554)"><path class="outline" fill="#A5ABB6" stroke="none" d="M 25 0.5 L 25.720240852740098 0.5 L 25.720240852740098 -0.5 L 25 -0.5 Z M 71.28274085274009 0.5 L 72.0029817054802 0.5 L 72.0029817054802 3.5 L 79.0029817054802 0 L 72.0029817054802 -3.5 L 72.0029817054802 -0.5 L 71.28274085274009 -0.5 Z"/><text text-anchor="middle" pointer-events="none" font-size="8px" fill="#000000" x="48.5014908527401" y="3" font-family="sans-serif">ACTED_IN</text></g><g class="relationship" transform="translate(354.83313567867884 -296.6671733594175) rotate(447.8178979706303)"><path class="outline" fill="#A5ABB6" stroke="none" d="M 25 0.5 L 34.89458932310205 0.5 L 34.89458932310205 -0.5 L 25 -0.5 Z M 80.45708932310205 0.5 L 90.3516786462041 0.5 L 90.3516786462041 3.5 L 97.3516786462041 0 L 90.3516786462041 -3.5 L 90.3516786462041 -0.5 L 80.45708932310205 -0.5 Z"/><text text-anchor="middle" pointer-events="none" font-size="8px" fill="#000000" x="57.67583932310205" y="3" font-family="sans-serif">ACTED_IN</text></g><g class="relationship" transform="translate(-145.70438002630624 159.2002022038049) rotate(283.22891795328974)"><path class="outline" fill="#A5ABB6" stroke="none" d="M 25 0.5 L 46.54376104731048 0.5 L 46.54376104731048 -0.5 L 25 -0.5 Z M 92.10626104731048 0.5 L 113.65002209462097 0.5 L 113.65002209462097 3.5 L 120.65002209462097 0 L 113.65002209462097 -3.5 L 113.65002209462097 -0.5 L 92.10626104731048 -0.5 Z"/><text text-anchor="middle" pointer-events="none" font-size="8px" fill="#000000" x="69.32501104731048" y="3" font-family="sans-serif">ACTED_IN</text></g><g class="relationship" transform="translate(-145.70438002630624 159.2002022038049) rotate(210.08271430324385)"><path class="outline" fill="#A5ABB6" stroke="none" d="M 25 0.5 L 48.041947802814036 0.5 L 48.041947802814036 -0.5 L 25 -0.5 Z M 93.60444780281404 0.5 L 116.64639560562807 0.5 L 116.64639560562807 3.5 L 123.64639560562807 0 L 116.64639560562807 -3.5 L 116.64639560562807 -0.5 L 93.60444780281404 -0.5 Z"/><text text-anchor="middle" pointer-events="none" font-size="8px" fill="#000000" x="70.82319780281404" y="3" transform="rotate(180 70.82319780281404 0)" font-family="sans-serif">ACTED_IN</text></g><g class="relationship" transform="translate(-145.70438002630624 159.2002022038049) rotate(535.8848396939854)"><path class="outline" fill="#A5ABB6" stroke="none" d="M 25 0.5 L 31.647638686083404 0.5 L 31.647638686083404 -0.5 L 25 -0.5 Z M 77.21013868608341 0.5 L 83.85777737216681 0.5 L 83.85777737216681 3.5 L 90.85777737216681 0 L 83.85777737216681 -3.5 L 83.85777737216681 -0.5 L 77.21013868608341 -0.5 Z"/><text text-anchor="middle" pointer-events="none" font-size="8px" fill="#000000" x="54.428888686083404" y="3" transform="rotate(180 54.428888686083404 0)" font-family="sans-serif">ACTED_IN</text></g><g class="relationship" transform="translate(-145.70438002630624 159.2002022038049) rotate(506.1275313968289)"><path class="outline" fill="#A5ABB6" stroke="none" d="M 25 0.5 L 36.4947834198137 0.5 L 36.4947834198137 -0.5 L 25 -0.5 Z M 82.0572834198137 0.5 L 93.5520668396274 0.5 L 93.5520668396274 3.5 L 100.5520668396274 0 L 93.5520668396274 -3.5 L 93.5520668396274 -0.5 L 82.0572834198137 -0.5 Z"/><text text-anchor="middle" pointer-events="none" font-size="8px" fill="#000000" x="59.2760334198137" y="3" transform="rotate(180 59.2760334198137 0)" font-family="sans-serif">ACTED_IN</text></g><g class="relationship" transform="translate(-145.70438002630624 159.2002022038049) rotate(414.5632082419843)"><path class="outline" fill="#A5ABB6" stroke="none" d="M 25 0.5 L 44.044950146651715 0.5 L 44.044950146651715 -0.5 L 25 -0.5 Z M 89.60745014665171 0.5 L 108.65240029330343 0.5 L 108.65240029330343 3.5 L 115.65240029330343 0 L 108.65240029330343 -3.5 L 108.65240029330343 -0.5 L 89.60745014665171 -0.5 Z"/><text text-anchor="middle" pointer-events="none" font-size="8px" fill="#000000" x="66.82620014665171" y="3" font-family="sans-serif">ACTED_IN</text></g><g class="relationship" transform="translate(-51.803674384919155 -95.69286016998657) rotate(478.1692287354057)"><path class="outline" fill="#A5ABB6" stroke="none" d="M 25 0.5 L 37.87118917411627 0.5 L 37.87118917411627 -0.5 L 25 -0.5 Z M 83.43368917411627 0.5 L 96.30487834823253 0.5 L 96.30487834823253 3.5 L 103.30487834823253 0 L 96.30487834823253 -3.5 L 96.30487834823253 -0.5 L 83.43368917411627 -0.5 Z"/><text text-anchor="middle" pointer-events="none" font-size="8px" fill="#000000" x="60.65243917411627" y="3" transform="rotate(180 60.65243917411627 0)" font-family="sans-serif">ACTED_IN</text></g><g class="relationship" transform="translate(-125.11501839286493 -116.64114597810018) rotate(444.57057907531936)"><path class="outline" fill="#A5ABB6" stroke="none" d="M 25 0.5 L 41.0490085412804 0.5 L 41.0490085412804 -0.5 L 25 -0.5 Z M 86.6115085412804 0.5 L 102.6605170825608 0.5 L 102.6605170825608 3.5 L 109.6605170825608 0 L 102.6605170825608 -3.5 L 102.6605170825608 -0.5 L 86.6115085412804 -0.5 Z"/><text text-anchor="middle" pointer-events="none" font-size="8px" fill="#000000" x="63.8302585412804" y="3" font-family="sans-serif">ACTED_IN</text></g><g class="relationship" transform="translate(-193.98586995135705 -82.34031593725035) rotate(410.7125886301136)"><path class="outline" fill="#A5ABB6" stroke="none" d="M 25 0.5 L 38.16202843597422 0.5 L 38.16202843597422 -0.5 L 25 -0.5 Z M 83.72452843597422 0.5 L 96.88655687194844 0.5 L 96.88655687194844 3.5 L 103.88655687194844 0 L 96.88655687194844 -3.5 L 96.88655687194844 -0.5 L 83.72452843597422 -0.5 Z"/><text text-anchor="middle" pointer-events="none" font-size="8px" fill="#000000" x="60.94327843597422" y="3" font-family="sans-serif">ACTED_IN</text></g><g class="relationship" transform="translate(-2.8142641669763426 -10.272348749764468) rotate(525.8172938069696)"><path class="outline" fill="#A5ABB6" stroke="none" d="M 25 0.5 L 30.220583507528836 0.5 L 30.220583507528836 -0.5 L 25 -0.5 Z M 75.78308350752883 0.5 L 81.00366701505767 0.5 L 81.00366701505767 3.5 L 88.00366701505767 0 L 81.00366701505767 -3.5 L 81.00366701505767 -0.5 L 75.78308350752883 -0.5 Z"/><text text-anchor="middle" pointer-events="none" font-size="8px" fill="#000000" x="53.001833507528836" y="3" transform="rotate(180 53.001833507528836 0)" font-family="sans-serif">ACTED_IN</text></g><g class="relationship" transform="translate(-188.1672520281096 116.83818849003258) rotate(200.4606528414007)"><path class="outline" fill="#A5ABB6" stroke="none" d="M 25 0.5 L 27.481484831826485 0.5 L 27.481484831826485 -0.5 L 25 -0.5 Z M 57.481484831826485 0.5 L 59.96296966365297 0.5 L 59.96296966365297 3.5 L 66.96296966365297 0 L 59.96296966365297 -3.5 L 59.96296966365297 -0.5 L 57.481484831826485 -0.5 Z"/><text text-anchor="middle" pointer-events="none" font-size="8px" fill="#000000" x="42.481484831826485" y="3" transform="rotate(180 42.481484831826485 0)" font-family="sans-serif">ACT…</text></g><g class="relationship" transform="translate(-188.1672520281096 116.83818849003258) rotate(505.2672100170953)"><path class="outline" fill="#A5ABB6" stroke="none" d="M 25 0.5 L 25.972252003289164 0.5 L 25.972252003289164 -0.5 L 25 -0.5 Z M 55.972252003289164 0.5 L 56.94450400657833 0.5 L 56.94450400657833 3.5 L 63.94450400657833 0 L 56.94450400657833 -3.5 L 56.94450400657833 -0.5 L 55.972252003289164 -0.5 Z"/><text text-anchor="middle" pointer-events="none" font-size="8px" fill="#000000" x="40.972252003289164" y="3" transform="rotate(180 40.972252003289164 0)" font-family="sans-serif">ACT…</text></g><g class="relationship" transform="translate(-188.1672520281096 116.83818849003258) rotate(478.8086916617602)"><path class="outline" fill="#A5ABB6" stroke="none" d="M 25 0.5 L 37.82150985015146 0.5 L 37.82150985015146 -0.5 L 25 -0.5 Z M 83.38400985015146 0.5 L 96.20551970030291 0.5 L 96.20551970030291 3.5 L 103.20551970030291 0 L 96.20551970030291 -3.5 L 96.20551970030291 -0.5 L 83.38400985015146 -0.5 Z"/><text text-anchor="middle" pointer-events="none" font-size="8px" fill="#000000" x="60.60275985015146" y="3" transform="rotate(180 60.60275985015146 0)" font-family="sans-serif">ACTED_IN</text></g><g class="relationship" transform="translate(-357.33200345093394 135.62562434734704) rotate(378.36290671598067)"><path class="outline" fill="#A5ABB6" stroke="none" d="M 25 0.5 L 26.554756994079625 0.5 L 26.554756994079625 -0.5 L 25 -0.5 Z M 67.66803824407963 0.5 L 69.22279523815925 0.5 L 69.22279523815925 3.5 L 76.22279523815925 0 L 69.22279523815925 -3.5 L 69.22279523815925 -0.5 L 67.66803824407963 -0.5 Z"/><text text-anchor="middle" pointer-events="none" font-size="8px" fill="#000000" x="47.111397619079625" y="3" font-family="sans-serif">ACTED…</text></g><g class="relationship" transform="translate(-357.33200345093394 135.62562434734704) rotate(401.06159327624863)"><path class="outline" fill="#A5ABB6" stroke="none" d="M 25 0.5 L 44.928084818353284 0.5 L 44.928084818353284 -0.5 L 25 -0.5 Z M 90.49058481835328 0.5 L 110.41866963670657 0.5 L 110.41866963670657 3.5 L 117.41866963670657 0 L 110.41866963670657 -3.5 L 110.41866963670657 -0.5 L 90.49058481835328 -0.5 Z"/><text text-anchor="middle" pointer-events="none" font-size="8px" fill="#000000" x="67.70933481835328" y="3" font-family="sans-serif">ACTED_IN</text></g><g class="relationship" transform="translate(-357.33200345093394 135.62562434734704) rotate(328.46499793895106)"><path class="outline" fill="#A5ABB6" stroke="none" d="M 25 0.5 L 27.52466990740404 0.5 L 27.52466990740404 -0.5 L 25 -0.5 Z M 62.86060740740404 0.5 L 65.38527731480808 0.5 L 65.38527731480808 3.5 L 72.38527731480808 0 L 65.38527731480808 -3.5 L 65.38527731480808 -0.5 L 62.86060740740404 -0.5 Z"/><text text-anchor="middle" pointer-events="none" font-size="8px" fill="#000000" x="45.19263865740404" y="3" font-family="sans-serif">ACTE…</text></g><g class="relationship" transform="translate(-354.52950092902313 195.65547380146236) rotate(343.2098639937169)"><path class="outline" fill="#A5ABB6" stroke="none" d="M 25 0.5 L 27.541578416630877 0.5 L 27.541578416630877 -0.5 L 25 -0.5 Z M 62.87751591663088 0.5 L 65.41909433326175 0.5 L 65.41909433326175 3.5 L 72.41909433326175 0 L 65.41909433326175 -3.5 L 65.41909433326175 -0.5 L 62.87751591663088 -0.5 Z"/><text text-anchor="middle" pointer-events="none" font-size="8px" fill="#000000" x="45.20954716663088" y="3" font-family="sans-serif">ACTE…</text></g><g class="relationship" transform="translate(-354.52950092902313 195.65547380146236) rotate(377.77177449996134)"><path class="outline" fill="#A5ABB6" stroke="none" d="M 25 0.5 L 28.62998446603529 0.5 L 28.62998446603529 -0.5 L 25 -0.5 Z M 74.1924844660353 0.5 L 77.82246893207058 0.5 L 77.82246893207058 3.5 L 84.82246893207058 0 L 77.82246893207058 -3.5 L 77.82246893207058 -0.5 L 74.1924844660353 -0.5 Z"/><text text-anchor="middle" pointer-events="none" font-size="8px" fill="#000000" x="51.41123446603529" y="3" font-family="sans-serif">ACTED_IN</text></g><g class="relationship" transform="translate(-354.52950092902313 195.65547380146236) rotate(305.85806273437277)"><path class="outline" fill="#A5ABB6" stroke="none" d="M 25 0.5 L 42.17541671394757 0.5 L 42.17541671394757 -0.5 L 25 -0.5 Z M 87.73791671394757 0.5 L 104.91333342789514 0.5 L 104.91333342789514 3.5 L 111.91333342789514 0 L 104.91333342789514 -3.5 L 104.91333342789514 -0.5 L 87.73791671394757 -0.5 Z"/><text text-anchor="middle" pointer-events="none" font-size="8px" fill="#000000" x="64.95666671394757" y="3" font-family="sans-serif">ACTED_IN</text></g><g class="relationship" transform="translate(-254.7560436327802 352.0918555226656) rotate(272.240179044479)"><path class="outline" fill="#A5ABB6" stroke="none" d="M 25 0.5 L 35.22359721592479 0.5 L 35.22359721592479 -0.5 L 25 -0.5 Z M 80.7860972159248 0.5 L 91.00969443184958 0.5 L 91.00969443184958 3.5 L 98.00969443184958 0 L 91.00969443184958 -3.5 L 91.00969443184958 -0.5 L 80.7860972159248 -0.5 Z"/><text text-anchor="middle" pointer-events="none" font-size="8px" fill="#000000" x="58.00484721592479" y="3" font-family="sans-serif">ACTED_IN</text></g><g class="relationship" transform="translate(-83.94864645887418 397.32454011142767) rotate(279.1042228971827)"><path class="outline" fill="#A5ABB6" stroke="none" d="M 25 0.5 L 36.270264838269796 0.5 L 36.270264838269796 -0.5 L 25 -0.5 Z M 81.8327648382698 0.5 L 93.10302967653959 0.5 L 93.10302967653959 3.5 L 100.10302967653959 0 L 93.10302967653959 -3.5 L 93.10302967653959 -0.5 L 81.8327648382698 -0.5 Z"/><text text-anchor="middle" pointer-events="none" font-size="8px" fill="#000000" x="59.051514838269796" y="3" font-family="sans-serif">ACTED_IN</text></g><g class="relationship" transform="translate(44.799475716086434 325.9294204873064) rotate(205.57021063298777)"><path class="outline" fill="#A5ABB6" stroke="none" d="M 25 0.5 L 34.11014303525517 0.5 L 34.11014303525517 -0.5 L 25 -0.5 Z M 79.67264303525516 0.5 L 88.78278607051034 0.5 L 88.78278607051034 3.5 L 95.78278607051034 0 L 88.78278607051034 -3.5 L 88.78278607051034 -0.5 L 79.67264303525516 -0.5 Z"/><text text-anchor="middle" pointer-events="none" font-size="8px" fill="#000000" x="56.89139303525517" y="3" transform="rotate(180 56.89139303525517 0)" font-family="sans-serif">ACTED_IN</text></g><g class="relationship" transform="translate(-4.425761264089178 391.49138770875635) rotate(243.0929421272163)"><path class="outline" fill="#A5ABB6" stroke="none" d="M 25 0.5 L 39.70974031876287 0.5 L 39.70974031876287 -0.5 L 25 -0.5 Z M 85.27224031876287 0.5 L 99.98198063752574 0.5 L 99.98198063752574 3.5 L 106.98198063752574 0 L 99.98198063752574 -3.5 L 99.98198063752574 -0.5 L 85.27224031876287 -0.5 Z"/><text text-anchor="middle" pointer-events="none" font-size="8px" fill="#000000" x="62.49099031876287" y="3" transform="rotate(180 62.49099031876287 0)" font-family="sans-serif">ACTED_IN</text></g></g><g class="layer nodes"><g class="node" transform="translate(364.2472159379464,-16.27438787117565)"><circle class="outline" cx="0" cy="0" r="25" fill="#F79767" stroke="#f36924" stroke-width="2px"/><text text-anchor="middle" pointer-events="none" font-family="sans-serif" dy="1.5625" font-size="25" fill="#FFFFFF"/><text text-anchor="middle" pointer-events="none" font-family="sans-serif" dy="1.5625" font-size="25" fill="#FFFFFF"/><text text-anchor="middle" pointer-events="none" x="0" y="0" font-size="10px" fill="#FFFFFF" font-family="sans-serif"> Hugo</text><text text-anchor="middle" pointer-events="none" x="0" y="10" font-size="10px" fill="#FFFFFF" font-family="sans-serif"> Weaving</text></g><g class="node" transform="translate(303.1700497613974,105.19245726063934)"><circle class="outline" cx="0" cy="0" r="25" fill="#57C7E3" stroke="#23b3d7" stroke-width="2px"/><text text-anchor="middle" pointer-events="none" font-family="sans-serif" dy="1.5625" font-size="25" fill="#2A2C34"/><text text-anchor="middle" pointer-events="none" font-family="sans-serif" dy="1.5625" font-size="25" fill="#2A2C34"/><text text-anchor="middle" pointer-events="none" x="0" y="0" font-size="10px" fill="#2A2C34" font-family="sans-serif"> Cloud</text><text text-anchor="middle" pointer-events="none" x="0" y="10" font-size="10px" fill="#2A2C34" font-family="sans-serif"> Atlas</text></g><g class="node" transform="translate(192.6560222241174,135.74363552280806)"><circle class="outline" cx="0" cy="0" r="25" fill="#F79767" stroke="#f36924" stroke-width="2px"/><text text-anchor="middle" pointer-events="none" font-family="sans-serif" dy="1.5625" font-size="25" fill="#FFFFFF"/><text text-anchor="middle" pointer-events="none" font-family="sans-serif" dy="1.5625" font-size="25" fill="#FFFFFF"/><text text-anchor="middle" pointer-events="none" x="0" y="0" font-size="10px" fill="#FFFFFF" font-family="sans-serif"> Tom</text><text text-anchor="middle" pointer-events="none" x="0" y="10" font-size="10px" fill="#FFFFFF" font-family="sans-serif"> Hanks</text></g><g class="node" transform="translate(309.51024269428177,240.0995972843306)"><circle class="outline" cx="0" cy="0" r="25" fill="#F79767" stroke="#f36924" stroke-width="2px"/><text text-anchor="middle" pointer-events="none" font-family="sans-serif" dy="1.5625" font-size="25" fill="#FFFFFF"/><text text-anchor="middle" pointer-events="none" font-family="sans-serif" dy="1.5625" font-size="25" fill="#FFFFFF"/><text text-anchor="middle" pointer-events="none" x="0" y="0" font-size="10px" fill="#FFFFFF" font-family="sans-serif"> Jim</text><text text-anchor="middle" pointer-events="none" x="0" y="10" font-size="10px" fill="#FFFFFF" font-family="sans-serif"> Broadb…</text></g><g class="node" transform="translate(240.19267984752156,218.1916781623993)"><circle class="outline" cx="0" cy="0" r="25" fill="#F79767" stroke="#f36924" stroke-width="2px"/><text text-anchor="middle" pointer-events="none" font-family="sans-serif" dy="1.5625" font-size="25" fill="#FFFFFF"/><text text-anchor="middle" pointer-events="none" font-family="sans-serif" dy="1.5625" font-size="25" fill="#FFFFFF"/><text text-anchor="middle" pointer-events="none" x="0" y="0" font-size="10px" fill="#FFFFFF" font-family="sans-serif"> Halle</text><text text-anchor="middle" pointer-events="none" x="0" y="10" font-size="10px" fill="#FFFFFF" font-family="sans-serif"> Berry</text></g><g class="node" transform="translate(447.93066462322673,99.76525777328399)"><circle class="outline" cx="0" cy="0" r="25" fill="#57C7E3" stroke="#23b3d7" stroke-width="2px"/><text text-anchor="middle" pointer-events="none" font-family="sans-serif" dy="1.5625" font-size="25" fill="#2A2C34"/><text text-anchor="middle" pointer-events="none" font-family="sans-serif" dy="1.5625" font-size="25" fill="#2A2C34"/><text text-anchor="middle" pointer-events="none" x="0" y="0" font-size="10px" fill="#2A2C34" font-family="sans-serif"> V for</text><text text-anchor="middle" pointer-events="none" x="0" y="10" font-size="10px" fill="#2A2C34" font-family="sans-serif"> Vendetta</text></g><g class="node" transform="translate(560.1368935306228,70.48154688761578)"><circle class="outline" cx="0" cy="0" r="25" fill="#F79767" stroke="#f36924" stroke-width="2px"/><text text-anchor="middle" pointer-events="none" font-family="sans-serif" dy="1.5625" font-size="25" fill="#FFFFFF"/><text text-anchor="middle" pointer-events="none" x="0" y="5" font-size="10px" fill="#FFFFFF" font-family="sans-serif"> John Hurt</text></g><g class="node" transform="translate(546.1293766318329,171.57698276591796)"><circle class="outline" cx="0" cy="0" r="25" fill="#F79767" stroke="#f36924" stroke-width="2px"/><text text-anchor="middle" pointer-events="none" font-family="sans-serif" dy="1.5625" font-size="25" fill="#FFFFFF"/><text text-anchor="middle" pointer-events="none" font-family="sans-serif" dy="1.5625" font-size="25" fill="#FFFFFF"/><text text-anchor="middle" pointer-events="none" x="0" y="0" font-size="10px" fill="#FFFFFF" font-family="sans-serif"> Stephen</text><text text-anchor="middle" pointer-events="none" x="0" y="10" font-size="10px" fill="#FFFFFF" font-family="sans-serif"> Rea</text></g><g class="node" transform="translate(415.3111896186725,218.1875041204151)"><circle class="outline" cx="0" cy="0" r="25" fill="#F79767" stroke="#f36924" stroke-width="2px"/><text text-anchor="middle" pointer-events="none" font-family="sans-serif" dy="1.5625" font-size="25" fill="#FFFFFF"/><text text-anchor="middle" pointer-events="none" font-family="sans-serif" dy="1.5625" font-size="25" fill="#FFFFFF"/><text text-anchor="middle" pointer-events="none" x="0" y="0" font-size="10px" fill="#FFFFFF" font-family="sans-serif"> Natalie</text><text text-anchor="middle" pointer-events="none" x="0" y="10" font-size="10px" fill="#FFFFFF" font-family="sans-serif"> Portman</text></g><g class="node" transform="translate(486.66124155640824,226.270125592366)"><circle class="outline" cx="0" cy="0" r="25" fill="#F79767" stroke="#f36924" stroke-width="2px"/><text text-anchor="middle" pointer-events="none" font-family="sans-serif" dy="1.5625" font-size="25" fill="#FFFFFF"/><text text-anchor="middle" pointer-events="none" x="0" y="5" font-size="10px" fill="#FFFFFF" font-family="sans-serif"> Ben Miles</text></g><g class="node" transform="translate(277.24762238950495,-87.47871544847474)"><circle class="outline" cx="0" cy="0" r="25" fill="#57C7E3" stroke="#23b3d7" stroke-width="2px"/><text text-anchor="middle" pointer-events="none" font-family="sans-serif" dy="1.5625" font-size="25" fill="#2A2C34"/><text text-anchor="middle" pointer-events="none" font-family="sans-serif" dy="1.5625" font-size="25" fill="#2A2C34"/><text text-anchor="middle" pointer-events="none" font-family="sans-serif" dy="1.5625" font-size="25" fill="#2A2C34"/><text text-anchor="middle" pointer-events="none" x="0" y="-5" font-size="10px" fill="#2A2C34" font-family="sans-serif"> The</text><text text-anchor="middle" pointer-events="none" x="0" y="5" font-size="10px" fill="#2A2C34" font-family="sans-serif"> Matrix</text><text text-anchor="middle" pointer-events="none" x="0" y="15" font-size="10px" fill="#2A2C34" font-family="sans-serif"> Revol…</text></g><g class="node" transform="translate(418.64956068078925,-103.88724766271004)"><circle class="outline" cx="0" cy="0" r="25" fill="#F79767" stroke="#f36924" stroke-width="2px"/><text text-anchor="middle" pointer-events="none" font-family="sans-serif" dy="1.5625" font-size="25" fill="#FFFFFF"/><text text-anchor="middle" pointer-events="none" font-family="sans-serif" dy="1.5625" font-size="25" fill="#FFFFFF"/><text text-anchor="middle" pointer-events="none" x="0" y="0" font-size="10px" fill="#FFFFFF" font-family="sans-serif"> Laurence</text><text text-anchor="middle" pointer-events="none" x="0" y="10" font-size="10px" fill="#FFFFFF" font-family="sans-serif"> Fishbur…</text></g><g class="node" transform="translate(225.75736625639908,-175.9435056982639)"><circle class="outline" cx="0" cy="0" r="25" fill="#F79767" stroke="#f36924" stroke-width="2px"/><text text-anchor="middle" pointer-events="none" font-family="sans-serif" dy="1.5625" font-size="25" fill="#FFFFFF"/><text text-anchor="middle" pointer-events="none" x="0" y="5" font-size="10px" fill="#FFFFFF" font-family="sans-serif"> Carrie-A…</text></g><g class="node" transform="translate(266.15730524807896,-220.28776972842556)"><circle class="outline" cx="0" cy="0" r="25" fill="#F79767" stroke="#f36924" stroke-width="2px"/><text text-anchor="middle" pointer-events="none" font-family="sans-serif" dy="1.5625" font-size="25" fill="#FFFFFF"/><text text-anchor="middle" pointer-events="none" font-family="sans-serif" dy="1.5625" font-size="25" fill="#FFFFFF"/><text text-anchor="middle" pointer-events="none" x="0" y="0" font-size="10px" fill="#FFFFFF" font-family="sans-serif"> Keanu</text><text text-anchor="middle" pointer-events="none" x="0" y="10" font-size="10px" fill="#FFFFFF" font-family="sans-serif"> Reeves</text></g><g class="node" transform="translate(322.7227366246314,-126.54939325464855)"><circle class="outline" cx="0" cy="0" r="25" fill="#57C7E3" stroke="#23b3d7" stroke-width="2px"/><text text-anchor="middle" pointer-events="none" font-family="sans-serif" dy="1.5625" font-size="25" fill="#2A2C34"/><text text-anchor="middle" pointer-events="none" font-family="sans-serif" dy="1.5625" font-size="25" fill="#2A2C34"/><text text-anchor="middle" pointer-events="none" font-family="sans-serif" dy="1.5625" font-size="25" fill="#2A2C34"/><text text-anchor="middle" pointer-events="none" x="0" y="-5" font-size="10px" fill="#2A2C34" font-family="sans-serif"> The</text><text text-anchor="middle" pointer-events="none" x="0" y="5" font-size="10px" fill="#2A2C34" font-family="sans-serif"> Matrix</text><text text-anchor="middle" pointer-events="none" x="0" y="15" font-size="10px" fill="#2A2C34" font-family="sans-serif"> Reloa…</text></g><g class="node" transform="translate(359.4917564669923,-174.40421690941713)"><circle class="outline" cx="0" cy="0" r="25" fill="#57C7E3" stroke="#23b3d7" stroke-width="2px"/><text text-anchor="middle" pointer-events="none" font-family="sans-serif" dy="1.5625" font-size="25" fill="#2A2C34"/><text text-anchor="middle" pointer-events="none" font-family="sans-serif" dy="1.5625" font-size="25" fill="#2A2C34"/><text text-anchor="middle" pointer-events="none" x="0" y="0" font-size="10px" fill="#2A2C34" font-family="sans-serif"> The</text><text text-anchor="middle" pointer-events="none" x="0" y="10" font-size="10px" fill="#2A2C34" font-family="sans-serif"> Matrix</text></g><g class="node" transform="translate(354.83313567867884,-296.6671733594175)"><circle class="outline" cx="0" cy="0" r="25" fill="#F79767" stroke="#f36924" stroke-width="2px"/><text text-anchor="middle" pointer-events="none" font-family="sans-serif" dy="1.5625" font-size="25" fill="#FFFFFF"/><text text-anchor="middle" pointer-events="none" font-family="sans-serif" dy="1.5625" font-size="25" fill="#FFFFFF"/><text text-anchor="middle" pointer-events="none" x="0" y="0" font-size="10px" fill="#FFFFFF" font-family="sans-serif"> Emil</text><text text-anchor="middle" pointer-events="none" x="0" y="10" font-size="10px" fill="#FFFFFF" font-family="sans-serif"> Eifrem</text></g><g class="node" transform="translate(-145.70438002630624,159.2002022038049)"><circle class="outline" cx="0" cy="0" r="25" fill="#F79767" stroke="#f36924" stroke-width="2px"/><text text-anchor="middle" pointer-events="none" font-family="sans-serif" dy="1.5625" font-size="25" fill="#FFFFFF"/><text text-anchor="middle" pointer-events="none" font-family="sans-serif" dy="1.5625" font-size="25" fill="#FFFFFF"/><text text-anchor="middle" pointer-events="none" x="0" y="0" font-size="10px" fill="#FFFFFF" font-family="sans-serif"> Hugo</text><text text-anchor="middle" pointer-events="none" x="0" y="10" font-size="10px" fill="#FFFFFF" font-family="sans-serif"> Weaving</text></g><g class="node" transform="translate(-112.37350571178617,17.41521797207026)"><circle class="outline" cx="0" cy="0" r="25" fill="#57C7E3" stroke="#23b3d7" stroke-width="2px"/><text text-anchor="middle" pointer-events="none" font-family="sans-serif" dy="1.5625" font-size="25" fill="#2A2C34"/><text text-anchor="middle" pointer-events="none" font-family="sans-serif" dy="1.5625" font-size="25" fill="#2A2C34"/><text text-anchor="middle" pointer-events="none" x="0" y="0" font-size="10px" fill="#2A2C34" font-family="sans-serif"> V for</text><text text-anchor="middle" pointer-events="none" x="0" y="10" font-size="10px" fill="#2A2C34" font-family="sans-serif"> Vendetta</text></g><g class="node" transform="translate(-51.803674384919155,-95.69286016998657)"><circle class="outline" cx="0" cy="0" r="25" fill="#F79767" stroke="#f36924" stroke-width="2px"/><text text-anchor="middle" pointer-events="none" font-family="sans-serif" dy="1.5625" font-size="25" fill="#FFFFFF"/><text text-anchor="middle" pointer-events="none" font-family="sans-serif" dy="1.5625" font-size="25" fill="#FFFFFF"/><text text-anchor="middle" pointer-events="none" x="0" y="0" font-size="10px" fill="#FFFFFF" font-family="sans-serif"> Stephen</text><text text-anchor="middle" pointer-events="none" x="0" y="10" font-size="10px" fill="#FFFFFF" font-family="sans-serif"> Rea</text></g><g class="node" transform="translate(-125.11501839286493,-116.64114597810018)"><circle class="outline" cx="0" cy="0" r="25" fill="#F79767" stroke="#f36924" stroke-width="2px"/><text text-anchor="middle" pointer-events="none" font-family="sans-serif" dy="1.5625" font-size="25" fill="#FFFFFF"/><text text-anchor="middle" pointer-events="none" x="0" y="5" font-size="10px" fill="#FFFFFF" font-family="sans-serif"> John Hurt</text></g><g class="node" transform="translate(-193.98586995135705,-82.34031593725035)"><circle class="outline" cx="0" cy="0" r="25" fill="#F79767" stroke="#f36924" stroke-width="2px"/><text text-anchor="middle" pointer-events="none" font-family="sans-serif" dy="1.5625" font-size="25" fill="#FFFFFF"/><text text-anchor="middle" pointer-events="none" x="0" y="5" font-size="10px" fill="#FFFFFF" font-family="sans-serif"> Ben Miles</text></g><g class="node" transform="translate(-2.8142641669763426,-10.272348749764468)"><circle class="outline" cx="0" cy="0" r="25" fill="#F79767" stroke="#f36924" stroke-width="2px"/><text text-anchor="middle" pointer-events="none" font-family="sans-serif" dy="1.5625" font-size="25" fill="#FFFFFF"/><text text-anchor="middle" pointer-events="none" font-family="sans-serif" dy="1.5625" font-size="25" fill="#FFFFFF"/><text text-anchor="middle" pointer-events="none" x="0" y="0" font-size="10px" fill="#FFFFFF" font-family="sans-serif"> Natalie</text><text text-anchor="middle" pointer-events="none" x="0" y="10" font-size="10px" fill="#FFFFFF" font-family="sans-serif"> Portman</text></g><g class="node" transform="translate(-274.32850498203516,84.69124028701319)"><circle class="outline" cx="0" cy="0" r="25" fill="#57C7E3" stroke="#23b3d7" stroke-width="2px"/><text text-anchor="middle" pointer-events="none" font-family="sans-serif" dy="1.5625" font-size="25" fill="#2A2C34"/><text text-anchor="middle" pointer-events="none" font-family="sans-serif" dy="1.5625" font-size="25" fill="#2A2C34"/><text text-anchor="middle" pointer-events="none" font-family="sans-serif" dy="1.5625" font-size="25" fill="#2A2C34"/><text text-anchor="middle" pointer-events="none" x="0" y="-5" font-size="10px" fill="#2A2C34" font-family="sans-serif"> The</text><text text-anchor="middle" pointer-events="none" x="0" y="5" font-size="10px" fill="#2A2C34" font-family="sans-serif"> Matrix</text><text text-anchor="middle" pointer-events="none" x="0" y="15" font-size="10px" fill="#2A2C34" font-family="sans-serif"> Revol…</text></g><g class="node" transform="translate(-188.1672520281096,116.83818849003258)"><circle class="outline" cx="0" cy="0" r="25" fill="#F79767" stroke="#f36924" stroke-width="2px"/><text text-anchor="middle" pointer-events="none" font-family="sans-serif" dy="1.5625" font-size="25" fill="#FFFFFF"/><text text-anchor="middle" pointer-events="none" font-family="sans-serif" dy="1.5625" font-size="25" fill="#FFFFFF"/><text text-anchor="middle" pointer-events="none" x="0" y="0" font-size="10px" fill="#FFFFFF" font-family="sans-serif"> Keanu</text><text text-anchor="middle" pointer-events="none" x="0" y="10" font-size="10px" fill="#FFFFFF" font-family="sans-serif"> Reeves</text></g><g class="node" transform="translate(-357.33200345093394,135.62562434734704)"><circle class="outline" cx="0" cy="0" r="25" fill="#F79767" stroke="#f36924" stroke-width="2px"/><text text-anchor="middle" pointer-events="none" font-family="sans-serif" dy="1.5625" font-size="25" fill="#FFFFFF"/><text text-anchor="middle" pointer-events="none" font-family="sans-serif" dy="1.5625" font-size="25" fill="#FFFFFF"/><text text-anchor="middle" pointer-events="none" x="0" y="0" font-size="10px" fill="#FFFFFF" font-family="sans-serif"> Laurence</text><text text-anchor="middle" pointer-events="none" x="0" y="10" font-size="10px" fill="#FFFFFF" font-family="sans-serif"> Fishbur…</text></g><g class="node" transform="translate(-354.52950092902313,195.65547380146236)"><circle class="outline" cx="0" cy="0" r="25" fill="#F79767" stroke="#f36924" stroke-width="2px"/><text text-anchor="middle" pointer-events="none" font-family="sans-serif" dy="1.5625" font-size="25" fill="#FFFFFF"/><text text-anchor="middle" pointer-events="none" x="0" y="5" font-size="10px" fill="#FFFFFF" font-family="sans-serif"> Carrie-A…</text></g><g class="node" transform="translate(-261.26345635111966,167.51431409711697)"><circle class="outline" cx="0" cy="0" r="25" fill="#57C7E3" stroke="#23b3d7" stroke-width="2px"/><text text-anchor="middle" pointer-events="none" font-family="sans-serif" dy="1.5625" font-size="25" fill="#2A2C34"/><text text-anchor="middle" pointer-events="none" font-family="sans-serif" dy="1.5625" font-size="25" fill="#2A2C34"/><text text-anchor="middle" pointer-events="none" font-family="sans-serif" dy="1.5625" font-size="25" fill="#2A2C34"/><text text-anchor="middle" pointer-events="none" x="0" y="-5" font-size="10px" fill="#2A2C34" font-family="sans-serif"> The</text><text text-anchor="middle" pointer-events="none" x="0" y="5" font-size="10px" fill="#2A2C34" font-family="sans-serif"> Matrix</text><text text-anchor="middle" pointer-events="none" x="0" y="15" font-size="10px" fill="#2A2C34" font-family="sans-serif"> Reloa…</text></g><g class="node" transform="translate(-249.94777435487094,229.17617112572574)"><circle class="outline" cx="0" cy="0" r="25" fill="#57C7E3" stroke="#23b3d7" stroke-width="2px"/><text text-anchor="middle" pointer-events="none" font-family="sans-serif" dy="1.5625" font-size="25" fill="#2A2C34"/><text text-anchor="middle" pointer-events="none" font-family="sans-serif" dy="1.5625" font-size="25" fill="#2A2C34"/><text text-anchor="middle" pointer-events="none" x="0" y="0" font-size="10px" fill="#2A2C34" font-family="sans-serif"> The</text><text text-anchor="middle" pointer-events="none" x="0" y="10" font-size="10px" fill="#2A2C34" font-family="sans-serif"> Matrix</text></g><g class="node" transform="translate(-254.7560436327802,352.0918555226656)"><circle class="outline" cx="0" cy="0" r="25" fill="#F79767" stroke="#f36924" stroke-width="2px"/><text text-anchor="middle" pointer-events="none" font-family="sans-serif" dy="1.5625" font-size="25" fill="#FFFFFF"/><text text-anchor="middle" pointer-events="none" font-family="sans-serif" dy="1.5625" font-size="25" fill="#FFFFFF"/><text text-anchor="middle" pointer-events="none" x="0" y="0" font-size="10px" fill="#FFFFFF" font-family="sans-serif"> Emil</text><text text-anchor="middle" pointer-events="none" x="0" y="10" font-size="10px" fill="#FFFFFF" font-family="sans-serif"> Eifrem</text></g><g class="node" transform="translate(-64.15348865650512,273.797539978548)"><circle class="outline" cx="0" cy="0" r="25" fill="#57C7E3" stroke="#23b3d7" stroke-width="2px"/><text text-anchor="middle" pointer-events="none" font-family="sans-serif" dy="1.5625" font-size="25" fill="#2A2C34"/><text text-anchor="middle" pointer-events="none" font-family="sans-serif" dy="1.5625" font-size="25" fill="#2A2C34"/><text text-anchor="middle" pointer-events="none" x="0" y="0" font-size="10px" fill="#2A2C34" font-family="sans-serif"> Cloud</text><text text-anchor="middle" pointer-events="none" x="0" y="10" font-size="10px" fill="#2A2C34" font-family="sans-serif"> Atlas</text></g><g class="node" transform="translate(-83.94864645887418,397.32454011142767)"><circle class="outline" cx="0" cy="0" r="25" fill="#F79767" stroke="#f36924" stroke-width="2px"/><text text-anchor="middle" pointer-events="none" font-family="sans-serif" dy="1.5625" font-size="25" fill="#FFFFFF"/><text text-anchor="middle" pointer-events="none" font-family="sans-serif" dy="1.5625" font-size="25" fill="#FFFFFF"/><text text-anchor="middle" pointer-events="none" x="0" y="0" font-size="10px" fill="#FFFFFF" font-family="sans-serif"> Halle</text><text text-anchor="middle" pointer-events="none" x="0" y="10" font-size="10px" fill="#FFFFFF" font-family="sans-serif"> Berry</text></g><g class="node" transform="translate(44.799475716086434,325.9294204873064)"><circle class="outline" cx="0" cy="0" r="25" fill="#F79767" stroke="#f36924" stroke-width="2px"/><text text-anchor="middle" pointer-events="none" font-family="sans-serif" dy="1.5625" font-size="25" fill="#FFFFFF"/><text text-anchor="middle" pointer-events="none" font-family="sans-serif" dy="1.5625" font-size="25" fill="#FFFFFF"/><text text-anchor="middle" pointer-events="none" x="0" y="0" font-size="10px" fill="#FFFFFF" font-family="sans-serif"> Tom</text><text text-anchor="middle" pointer-events="none" x="0" y="10" font-size="10px" fill="#FFFFFF" font-family="sans-serif"> Hanks</text></g><g class="node" transform="translate(-4.425761264089178,391.49138770875635)"><circle class="outline" cx="0" cy="0" r="25" fill="#F79767" stroke="#f36924" stroke-width="2px"/><text text-anchor="middle" pointer-events="none" font-family="sans-serif" dy="1.5625" font-size="25" fill="#FFFFFF"/><text text-anchor="middle" pointer-events="none" font-family="sans-serif" dy="1.5625" font-size="25" fill="#FFFFFF"/><text text-anchor="middle" pointer-events="none" x="0" y="0" font-size="10px" fill="#FFFFFF" font-family="sans-serif"> Jim</text><text text-anchor="middle" pointer-events="none" x="0" y="10" font-size="10px" fill="#FFFFFF" font-family="sans-serif"> Broadb…</text></g></g></svg>