<svg xmlns="http://www.w3.org/2000/svg" width="624.2197875976562" height="669.7106323242188" viewBox="-172.27833557128906 -206.3352813720703 624.2197875976562 669.7106323242188"><title>Neo4j Graph Visualization</title><desc>Created using Neo4j (http://www.neo4j.com/)</desc><g class="layer relationships"><g class="relationship" transform="translate(194.69183898268003 227.45187107598997) rotate(446.3399838202235)"><path class="outline" fill="#A5ABB6" stroke="none" d="M 25 0.5 L 40.842451733879756 0.5 L 40.842451733879756 -0.5 L 25 -0.5 Z M 86.40495173387976 0.5 L 102.24740346775951 0.5 L 102.24740346775951 3.5 L 109.24740346775951 0 L 102.24740346775951 -3.5 L 102.24740346775951 -0.5 L 86.40495173387976 -0.5 Z"/><text text-anchor="middle" pointer-events="none" font-size="8px" fill="#000000" x="63.623701733879756" y="3" font-family="sans-serif">ACTED_IN</text></g><g class="relationship" transform="translate(194.69183898268003 227.45187107598997) rotate(357.64808565757016)"><path class="outline" fill="#A5ABB6" stroke="none" d="M 25 0.5 L 48.11958436841323 0.5 L 48.11958436841323 -0.5 L 25 -0.5 Z M 93.68208436841323 0.5 L 116.80166873682646 0.5 L 116.80166873682646 3.5 L 123.80166873682646 0 L 116.80166873682646 -3.5 L 116.80166873682646 -0.5 L 93.68208436841323 -0.5 Z"/><text text-anchor="middle" pointer-events="none" font-size="8px" fill="#000000" x="70.90083436841323" y="3" font-family="sans-serif">ACTED_IN</text></g><g class="relationship" transform="translate(194.69183898268003 227.45187107598997) rotate(335.51909261623837)"><path class="outline" fill="#A5ABB6" stroke="none" d="M 25 0.5 L 31.941789192586697 0.5 L 31.941789192586697 -0.5 L 25 -0.5 Z M 77.5042891925867 0.5 L 84.4460783851734 0.5 L 84.4460783851734 3.5 L 91.4460783851734 0 L 84.4460783851734 -3.5 L 84.4460783851734 -0.5 L 77.5042891925867 -0.5 Z"/><text text-anchor="middle" pointer-events="none" font-size="8px" fill="#000000" x="54.7230391925867" y="3" font-family="sans-serif">ACTED_IN</text></g><g class="relationship" transform="translate(194.69183898268003 227.45187107598997) rotate(305.5356342381433)"><path class="outline" fill="#A5ABB6" stroke="none" d="M 25 0.5 L 27.129419574552102 0.5 L 27.129419574552102 -0.5 L 25 -0.5 Z M 52.2427008245521 0.5 L 54.372120399104205 0.5 L 54.372120399104205 3.5 L 61.372120399104205 0 L 54.372120399104205 -3.5 L 54.372120399104205 -0.5 L 52.2427008245521 -0.5 Z"/><text text-anchor="middle" pointer-events="none" font-size="8px" fill="#000000" x="39.6860601995521" y="3" font-family="sans-serif">AC…</text></g><g class="relationship" transform="translate(194.69183898268003 227.45187107598997) rotate(476.1517572061705)"><path class="outline" fill="#A5ABB6" stroke="none" d="M 25 0.5 L 26.973548795181657 0.5 L 26.973548795181657 -0.5 L 25 -0.5 Z M 62.30948629518166 0.5 L 64.28303509036331 0.5 L 64.28303509036331 3.5 L 71.28303509036331 0 L 64.28303509036331 -3.5 L 64.28303509036331 -0.5 L 62.30948629518166 -0.5 Z"/><text text-anchor="middle" pointer-events="none" font-size="8px" fill="#000000" x="44.64151754518166" y="3" transform="rotate(180 44.64151754518166 0)" font-family="sans-serif">ACTE…</text></g><g class="relationship" transform="translate(107.70254055447565 434.3753388696906) rotate(322.6418647622194)"><path class="outline" fill="#A5ABB6" stroke="none" d="M 25 0.5 L 33.16547293141143 0.5 L 33.16547293141143 -0.5 L 25 -0.5 Z M 80.05609793141143 0.5 L 88.22157086282286 0.5 L 88.22157086282286 3.5 L 95.22157086282286 0 L 88.22157086282286 -3.5 L 88.22157086282286 -0.5 L 80.05609793141143 -0.5 Z"/><text text-anchor="middle" pointer-events="none" font-size="8px" fill="#000000" x="56.61078543141143" y="3" font-family="sans-serif">DIRECTED</text></g><g class="relationship" transform="translate(242.00674350414823 264.34771748443364) rotate(337.0110794212727)"><path class="outline" fill="#A5ABB6" stroke="none" d="M 24.018736134675446,6.953439040707552 L 24.277555179777966,5.987513214418485 A 111.90656441155306 111.90656441155306 0 0 0 26.00720843577153,6.436202674081059 L 25.763845617612343,7.406138001171286 A 112.90656441155306 112.90656441155306 0 0 1 24.018736134675446,6.953439040707552 Z M 77.31056416714854,8.205238943257541 L 77.09738383550783,7.228226074252461 A 111.90656441155306 111.90656441155306 0 0 0 78.84011416731563,6.833367102240229 L 78.15385392028423,3.9129139056722018 L 85.76888166714626,5.718835391928308 L 79.75512783002415,10.727304697664264 L 79.06886758299275,7.806851501096237 A 112.90656441155306 112.90656441155306 0 0 1 77.31056416714854,8.205238943257541"/><text text-anchor="middle" pointer-events="none" font-size="8px" fill="#000000" x="51.49873640966506" y="13.287132238731289" font-family="sans-serif">PRODUCED</text></g><g class="relationship" transform="translate(242.00674350414823 264.34771748443364) rotate(337.0110794212727)"><path class="outline" fill="#A5ABB6" stroke="none" d="M 24.018736134675446,-6.953439040707552 L 24.277555179777966,-5.987513214418485 A 111.90656441155306 111.90656441155306 0 0 1 33.79842921238034,-8.098707194213816 L 33.624688947800365,-9.083498705379341 A 112.90656441155306 112.90656441155306 0 0 0 24.018736134675446,-6.953439040707552 Z M 69.40150432448091,-9.638127354434417 L 69.2583735943305,-8.648423563350121 A 111.90656441155306 111.90656441155306 0 0 1 78.84011416731563,-6.833367102240229 L 78.15385392028423,-3.9129139056722018 L 85.76888166714626,-5.718835391928308 L 79.75512783002415,-10.727304697664264 L 79.06886758299275,-7.806851501096237 A 112.90656441155306 112.90656441155306 0 0 0 69.40150432448091,-9.638127354434417"/><text text-anchor="middle" pointer-events="none" font-size="8px" fill="#000000" x="51.498736409665064" y="-7.287132238731289" font-family="sans-serif">WROTE</text></g><g class="relationship" transform="translate(242.00674350414823 264.34771748443364) rotate(471.7576405961754)"><path class="outline" fill="#A5ABB6" stroke="none" d="M 25 0.5 L 25.31670015450164 0.5 L 25.31670015450164 -0.5 L 25 -0.5 Z M 72.20732515450163 0.5 L 72.52402530900328 0.5 L 72.52402530900328 3.5 L 79.52402530900328 0 L 72.52402530900328 -3.5 L 72.52402530900328 -0.5 L 72.20732515450163 -0.5 Z"/><text text-anchor="middle" pointer-events="none" font-size="8px" fill="#000000" x="48.76201265450164" y="3" transform="rotate(180 48.76201265450164 0)" font-family="sans-serif">DIRECTED</text></g><g class="relationship" transform="translate(242.00674350414823 264.34771748443364) rotate(304.56423929703965)"><path class="outline" fill="#A5ABB6" stroke="none" d="M 25 0.5 L 26.31193875531678 0.5 L 26.31193875531678 -0.5 L 25 -0.5 Z M 70.08928250531679 0.5 L 71.40122126063356 0.5 L 71.40122126063356 3.5 L 78.40122126063356 0 L 71.40122126063356 -3.5 L 71.40122126063356 -0.5 L 70.08928250531679 -0.5 Z"/><text text-anchor="middle" pointer-events="none" font-size="8px" fill="#000000" x="48.20061063031678" y="3" font-family="sans-serif">DIRECT…</text></g><g class="relationship" transform="translate(242.00674350414823 264.34771748443364) rotate(271.5420498949518)"><path class="outline" fill="#A5ABB6" stroke="none" d="M 25 0.5 L 26.664863873772823 0.5 L 26.664863873772823 -0.5 L 25 -0.5 Z M 73.55548887377282 0.5 L 75.22035274754565 0.5 L 75.22035274754565 3.5 L 82.22035274754565 0 L 75.22035274754565 -3.5 L 75.22035274754565 -0.5 L 73.55548887377282 -0.5 Z"/><text text-anchor="middle" pointer-events="none" font-size="8px" fill="#000000" x="50.11017637377282" y="3" font-family="sans-serif">DIRECTED</text></g><g class="relationship" transform="translate(242.00674350414823 264.34771748443364) rotate(511.1072957126314)"><path class="outline" fill="#A5ABB6" stroke="none" d="M 25 0.5 L 25.867182528743896 0.5 L 25.867182528743896 -0.5 L 25 -0.5 Z M 69.6445262787439 0.5 L 70.51170880748779 0.5 L 70.51170880748779 3.5 L 77.51170880748779 0 L 70.51170880748779 -3.5 L 70.51170880748779 -0.5 L 69.6445262787439 -0.5 Z"/><text text-anchor="middle" pointer-events="none" font-size="8px" fill="#000000" x="47.755854403743896" y="3" transform="rotate(180 47.755854403743896 0)" font-family="sans-serif">DIRECT…</text></g><g class="relationship" transform="translate(290.2217190611324 299.9776997757092) rotate(304.0542221669159)"><path class="outline" fill="#A5ABB6" stroke="none" d="M 24.018736134675446,6.953439040707552 L 24.277555179777966,5.987513214418485 A 81.42571021906906 81.42571021906906 0 0 0 25.655193815042082,6.343778268686009 L 25.41329373363736,7.314079433591203 A 82.42571021906906 82.42571021906906 0 0 1 24.018736134675446,6.953439040707552 Z M 62.428736900983886,7.9736870688806505 L 62.22156055867363,6.995383453847495 A 81.42571021906906 81.42571021906906 0 0 0 63.61101765716349,6.688427480260412 L 62.938296306773026,3.7648259368333954 L 70.5448748168916,5.60601125325384 L 64.5079794576841,10.586562871496435 L 63.83525810729364,7.662961328069418 A 82.42571021906906 82.42571021906906 0 0 1 62.428736900983886,7.9736870688806505"/><text text-anchor="middle" pointer-events="none" font-size="8px" fill="#000000" x="43.89241206290033" y="12.249022551299973" font-family="sans-serif">PROD…</text></g><g class="relationship" transform="translate(290.2217190611324 299.9776997757092) rotate(304.0542221669159)"><path class="outline" fill="#A5ABB6" stroke="none" d="M 24.018736134675446,-6.953439040707552 L 24.277555179777966,-5.987513214418485 A 81.42571021906906 81.42571021906906 0 0 1 26.301903949844128,-6.502200141466872 L 26.067946201801465,-7.474446906506898 A 82.42571021906906 82.42571021906906 0 0 0 24.018736134675446,-6.953439040707552 Z M 61.76878644734995,-8.110628586292535 L 61.56961671428674,-7.130663578023601 A 81.42571021906906 81.42571021906906 0 0 1 63.61101765716349,-6.688427480260412 L 62.938296306773026,-3.7648259368333954 L 70.5448748168916,-5.60601125325384 L 64.5079794576841,-10.586562871496435 L 63.83525810729364,-7.662961328069418 A 82.42571021906906 82.42571021906906 0 0 0 61.76878644734995,-8.110628586292535"/><text text-anchor="middle" pointer-events="none" font-size="8px" fill="#000000" x="43.892412062900334" y="-6.249022551299973" font-family="sans-serif">WROTE</text></g><g class="relationship" transform="translate(290.2217190611324 299.9776997757092) rotate(504.75419256723944)"><path class="outline" fill="#A5ABB6" stroke="none" d="M 25 0.5 L 26.294434714614525 0.5 L 26.294434714614525 -0.5 L 25 -0.5 Z M 73.18505971461452 0.5 L 74.47949442922905 0.5 L 74.47949442922905 3.5 L 81.47949442922905 0 L 74.47949442922905 -3.5 L 74.47949442922905 -0.5 L 73.18505971461452 -0.5 Z"/><text text-anchor="middle" pointer-events="none" font-size="8px" fill="#000000" x="49.739747214614525" y="3" transform="rotate(180 49.739747214614525 0)" font-family="sans-serif">DIRECTED</text></g><g class="relationship" transform="translate(290.2217190611324 299.9776997757092) rotate(274.9438564568993)"><path class="outline" fill="#A5ABB6" stroke="none" d="M 25 0.5 L 33.67015913667744 0.5 L 33.67015913667744 -0.5 L 25 -0.5 Z M 80.56078413667744 0.5 L 89.23094327335488 0.5 L 89.23094327335488 3.5 L 96.23094327335488 0 L 89.23094327335488 -3.5 L 89.23094327335488 -0.5 L 80.56078413667744 -0.5 Z"/><text text-anchor="middle" pointer-events="none" font-size="8px" fill="#000000" x="57.11547163667744" y="3" font-family="sans-serif">DIRECTED</text></g><g class="relationship" transform="translate(290.2217190611324 299.9776997757092) rotate(252.39010974908683)"><path class="outline" fill="#A5ABB6" stroke="none" d="M 25 0.5 L 47.97114018461798 0.5 L 47.97114018461798 -0.5 L 25 -0.5 Z M 94.86176518461798 0.5 L 117.83290536923596 0.5 L 117.83290536923596 3.5 L 124.83290536923596 0 L 117.83290536923596 -3.5 L 117.83290536923596 -0.5 L 94.86176518461798 -0.5 Z"/><text text-anchor="middle" pointer-events="none" font-size="8px" fill="#000000" x="71.41645268461798" y="3" transform="rotate(180 71.41645268461798 0)" font-family="sans-serif">DIRECTED</text></g><g class="relationship" transform="translate(290.2217190611324 299.9776997757092) rotate(534.2466363862221)"><path class="outline" fill="#A5ABB6" stroke="none" d="M 25 0.5 L 42.387264955626364 0.5 L 42.387264955626364 -0.5 L 25 -0.5 Z M 89.27788995562636 0.5 L 106.66515491125273 0.5 L 106.66515491125273 3.5 L 113.66515491125273 0 L 106.66515491125273 -3.5 L 106.66515491125273 -0.5 L 89.27788995562636 -0.5 Z"/><text text-anchor="middle" pointer-events="none" font-size="8px" fill="#000000" x="65.83257745562636" y="3" transform="rotate(180 65.83257745562636 0)" font-family="sans-serif">DIRECTED</text></g><g class="relationship" transform="translate(422.9414388253358 125.1179865119341) rotate(489.58832330846036)"><path class="outline" fill="#A5ABB6" stroke="none" d="M 25 0.5 L 35.48792562524985 0.5 L 35.48792562524985 -0.5 L 25 -0.5 Z M 82.37855062524986 0.5 L 92.8664762504997 0.5 L 92.8664762504997 3.5 L 99.8664762504997 0 L 92.8664762504997 -3.5 L 92.8664762504997 -0.5 L 82.37855062524986 -0.5 Z"/><text text-anchor="middle" pointer-events="none" font-size="8px" fill="#000000" x="58.93323812524985" y="3" transform="rotate(180 58.93323812524985 0)" font-family="sans-serif">DIRECTED</text></g><g class="relationship" transform="translate(7.775670305084306 -24.611805983207915) rotate(293.74815886307624)"><path class="outline" fill="#A5ABB6" stroke="none" d="M 25 0.5 L 26.417643308753455 0.5 L 26.417643308753455 -0.5 L 25 -0.5 Z M 71.98014330875345 0.5 L 73.39778661750691 0.5 L 73.39778661750691 3.5 L 80.39778661750691 0 L 73.39778661750691 -3.5 L 73.39778661750691 -0.5 L 71.98014330875345 -0.5 Z"/><text text-anchor="middle" pointer-events="none" font-size="8px" fill="#000000" x="49.198893308753455" y="3" font-family="sans-serif">ACTED_IN</text></g><g class="relationship" transform="translate(7.775670305084306 -24.611805983207915) rotate(263.147051744691)"><path class="outline" fill="#A5ABB6" stroke="none" d="M 25 0.5 L 41.53875615901303 0.5 L 41.53875615901303 -0.5 L 25 -0.5 Z M 87.10125615901303 0.5 L 103.64001231802607 0.5 L 103.64001231802607 3.5 L 110.64001231802607 0 L 103.64001231802607 -3.5 L 103.64001231802607 -0.5 L 87.10125615901303 -0.5 Z"/><text text-anchor="middle" pointer-events="none" font-size="8px" fill="#000000" x="64.32000615901303" y="3" transform="rotate(180 64.32000615901303 0)" font-family="sans-serif">ACTED_IN</text></g><g class="relationship" transform="translate(7.775670305084306 -24.611805983207915) rotate(521.5038373567432)"><path class="outline" fill="#A5ABB6" stroke="none" d="M 25 0.5 L 34.80169324265703 0.5 L 34.80169324265703 -0.5 L 25 -0.5 Z M 80.36419324265702 0.5 L 90.16588648531406 0.5 L 90.16588648531406 3.5 L 97.16588648531406 0 L 90.16588648531406 -3.5 L 90.16588648531406 -0.5 L 80.36419324265702 -0.5 Z"/><text text-anchor="middle" pointer-events="none" font-size="8px" fill="#000000" x="57.58294324265703" y="3" transform="rotate(180 57.58294324265703 0)" font-family="sans-serif">ACTED_IN</text></g><g class="relationship" transform="translate(7.775670305084306 -24.611805983207915) rotate(183.70487498693774)"><path class="outline" fill="#A5ABB6" stroke="none" d="M 25 0.5 L 49.40392198946995 0.5 L 49.40392198946995 -0.5 L 25 -0.5 Z M 94.96642198946995 0.5 L 119.3703439789399 0.5 L 119.3703439789399 3.5 L 126.3703439789399 0 L 119.3703439789399 -3.5 L 119.3703439789399 -0.5 L 94.96642198946995 -0.5 Z"/><text text-anchor="middle" pointer-events="none" font-size="8px" fill="#000000" x="72.18517198946995" y="3" transform="rotate(180 72.18517198946995 0)" font-family="sans-serif">ACTED_IN</text></g><g class="relationship" transform="translate(7.775670305084306 -24.611805983207915) rotate(492.4833708120656)"><path class="outline" fill="#A5ABB6" stroke="none" d="M 25 0.5 L 27.426591121066295 0.5 L 27.426591121066295 -0.5 L 25 -0.5 Z M 62.762528621066295 0.5 L 65.18911974213259 0.5 L 65.18911974213259 3.5 L 72.18911974213259 0 L 65.18911974213259 -3.5 L 65.18911974213259 -0.5 L 62.762528621066295 -0.5 Z"/><text text-anchor="middle" pointer-events="none" font-size="8px" fill="#000000" x="45.094559871066295" y="3" transform="rotate(180 45.094559871066295 0)" font-family="sans-serif">ACTE…</text></g><g class="relationship" transform="translate(155.76564595478905 -177.33528629832367) rotate(511.94445076005474)"><path class="outline" fill="#A5ABB6" stroke="none" d="M 25 0.5 L 32.85379273092482 0.5 L 32.85379273092482 -0.5 L 25 -0.5 Z M 79.74441773092482 0.5 L 87.59821046184965 0.5 L 87.59821046184965 3.5 L 94.59821046184965 0 L 87.59821046184965 -3.5 L 87.59821046184965 -0.5 L 79.74441773092482 -0.5 Z"/><text text-anchor="middle" pointer-events="none" font-size="8px" fill="#000000" x="56.29910523092482" y="3" transform="rotate(180 56.29910523092482 0)" font-family="sans-serif">DIRECTED</text></g><g class="relationship" transform="translate(-39.431404358299616 -61.55803267218728) rotate(287.6118197126839)"><path class="outline" fill="#A5ABB6" stroke="none" d="M 25 0.5 L 25.87658321768361 0.5 L 25.87658321768361 -0.5 L 25 -0.5 Z M 69.65392696768362 0.5 L 70.53051018536722 0.5 L 70.53051018536722 3.5 L 77.53051018536722 0 L 70.53051018536722 -3.5 L 70.53051018536722 -0.5 L 69.65392696768362 -0.5 Z"/><text text-anchor="middle" pointer-events="none" font-size="8px" fill="#000000" x="47.76525509268361" y="3" font-family="sans-serif">DIRECT…</text></g><g class="relationship" transform="translate(-39.431404358299616 -61.55803267218728) rotate(492.2023643860657)"><path class="outline" fill="#A5ABB6" stroke="none" d="M 25 0.5 L 25.707869123749852 0.5 L 25.707869123749852 -0.5 L 25 -0.5 Z M 69.48521287374984 0.5 L 70.1930819974997 0.5 L 70.1930819974997 3.5 L 77.1930819974997 0 L 70.1930819974997 -3.5 L 70.1930819974997 -0.5 L 69.48521287374984 -0.5 Z"/><text text-anchor="middle" pointer-events="none" font-size="8px" fill="#000000" x="47.59654099874985" y="3" transform="rotate(180 47.59654099874985 0)" font-family="sans-serif">DIRECT…</text></g><g class="relationship" transform="translate(-39.431404358299616 -61.55803267218728) rotate(525.3405987876222)"><path class="outline" fill="#A5ABB6" stroke="none" d="M 25 0.5 L 26.72527094541254 0.5 L 26.72527094541254 -0.5 L 25 -0.5 Z M 73.61589594541255 0.5 L 75.34116689082508 0.5 L 75.34116689082508 3.5 L 82.34116689082508 0 L 75.34116689082508 -3.5 L 75.34116689082508 -0.5 L 73.61589594541255 -0.5 Z"/><text text-anchor="middle" pointer-events="none" font-size="8px" fill="#000000" x="50.17058344541254" y="3" transform="rotate(180 50.17058344541254 0)" font-family="sans-serif">DIRECTED</text></g><g class="relationship" transform="translate(-39.431404358299616 -61.55803267218728) rotate(326.4168928038103)"><path class="outline" fill="#A5ABB6" stroke="none" d="M 24.018736134675446,-6.953439040707552 L 24.277555179777966,-5.987513214418485 A 106.93279822310055 106.93279822310055 0 0 1 32.56449746826033,-7.858612240864147 L 32.3831751540597,-8.842035963566076 A 107.93279822310055 107.93279822310055 0 0 0 24.018736134675446,-6.953439040707552 Z M 68.152807327246,-9.408628769092445 L 68.00272312959792,-8.419955550270203 A 106.93279822310055 106.93279822310055 0 0 1 76.34476969348545,-6.8122605588818 L 75.66048095721085,-3.8913447905982106 L 83.27428794219293,-5.702406135621667 L 77.2571546751849,-10.706814916593252 L 76.57286593891031,-7.785899148309664 A 107.93279822310055 107.93279822310055 0 0 0 68.152807327246,-9.408628769092445"/><text text-anchor="middle" pointer-events="none" font-size="8px" fill="#000000" x="50.25227232950358" y="-7.117684659700757" font-family="sans-serif">WROTE</text></g><g class="relationship" transform="translate(-39.431404358299616 -61.55803267218728) rotate(326.4168928038103)"><path class="outline" fill="#A5ABB6" stroke="none" d="M 24.018736134675446,6.953439040707552 L 24.277555179777966,5.987513214418485 A 106.93279822310055 106.93279822310055 0 0 0 24.79093012175529,6.123706020468703 L 24.53691198853863,7.090905476629189 A 107.93279822310055 107.93279822310055 0 0 1 24.018736134675446,6.953439040707552 Z M 76.05059618959318,7.906884872591618 L 75.8273387860951,6.9321253474864335 A 106.93279822310055 106.93279822310055 0 0 0 76.34476969348545,6.8122605588818 L 75.66048095721085,3.8913447905982106 L 83.27428794219293,5.702406135621667 L 77.2571546751849,10.706814916593252 L 76.57286593891031,7.785899148309664 A 107.93279822310055 107.93279822310055 0 0 1 76.05059618959318,7.906884872591618"/><text text-anchor="middle" pointer-events="none" font-size="8px" fill="#000000" x="50.2522723295036" y="13.117684659700757" font-family="sans-serif">PRODUCED</text></g><g class="relationship" transform="translate(-39.431404358299616 -61.55803267218728) rotate(459.6309411112743)"><path class="outline" fill="#A5ABB6" stroke="none" d="M 25 0.5 L 28.141396623426616 0.5 L 28.141396623426616 -0.5 L 25 -0.5 Z M 75.03202162342662 0.5 L 78.17341824685323 0.5 L 78.17341824685323 3.5 L 85.17341824685323 0 L 78.17341824685323 -3.5 L 78.17341824685323 -0.5 L 75.03202162342662 -0.5 Z"/><text text-anchor="middle" pointer-events="none" font-size="8px" fill="#000000" x="51.586709123426616" y="3" transform="rotate(180 51.586709123426616 0)" font-family="sans-serif">DIRECTED</text></g><g class="relationship" transform="translate(-85.68729699307563 -99.74369384568045) rotate(351.0758965280294)"><path class="outline" fill="#A5ABB6" stroke="none" d="M 24.018736134675446,-6.953439040707552 L 24.277555179777966,-5.987513214418485 A 166.36812726296938 166.36812726296938 0 0 1 39.56617069998424,-9.3222211992489 L 39.39924795600459,-10.308191177261591 A 167.36812726296938 167.36812726296938 0 0 0 24.018736134675446,-6.953439040707552 Z M 91.12344880225751,-10.957446332404459 L 90.98132703643643,-9.967597150114585 A 166.36812726296938 166.36812726296938 0 0 1 106.34882859299007,-7.017692443500317 L 105.64535189547604,-4.1013384636043995 L 113.27090066233288,-5.8623058126169045 L 107.28679752300877,-10.906164416694873 L 106.58332082549474,-7.9898104367989555 A 167.36812726296938 167.36812726296938 0 0 0 91.12344880225751,-10.957446332404459"/><text text-anchor="middle" pointer-events="none" font-size="8px" fill="#000000" x="65.24238937511157" y="-9.143225447765047" font-family="sans-serif">PRODUCED</text></g><g class="relationship" transform="translate(-85.68729699307563 -99.74369384568045) rotate(439.26819331932256)"><path class="outline" fill="#A5ABB6" stroke="none" d="M 25 0.5 L 47.764532882968254 0.5 L 47.764532882968254 -0.5 L 25 -0.5 Z M 94.65515788296825 0.5 L 117.41969076593651 0.5 L 117.41969076593651 3.5 L 124.41969076593651 0 L 117.41969076593651 -3.5 L 117.41969076593651 -0.5 L 94.65515788296825 -0.5 Z"/><text text-anchor="middle" pointer-events="none" font-size="8px" fill="#000000" x="71.20984538296825" y="3" font-family="sans-serif">DIRECTED</text></g><g class="relationship" transform="translate(-85.68729699307563 -99.74369384568045) rotate(351.0758965280294)"><path class="outline" fill="#A5ABB6" stroke="none" d="M 24.018736134675446,6.953439040707552 L 24.277555179777966,5.987513214418485 A 166.36812726296938 166.36812726296938 0 0 0 47.46305872161248,10.465082124339602 L 47.34360232922039,11.457921572748376 A 167.36812726296938 167.36812726296938 0 0 1 24.018736134675446,6.953439040707552 Z M 83.15273858165052,11.907406841398739 L 83.05824063973756,10.911881784469387 A 166.36812726296938 166.36812726296938 0 0 0 106.34882859299007,7.017692443500317 L 105.64535189547604,4.1013384636043995 L 113.27090066233288,5.8623058126169045 L 107.28679752300877,10.906164416694873 L 106.58332082549474,7.9898104367989555 A 167.36812726296938 167.36812726296938 0 0 1 83.15273858165052,11.907406841398739"/><text text-anchor="middle" pointer-events="none" font-size="8px" fill="#000000" x="65.24238937511163" y="15.143225447765047" font-family="sans-serif">WROTE</text></g><g class="relationship" transform="translate(-85.68729699307563 -99.74369384568045) rotate(491.38844866290185)"><path class="outline" fill="#A5ABB6" stroke="none" d="M 25 0.5 L 26.16430862275965 0.5 L 26.16430862275965 -0.5 L 25 -0.5 Z M 53.94165237275965 0.5 L 55.1059609955193 0.5 L 55.1059609955193 3.5 L 62.1059609955193 0 L 55.1059609955193 -3.5 L 55.1059609955193 -0.5 L 53.94165237275965 -0.5 Z"/><text text-anchor="middle" pointer-events="none" font-size="8px" fill="#000000" x="40.05298049775965" y="3" transform="rotate(180 40.05298049775965 0)" font-family="sans-serif">DIR…</text></g><g class="relationship" transform="translate(-85.68729699307563 -99.74369384568045) rotate(322.3875073150494)"><path class="outline" fill="#A5ABB6" stroke="none" d="M 25 0.5 L 25.83178120238646 0.5 L 25.83178120238646 -0.5 L 25 -0.5 Z M 64.72240620238645 0.5 L 65.55418740477292 0.5 L 65.55418740477292 3.5 L 72.55418740477292 0 L 65.55418740477292 -3.5 L 65.55418740477292 -0.5 L 64.72240620238645 -0.5 Z"/><text text-anchor="middle" pointer-events="none" font-size="8px" fill="#000000" x="45.27709370238646" y="3" font-family="sans-serif">DIREC…</text></g><g class="relationship" transform="translate(-85.68729699307563 -99.74369384568045) rotate(461.12349572665704)"><path class="outline" fill="#A5ABB6" stroke="none" d="M 25 0.5 L 31.088906274659415 0.5 L 31.088906274659415 -0.5 L 25 -0.5 Z M 77.97953127465942 0.5 L 84.06843754931883 0.5 L 84.06843754931883 3.5 L 91.06843754931883 0 L 84.06843754931883 -3.5 L 84.06843754931883 -0.5 L 77.97953127465942 -0.5 Z"/><text text-anchor="middle" pointer-events="none" font-size="8px" fill="#000000" x="54.534218774659415" y="3" transform="rotate(180 54.534218774659415 0)" font-family="sans-serif">DIRECTED</text></g><g class="relationship" transform="translate(-115.37390806516481 158.1092085127961) rotate(297.37935954784814)"><path class="outline" fill="#A5ABB6" stroke="none" d="M 25 0.5 L 35.58227052515147 0.5 L 35.58227052515147 -0.5 L 25 -0.5 Z M 82.47289552515147 0.5 L 93.05516605030294 0.5 L 93.05516605030294 3.5 L 100.05516605030294 0 L 93.05516605030294 -3.5 L 93.05516605030294 -0.5 L 82.47289552515147 -0.5 Z"/><text text-anchor="middle" pointer-events="none" font-size="8px" fill="#000000" x="59.02758302515147" y="3" font-family="sans-serif">DIRECTED</text></g></g><g class="layer nodes"><g class="node" transform="translate(194.69183898268003,227.45187107598997)"><circle class="outline" cx="0" cy="0" r="25" fill="#F79767" stroke="#f36924" stroke-width="2px"/><text text-anchor="middle" pointer-events="none" font-family="sans-serif" dy="1.5625" font-size="25" fill="#FFFFFF"/><text text-anchor="middle" pointer-events="none" font-family="sans-serif" dy="1.5625" font-size="25" fill="#FFFFFF"/><text text-anchor="middle" pointer-events="none" x="0" y="0" font-size="10px" fill="#FFFFFF" font-family="sans-serif"> Hugo</text><text text-anchor="middle" pointer-events="none" x="0" y="10" font-size="10px" fill="#FFFFFF" font-family="sans-serif"> Weaving</text></g><g class="node" transform="translate(203.26164251976002,361.42546476210134)"><circle class="outline" cx="0" cy="0" r="25" fill="#57C7E3" stroke="#23b3d7" stroke-width="2px"/><text text-anchor="middle" pointer-events="none" font-family="sans-serif" dy="1.5625" font-size="25" fill="#2A2C34"/><text text-anchor="middle" pointer-events="none" font-family="sans-serif" dy="1.5625" font-size="25" fill="#2A2C34"/><text text-anchor="middle" pointer-events="none" x="0" y="0" font-size="10px" fill="#2A2C34" font-family="sans-serif"> Cloud</text><text text-anchor="middle" pointer-events="none" x="0" y="10" font-size="10px" fill="#2A2C34" font-family="sans-serif"> Atlas</text></g><g class="node" transform="translate(107.70254055447565,434.3753388696906)"><circle class="outline" cx="0" cy="0" r="25" fill="#F79767" stroke="#f36924" stroke-width="2px"/><text text-anchor="middle" pointer-events="none" font-family="sans-serif" dy="1.5625" font-size="25" fill="#FFFFFF"/><text text-anchor="middle" pointer-events="none" font-family="sans-serif" dy="1.5625" font-size="25" fill="#FFFFFF"/><text text-anchor="middle" pointer-events="none" x="0" y="0" font-size="10px" fill="#FFFFFF" font-family="sans-serif"> Tom</text><text text-anchor="middle" pointer-events="none" x="0" y="10" font-size="10px" fill="#FFFFFF" font-family="sans-serif"> Tykwer</text></g><g class="node" transform="translate(242.00674350414823,264.34771748443364)"><circle class="outline" cx="0" cy="0" r="25" fill="#F79767" stroke="#f36924" stroke-width="2px"/><text text-anchor="middle" pointer-events="none" font-family="sans-serif" dy="1.5625" font-size="25" fill="#FFFFFF"/><text text-anchor="middle" pointer-events="none" font-family="sans-serif" dy="1.5625" font-size="25" fill="#FFFFFF"/><text text-anchor="middle" pointer-events="none" x="0" y="0" font-size="10px" fill="#FFFFFF" font-family="sans-serif"> Lana</text><text text-anchor="middle" pointer-events="none" x="0" y="10" font-size="10px" fill="#FFFFFF" font-family="sans-serif"> Wacho…</text></g><g class="node" transform="translate(290.2217190611324,299.9776997757092)"><circle class="outline" cx="0" cy="0" r="25" fill="#F79767" stroke="#f36924" stroke-width="2px"/><text text-anchor="middle" pointer-events="none" font-family="sans-serif" dy="1.5625" font-size="25" fill="#FFFFFF"/><text text-anchor="middle" pointer-events="none" font-family="sans-serif" dy="1.5625" font-size="25" fill="#FFFFFF"/><text text-anchor="middle" pointer-events="none" x="0" y="0" font-size="10px" fill="#FFFFFF" font-family="sans-serif"> Lilly</text><text text-anchor="middle" pointer-events="none" x="0" y="10" font-size="10px" fill="#FFFFFF" font-family="sans-serif"> Wacho…</text></g><g class="node" transform="translate(343.36816054192536,221.34547881245874)"><circle class="outline" cx="0" cy="0" r="25" fill="#57C7E3" stroke="#23b3d7" stroke-width="2px"/><text text-anchor="middle" pointer-events="none" font-family="sans-serif" dy="1.5625" font-size="25" fill="#2A2C34"/><text text-anchor="middle" pointer-events="none" font-family="sans-serif" dy="1.5625" font-size="25" fill="#2A2C34"/><text text-anchor="middle" pointer-events="none" x="0" y="0" font-size="10px" fill="#2A2C34" font-family="sans-serif"> V for</text><text text-anchor="middle" pointer-events="none" x="0" y="10" font-size="10px" fill="#2A2C34" font-family="sans-serif"> Vendetta</text></g><g class="node" transform="translate(422.9414388253358,125.1179865119341)"><circle class="outline" cx="0" cy="0" r="25" fill="#F79767" stroke="#f36924" stroke-width="2px"/><text text-anchor="middle" pointer-events="none" font-family="sans-serif" dy="1.5625" font-size="25" fill="#FFFFFF"/><text text-anchor="middle" pointer-events="none" font-family="sans-serif" dy="1.5625" font-size="25" fill="#FFFFFF"/><text text-anchor="middle" pointer-events="none" x="0" y="0" font-size="10px" fill="#FFFFFF" font-family="sans-serif"> James</text><text text-anchor="middle" pointer-events="none" x="0" y="10" font-size="10px" fill="#FFFFFF" font-family="sans-serif"> Marshall</text></g><g class="node" transform="translate(300.66934600514963,179.19778133648342)"><circle class="outline" cx="0" cy="0" r="25" fill="#57C7E3" stroke="#23b3d7" stroke-width="2px"/><text text-anchor="middle" pointer-events="none" font-family="sans-serif" dy="1.5625" font-size="25" fill="#2A2C34"/><text text-anchor="middle" pointer-events="none" font-family="sans-serif" dy="1.5625" font-size="25" fill="#2A2C34"/><text text-anchor="middle" pointer-events="none" font-family="sans-serif" dy="1.5625" font-size="25" fill="#2A2C34"/><text text-anchor="middle" pointer-events="none" x="0" y="-5" font-size="10px" fill="#2A2C34" font-family="sans-serif"> The</text><text text-anchor="middle" pointer-events="none" x="0" y="5" font-size="10px" fill="#2A2C34" font-family="sans-serif"> Matrix</text><text text-anchor="middle" pointer-events="none" x="0" y="15" font-size="10px" fill="#2A2C34" font-family="sans-serif"> Revol…</text></g><g class="node" transform="translate(244.89210740195108,157.16619520337358)"><circle class="outline" cx="0" cy="0" r="25" fill="#57C7E3" stroke="#23b3d7" stroke-width="2px"/><text text-anchor="middle" pointer-events="none" font-family="sans-serif" dy="1.5625" font-size="25" fill="#2A2C34"/><text text-anchor="middle" pointer-events="none" font-family="sans-serif" dy="1.5625" font-size="25" fill="#2A2C34"/><text text-anchor="middle" pointer-events="none" font-family="sans-serif" dy="1.5625" font-size="25" fill="#2A2C34"/><text text-anchor="middle" pointer-events="none" x="0" y="-5" font-size="10px" fill="#2A2C34" font-family="sans-serif"> The</text><text text-anchor="middle" pointer-events="none" x="0" y="5" font-size="10px" fill="#2A2C34" font-family="sans-serif"> Matrix</text><text text-anchor="middle" pointer-events="none" x="0" y="15" font-size="10px" fill="#2A2C34" font-family="sans-serif"> Reloa…</text></g><g class="node" transform="translate(152.2550711642436,313.87839237203804)"><circle class="outline" cx="0" cy="0" r="25" fill="#57C7E3" stroke="#23b3d7" stroke-width="2px"/><text text-anchor="middle" pointer-events="none" font-family="sans-serif" dy="1.5625" font-size="25" fill="#2A2C34"/><text text-anchor="middle" pointer-events="none" font-family="sans-serif" dy="1.5625" font-size="25" fill="#2A2C34"/><text text-anchor="middle" pointer-events="none" x="0" y="0" font-size="10px" fill="#2A2C34" font-family="sans-serif"> The</text><text text-anchor="middle" pointer-events="none" x="0" y="10" font-size="10px" fill="#2A2C34" font-family="sans-serif"> Matrix</text></g><g class="node" transform="translate(7.775670305084306,-24.611805983207915)"><circle class="outline" cx="0" cy="0" r="25" fill="#F79767" stroke="#f36924" stroke-width="2px"/><text text-anchor="middle" pointer-events="none" font-family="sans-serif" dy="1.5625" font-size="25" fill="#FFFFFF"/><text text-anchor="middle" pointer-events="none" font-family="sans-serif" dy="1.5625" font-size="25" fill="#FFFFFF"/><text text-anchor="middle" pointer-events="none" x="0" y="0" font-size="10px" fill="#FFFFFF" font-family="sans-serif"> Hugo</text><text text-anchor="middle" pointer-events="none" x="0" y="10" font-size="10px" fill="#FFFFFF" font-family="sans-serif"> Weaving</text></g><g class="node" transform="translate(50.22117994638043,-121.08497393761975)"><circle class="outline" cx="0" cy="0" r="25" fill="#57C7E3" stroke="#23b3d7" stroke-width="2px"/><text text-anchor="middle" pointer-events="none" font-family="sans-serif" dy="1.5625" font-size="25" fill="#2A2C34"/><text text-anchor="middle" pointer-events="none" font-family="sans-serif" dy="1.5625" font-size="25" fill="#2A2C34"/><text text-anchor="middle" pointer-events="none" x="0" y="0" font-size="10px" fill="#2A2C34" font-family="sans-serif"> V for</text><text text-anchor="middle" pointer-events="none" x="0" y="10" font-size="10px" fill="#2A2C34" font-family="sans-serif"> Vendetta</text></g><g class="node" transform="translate(155.76564595478905,-177.33528629832367)"><circle class="outline" cx="0" cy="0" r="25" fill="#F79767" stroke="#f36924" stroke-width="2px"/><text text-anchor="middle" pointer-events="none" font-family="sans-serif" dy="1.5625" font-size="25" fill="#FFFFFF"/><text text-anchor="middle" pointer-events="none" font-family="sans-serif" dy="1.5625" font-size="25" fill="#FFFFFF"/><text text-anchor="middle" pointer-events="none" x="0" y="0" font-size="10px" fill="#FFFFFF" font-family="sans-serif"> James</text><text text-anchor="middle" pointer-events="none" x="0" y="10" font-size="10px" fill="#FFFFFF" font-family="sans-serif"> Marshall</text></g><g class="node" transform="translate(-8.4091046171965,-159.28276054412788)"><circle class="outline" cx="0" cy="0" r="25" fill="#57C7E3" stroke="#23b3d7" stroke-width="2px"/><text text-anchor="middle" pointer-events="none" font-family="sans-serif" dy="1.5625" font-size="25" fill="#2A2C34"/><text text-anchor="middle" pointer-events="none" font-family="sans-serif" dy="1.5625" font-size="25" fill="#2A2C34"/><text text-anchor="middle" pointer-events="none" font-family="sans-serif" dy="1.5625" font-size="25" fill="#2A2C34"/><text text-anchor="middle" pointer-events="none" x="0" y="-5" font-size="10px" fill="#2A2C34" font-family="sans-serif"> The</text><text text-anchor="middle" pointer-events="none" x="0" y="5" font-size="10px" fill="#2A2C34" font-family="sans-serif"> Matrix</text><text text-anchor="middle" pointer-events="none" x="0" y="15" font-size="10px" fill="#2A2C34" font-family="sans-serif"> Revol…</text></g><g class="node" transform="translate(-39.431404358299616,-61.55803267218728)"><circle class="outline" cx="0" cy="0" r="25" fill="#F79767" stroke="#f36924" stroke-width="2px"/><text text-anchor="middle" pointer-events="none" font-family="sans-serif" dy="1.5625" font-size="25" fill="#FFFFFF"/><text text-anchor="middle" pointer-events="none" font-family="sans-serif" dy="1.5625" font-size="25" fill="#FFFFFF"/><text text-anchor="middle" pointer-events="none" x="0" y="0" font-size="10px" fill="#FFFFFF" font-family="sans-serif"> Lilly</text><text text-anchor="middle" pointer-events="none" x="0" y="10" font-size="10px" fill="#FFFFFF" font-family="sans-serif"> Wacho…</text></g><g class="node" transform="translate(-85.68729699307563,-99.74369384568045)"><circle class="outline" cx="0" cy="0" r="25" fill="#F79767" stroke="#f36924" stroke-width="2px"/><text text-anchor="middle" pointer-events="none" font-family="sans-serif" dy="1.5625" font-size="25" fill="#FFFFFF"/><text text-anchor="middle" pointer-events="none" font-family="sans-serif" dy="1.5625" font-size="25" fill="#FFFFFF"/><text text-anchor="middle" pointer-events="none" x="0" y="0" font-size="10px" fill="#FFFFFF" font-family="sans-serif"> Lana</text><text text-anchor="middle" pointer-events="none" x="0" y="10" font-size="10px" fill="#FFFFFF" font-family="sans-serif"> Wacho…</text></g><g class="node" transform="translate(-108.07972563514987,14.144239381021567)"><circle class="outline" cx="0" cy="0" r="25" fill="#57C7E3" stroke="#23b3d7" stroke-width="2px"/><text text-anchor="middle" pointer-events="none" font-family="sans-serif" dy="1.5625" font-size="25" fill="#2A2C34"/><text text-anchor="middle" pointer-events="none" font-family="sans-serif" dy="1.5625" font-size="25" fill="#2A2C34"/><text text-anchor="middle" pointer-events="none" font-family="sans-serif" dy="1.5625" font-size="25" fill="#2A2C34"/><text text-anchor="middle" pointer-events="none" x="0" y="-5" font-size="10px" fill="#2A2C34" font-family="sans-serif"> The</text><text text-anchor="middle" pointer-events="none" x="0" y="5" font-size="10px" fill="#2A2C34" font-family="sans-serif"> Matrix</text><text text-anchor="middle" pointer-events="none" x="0" y="15" font-size="10px" fill="#2A2C34" font-family="sans-serif"> Reloa…</text></g><g class="node" transform="translate(-143.27832841822348,-34.39293608159204)"><circle class="outline" cx="0" cy="0" r="25" fill="#57C7E3" stroke="#23b3d7" stroke-width="2px"/><text text-anchor="middle" pointer-events="none" font-family="sans-serif" dy="1.5625" font-size="25" fill="#2A2C34"/><text text-anchor="middle" pointer-events="none" font-family="sans-serif" dy="1.5625" font-size="25" fill="#2A2C34"/><text text-anchor="middle" pointer-events="none" x="0" y="0" font-size="10px" fill="#2A2C34" font-family="sans-serif"> The</text><text text-anchor="middle" pointer-events="none" x="0" y="10" font-size="10px" fill="#2A2C34" font-family="sans-serif"> Matrix</text></g><g class="node" transform="translate(-57.86354769387772,47.06258314383889)"><circle class="outline" cx="0" cy="0" r="25" fill="#57C7E3" stroke="#23b3d7" stroke-width="2px"/><text text-anchor="middle" pointer-events="none" font-family="sans-serif" dy="1.5625" font-size="25" fill="#2A2C34"/><text text-anchor="middle" pointer-events="none" font-family="sans-serif" dy="1.5625" font-size="25" fill="#2A2C34"/><text text-anchor="middle" pointer-events="none" x="0" y="0" font-size="10px" fill="#2A2C34" font-family="sans-serif"> Cloud</text><text text-anchor="middle" pointer-events="none" x="0" y="10" font-size="10px" fill="#2A2C34" font-family="sans-serif"> Atlas</text></g><g class="node" transform="translate(-115.37390806516481,158.1092085127961)"><circle class="outline" cx="0" cy="0" r="25" fill="#F79767" stroke="#f36924" stroke-width="2px"/><text text-anchor="middle" pointer-events="none" font-family="sans-serif" dy="1.5625" font-size="25" fill="#FFFFFF"/><text text-anchor="middle" pointer-events="none" font-family="sans-serif" dy="1.5625" font-size="25" fill="#FFFFFF"/><text text-anchor="middle" pointer-events="none" x="0" y="0" font-size="10px" fill="#FFFFFF" font-family="sans-serif"> Tom</text><text text-anchor="middle" pointer-events="none" x="0" y="10" font-size="10px" fill="#FFFFFF" font-family="sans-serif"> Tykwer</text></g></g></svg>