<svg xmlns="http://www.w3.org/2000/svg" width="482.18109130859375" height="527.4156494140625" viewBox="-134.6016845703125 -159.56446838378906 482.18109130859375 527.4156494140625"><title>Neo4j Graph Visualization</title><desc>Created using Neo4j (http://www.neo4j.com/)</desc><g class="layer relationships"><g class="relationship" transform="translate(-7.779665220892785 242.03962694225814) rotate(515.8348717537972)"><path class="outline" fill="#A5ABB6" stroke="none" d="M 25 0.5 L 27.327523266543984 0.5 L 27.327523266543984 -0.5 L 25 -0.5 Z M 72.89002326654398 0.5 L 75.21754653308797 0.5 L 75.21754653308797 3.5 L 82.21754653308797 0 L 75.21754653308797 -3.5 L 75.21754653308797 -0.5 L 72.89002326654398 -0.5 Z"/><text text-anchor="middle" pointer-events="none" font-size="8px" fill="#000000" x="50.108773266543984" y="3" transform="rotate(180 50.108773266543984 0)" font-family="sans-serif">ACTED_IN</text></g><g class="relationship" transform="translate(-7.779665220892785 242.03962694225814) rotate(419.351556602394)"><path class="outline" fill="#A5ABB6" stroke="none" d="M 25 0.5 L 29.98420243490979 0.5 L 29.98420243490979 -0.5 L 25 -0.5 Z M 75.54670243490979 0.5 L 80.53090486981958 0.5 L 80.53090486981958 3.5 L 87.53090486981958 0 L 80.53090486981958 -3.5 L 80.53090486981958 -0.5 L 75.54670243490979 -0.5 Z"/><text text-anchor="middle" pointer-events="none" font-size="8px" fill="#000000" x="52.76545243490979" y="3" font-family="sans-serif">ACTED_IN</text></g><g class="relationship" transform="translate(-7.779665220892785 242.03962694225814) rotate(365.7751446176182)"><path class="outline" fill="#A5ABB6" stroke="none" d="M 25 0.5 L 31.927618084501844 0.5 L 31.927618084501844 -0.5 L 25 -0.5 Z M 77.49011808450184 0.5 L 84.41773616900369 0.5 L 84.41773616900369 3.5 L 91.41773616900369 0 L 84.41773616900369 -3.5 L 84.41773616900369 -0.5 L 77.49011808450184 -0.5 Z"/><text text-anchor="middle" pointer-events="none" font-size="8px" fill="#000000" x="54.708868084501844" y="3" font-family="sans-serif">ACTED_IN</text></g><g class="relationship" transform="translate(-7.779665220892785 242.03962694225814) rotate(297.9292831730028)"><path class="outline" fill="#A5ABB6" stroke="none" d="M 25 0.5 L 26.790559026345136 0.5 L 26.790559026345136 -0.5 L 25 -0.5 Z M 72.35305902634514 0.5 L 74.14361805269027 0.5 L 74.14361805269027 3.5 L 81.14361805269027 0 L 74.14361805269027 -3.5 L 74.14361805269027 -0.5 L 72.35305902634514 -0.5 Z"/><text text-anchor="middle" pointer-events="none" font-size="8px" fill="#000000" x="49.571809026345136" y="3" font-family="sans-serif">ACTED_IN</text></g><g class="relationship" transform="translate(-7.779665220892785 242.03962694225814) rotate(227.85540936298275)"><path class="outline" fill="#A5ABB6" stroke="none" d="M 25 0.5 L 32.44754011168547 0.5 L 32.44754011168547 -0.5 L 25 -0.5 Z M 78.01004011168547 0.5 L 85.45758022337094 0.5 L 85.45758022337094 3.5 L 92.45758022337094 0 L 85.45758022337094 -3.5 L 85.45758022337094 -0.5 L 78.01004011168547 -0.5 Z"/><text text-anchor="middle" pointer-events="none" font-size="8px" fill="#000000" x="55.22879011168547" y="3" transform="rotate(180 55.22879011168547 0)" font-family="sans-serif">ACTED_IN</text></g><g class="relationship" transform="translate(209.85981020309316 -20.23953845971353) rotate(355.11372550353053)"><path class="outline" fill="#A5ABB6" stroke="none" d="M 25 0.5 L 28.276824362197097 0.5 L 28.276824362197097 -0.5 L 25 -0.5 Z M 73.83932436219709 0.5 L 77.1161487243942 0.5 L 77.1161487243942 3.5 L 84.1161487243942 0 L 77.1161487243942 -3.5 L 77.1161487243942 -0.5 L 73.83932436219709 -0.5 Z"/><text text-anchor="middle" pointer-events="none" font-size="8px" fill="#000000" x="51.0580743621971" y="3" font-family="sans-serif">ACTED_IN</text></g><g class="relationship" transform="translate(209.85981020309316 -20.23953845971353) rotate(263.23666086741343)"><path class="outline" fill="#A5ABB6" stroke="none" d="M 25 0.5 L 29.26778035114785 0.5 L 29.26778035114785 -0.5 L 25 -0.5 Z M 74.83028035114785 0.5 L 79.0980607022957 0.5 L 79.0980607022957 3.5 L 86.0980607022957 0 L 79.0980607022957 -3.5 L 79.0980607022957 -0.5 L 74.83028035114785 -0.5 Z"/><text text-anchor="middle" pointer-events="none" font-size="8px" fill="#000000" x="52.04903035114785" y="3" transform="rotate(180 52.04903035114785 0)" font-family="sans-serif">ACTED_IN</text></g><g class="relationship" transform="translate(209.85981020309316 -20.23953845971353) rotate(208.7137683709247)"><path class="outline" fill="#A5ABB6" stroke="none" d="M 25 0.5 L 33.40405203160487 0.5 L 33.40405203160487 -0.5 L 25 -0.5 Z M 78.96655203160486 0.5 L 87.37060406320974 0.5 L 87.37060406320974 3.5 L 94.37060406320974 0 L 87.37060406320974 -3.5 L 87.37060406320974 -0.5 L 78.96655203160486 -0.5 Z"/><text text-anchor="middle" pointer-events="none" font-size="8px" fill="#000000" x="56.18530203160487" y="3" transform="rotate(180 56.18530203160487 0)" font-family="sans-serif">ACTED_IN</text></g><g class="relationship" transform="translate(209.85981020309316 -20.23953845971353) rotate(516.0309816240438)"><path class="outline" fill="#A5ABB6" stroke="none" d="M 25 0.5 L 27.744336006812198 0.5 L 27.744336006812198 -0.5 L 25 -0.5 Z M 73.3068360068122 0.5 L 76.0511720136244 0.5 L 76.0511720136244 3.5 L 83.0511720136244 0 L 76.0511720136244 -3.5 L 76.0511720136244 -0.5 L 73.3068360068122 -0.5 Z"/><text text-anchor="middle" pointer-events="none" font-size="8px" fill="#000000" x="50.5255860068122" y="3" transform="rotate(180 50.5255860068122 0)" font-family="sans-serif">ACTED_IN</text></g><g class="relationship" transform="translate(209.85981020309316 -20.23953845971353) rotate(420.9393898679301)"><path class="outline" fill="#A5ABB6" stroke="none" d="M 25 0.5 L 30.753455661396835 0.5 L 30.753455661396835 -0.5 L 25 -0.5 Z M 76.31595566139683 0.5 L 82.06941132279367 0.5 L 82.06941132279367 3.5 L 89.06941132279367 0 L 82.06941132279367 -3.5 L 82.06941132279367 -0.5 L 76.31595566139683 -0.5 Z"/><text text-anchor="middle" pointer-events="none" font-size="8px" fill="#000000" x="53.534705661396835" y="3" font-family="sans-serif">ACTED_IN</text></g></g><g class="layer nodes"><g class="node" transform="translate(-7.779665220892785,242.03962694225814)"><circle class="outline" cx="0" cy="0" r="25" fill="#F79767" stroke="#f36924" stroke-width="2px"/><text text-anchor="middle" pointer-events="none" font-family="sans-serif" dy="1.5625" font-size="25" fill="#FFFFFF"/><text text-anchor="middle" pointer-events="none" font-family="sans-serif" dy="1.5625" font-size="25" fill="#FFFFFF"/><text text-anchor="middle" pointer-events="none" x="0" y="0" font-size="10px" fill="#FFFFFF" font-family="sans-serif"> Hugo</text><text text-anchor="middle" pointer-events="none" x="0" y="10" font-size="10px" fill="#FFFFFF" font-family="sans-serif"> Weaving</text></g><g class="node" transform="translate(-105.60167783213602,285.93103992088817)"><circle class="outline" cx="0" cy="0" r="25" fill="#57C7E3" stroke="#23b3d7" stroke-width="2px"/><text text-anchor="middle" pointer-events="none" font-family="sans-serif" dy="1.5625" font-size="25" fill="#2A2C34"/><text text-anchor="middle" pointer-events="none" font-family="sans-serif" dy="1.5625" font-size="25" fill="#2A2C34"/><text text-anchor="middle" pointer-events="none" x="0" y="0" font-size="10px" fill="#2A2C34" font-family="sans-serif"> Cloud</text><text text-anchor="middle" pointer-events="none" x="0" y="10" font-size="10px" fill="#2A2C34" font-family="sans-serif"> Atlas</text></g><g class="node" transform="translate(49.585100311110715,338.85123898481555)"><circle class="outline" cx="0" cy="0" r="25" fill="#57C7E3" stroke="#23b3d7" stroke-width="2px"/><text text-anchor="middle" pointer-events="none" font-family="sans-serif" dy="1.5625" font-size="25" fill="#2A2C34"/><text text-anchor="middle" pointer-events="none" font-family="sans-serif" dy="1.5625" font-size="25" fill="#2A2C34"/><text text-anchor="middle" pointer-events="none" x="0" y="0" font-size="10px" fill="#2A2C34" font-family="sans-serif"> V for</text><text text-anchor="middle" pointer-events="none" x="0" y="10" font-size="10px" fill="#2A2C34" font-family="sans-serif"> Vendetta</text></g><g class="node" transform="translate(108.04718740448276,253.75412674443857)"><circle class="outline" cx="0" cy="0" r="25" fill="#57C7E3" stroke="#23b3d7" stroke-width="2px"/><text text-anchor="middle" pointer-events="none" font-family="sans-serif" dy="1.5625" font-size="25" fill="#2A2C34"/><text text-anchor="middle" pointer-events="none" font-family="sans-serif" dy="1.5625" font-size="25" fill="#2A2C34"/><text text-anchor="middle" pointer-events="none" font-family="sans-serif" dy="1.5625" font-size="25" fill="#2A2C34"/><text text-anchor="middle" pointer-events="none" x="0" y="-5" font-size="10px" fill="#2A2C34" font-family="sans-serif"> The</text><text text-anchor="middle" pointer-events="none" x="0" y="5" font-size="10px" fill="#2A2C34" font-family="sans-serif"> Matrix</text><text text-anchor="middle" pointer-events="none" x="0" y="15" font-size="10px" fill="#2A2C34" font-family="sans-serif"> Revol…</text></g><g class="node" transform="translate(41.936034912829,148.2589422916903)"><circle class="outline" cx="0" cy="0" r="25" fill="#57C7E3" stroke="#23b3d7" stroke-width="2px"/><text text-anchor="middle" pointer-events="none" font-family="sans-serif" dy="1.5625" font-size="25" fill="#2A2C34"/><text text-anchor="middle" pointer-events="none" font-family="sans-serif" dy="1.5625" font-size="25" fill="#2A2C34"/><text text-anchor="middle" pointer-events="none" font-family="sans-serif" dy="1.5625" font-size="25" fill="#2A2C34"/><text text-anchor="middle" pointer-events="none" x="0" y="-5" font-size="10px" fill="#2A2C34" font-family="sans-serif"> The</text><text text-anchor="middle" pointer-events="none" x="0" y="5" font-size="10px" fill="#2A2C34" font-family="sans-serif"> Matrix</text><text text-anchor="middle" pointer-events="none" x="0" y="15" font-size="10px" fill="#2A2C34" font-family="sans-serif"> Reloa…</text></g><g class="node" transform="translate(-86.59415506781106,154.9502513439704)"><circle class="outline" cx="0" cy="0" r="25" fill="#57C7E3" stroke="#23b3d7" stroke-width="2px"/><text text-anchor="middle" pointer-events="none" font-family="sans-serif" dy="1.5625" font-size="25" fill="#2A2C34"/><text text-anchor="middle" pointer-events="none" font-family="sans-serif" dy="1.5625" font-size="25" fill="#2A2C34"/><text text-anchor="middle" pointer-events="none" x="0" y="0" font-size="10px" fill="#2A2C34" font-family="sans-serif"> The</text><text text-anchor="middle" pointer-events="none" x="0" y="10" font-size="10px" fill="#2A2C34" font-family="sans-serif"> Matrix</text></g><g class="node" transform="translate(209.85981020309316,-20.23953845971353)"><circle class="outline" cx="0" cy="0" r="25" fill="#F79767" stroke="#f36924" stroke-width="2px"/><text text-anchor="middle" pointer-events="none" font-family="sans-serif" dy="1.5625" font-size="25" fill="#FFFFFF"/><text text-anchor="middle" pointer-events="none" font-family="sans-serif" dy="1.5625" font-size="25" fill="#FFFFFF"/><text text-anchor="middle" pointer-events="none" x="0" y="0" font-size="10px" fill="#FFFFFF" font-family="sans-serif"> Hugo</text><text text-anchor="middle" pointer-events="none" x="0" y="10" font-size="10px" fill="#FFFFFF" font-family="sans-serif"> Weaving</text></g><g class="node" transform="translate(318.5794013459522,-29.533860068829554)"><circle class="outline" cx="0" cy="0" r="25" fill="#57C7E3" stroke="#23b3d7" stroke-width="2px"/><text text-anchor="middle" pointer-events="none" font-family="sans-serif" dy="1.5625" font-size="25" fill="#2A2C34"/><text text-anchor="middle" pointer-events="none" font-family="sans-serif" dy="1.5625" font-size="25" fill="#2A2C34"/><text text-anchor="middle" pointer-events="none" x="0" y="0" font-size="10px" fill="#2A2C34" font-family="sans-serif"> V for</text><text text-anchor="middle" pointer-events="none" x="0" y="10" font-size="10px" fill="#2A2C34" font-family="sans-serif"> Vendetta</text></g><g class="node" transform="translate(196.77594798597855,-130.56447508464225)"><circle class="outline" cx="0" cy="0" r="25" fill="#57C7E3" stroke="#23b3d7" stroke-width="2px"/><text text-anchor="middle" pointer-events="none" font-family="sans-serif" dy="1.5625" font-size="25" fill="#2A2C34"/><text text-anchor="middle" pointer-events="none" font-family="sans-serif" dy="1.5625" font-size="25" fill="#2A2C34"/><text text-anchor="middle" pointer-events="none" font-family="sans-serif" dy="1.5625" font-size="25" fill="#2A2C34"/><text text-anchor="middle" pointer-events="none" x="0" y="-5" font-size="10px" fill="#2A2C34" font-family="sans-serif"> The</text><text text-anchor="middle" pointer-events="none" x="0" y="5" font-size="10px" fill="#2A2C34" font-family="sans-serif"> Matrix</text><text text-anchor="middle" pointer-events="none" x="0" y="15" font-size="10px" fill="#2A2C34" font-family="sans-serif"> Revol…</text></g><g class="node" transform="translate(105.16812110197446,-77.58926685985759)"><circle class="outline" cx="0" cy="0" r="25" fill="#57C7E3" stroke="#23b3d7" stroke-width="2px"/><text text-anchor="middle" pointer-events="none" font-family="sans-serif" dy="1.5625" font-size="25" fill="#2A2C34"/><text text-anchor="middle" pointer-events="none" font-family="sans-serif" dy="1.5625" font-size="25" fill="#2A2C34"/><text text-anchor="middle" pointer-events="none" font-family="sans-serif" dy="1.5625" font-size="25" fill="#2A2C34"/><text text-anchor="middle" pointer-events="none" x="0" y="-5" font-size="10px" fill="#2A2C34" font-family="sans-serif"> The</text><text text-anchor="middle" pointer-events="none" x="0" y="5" font-size="10px" fill="#2A2C34" font-family="sans-serif"> Matrix</text><text text-anchor="middle" pointer-events="none" x="0" y="15" font-size="10px" fill="#2A2C34" font-family="sans-serif"> Reloa…</text></g><g class="node" transform="translate(111.12640298727344,23.65545069705658)"><circle class="outline" cx="0" cy="0" r="25" fill="#57C7E3" stroke="#23b3d7" stroke-width="2px"/><text text-anchor="middle" pointer-events="none" font-family="sans-serif" dy="1.5625" font-size="25" fill="#2A2C34"/><text text-anchor="middle" pointer-events="none" font-family="sans-serif" dy="1.5625" font-size="25" fill="#2A2C34"/><text text-anchor="middle" pointer-events="none" x="0" y="0" font-size="10px" fill="#2A2C34" font-family="sans-serif"> The</text><text text-anchor="middle" pointer-events="none" x="0" y="10" font-size="10px" fill="#2A2C34" font-family="sans-serif"> Matrix</text></g><g class="node" transform="translate(265.267265759956,79.46925988949415)"><circle class="outline" cx="0" cy="0" r="25" fill="#57C7E3" stroke="#23b3d7" stroke-width="2px"/><text text-anchor="middle" pointer-events="none" font-family="sans-serif" dy="1.5625" font-size="25" fill="#2A2C34"/><text text-anchor="middle" pointer-events="none" font-family="sans-serif" dy="1.5625" font-size="25" fill="#2A2C34"/><text text-anchor="middle" pointer-events="none" x="0" y="0" font-size="10px" fill="#2A2C34" font-family="sans-serif"> Cloud</text><text text-anchor="middle" pointer-events="none" x="0" y="10" font-size="10px" fill="#2A2C34" font-family="sans-serif"> Atlas</text></g></g></svg>