<svg xmlns="http://www.w3.org/2000/svg" width="604.9244384765625" height="595.6058959960938" viewBox="-205.07244873046875 -188.94300842285156 604.9244384765625 595.6058959960938"><title>Neo4j Graph Visualization</title><desc>Created using Neo4j (http://www.neo4j.com/)</desc><g class="layer relationships"><g class="relationship" transform="translate(173.7109076760853 377.6629316862564) rotate(262.6195921719596)"><path class="outline" fill="#A5ABB6" stroke="none" d="M 21.40063509461097,12.933012701892217 L 21.90063509461097,12.06698729810778 A 55.650252236915634 55.650252236915634 0 0 0 23.38399090277209,12.893488486477928 L 22.910645872849248,13.774365596322049 A 56.650252236915634 56.650252236915634 0 0 1 21.40063509461097,12.933012701892217 Z M 73.29558211004354,15.38667279653643 L 72.87952357603376,14.477334962572819 A 55.650252236915634 55.650252236915634 0 0 0 74.4126862335797,13.747361720947382 L 73.08186072813115,11.058699697924109 L 80.90803520487543,11.090212545404633 L 76.18712024084445,17.332244418311745 L 74.85629473539589,14.643582395288472 A 56.650252236915634 56.650252236915634 0 0 1 73.29558211004354,15.38667279653643"/><text text-anchor="middle" pointer-events="none" font-size="8px" fill="#000000" x="47.929884373416655" y="22.99398088515774" transform="rotate(180 47.929884373416655 19.99398088515774)" font-family="sans-serif">PRODUCED</text></g><g class="relationship" transform="translate(173.7109076760853 377.6629316862564) rotate(262.6195921719596)"><path class="outline" fill="#A5ABB6" stroke="none" d="M 25 0.5 L 26.268104156701362 0.5 L 26.268104156701362 -0.5 L 25 -0.5 Z M 70.04544790670136 0.5 L 71.31355206340272 0.5 L 71.31355206340272 3.5 L 78.31355206340272 0 L 71.31355206340272 -3.5 L 71.31355206340272 -0.5 L 70.04544790670136 -0.5 Z"/><text text-anchor="middle" pointer-events="none" font-size="8px" fill="#000000" x="48.15677603170136" y="3" transform="rotate(180 48.15677603170136 0)" font-family="sans-serif">DIRECT…</text></g><g class="relationship" transform="translate(173.7109076760853 377.6629316862564) rotate(262.6195921719596)"><path class="outline" fill="#A5ABB6" stroke="none" d="M 21.40063509461097,-12.933012701892217 L 21.90063509461097,-12.06698729810778 A 55.650252236915634 55.650252236915634 0 0 1 30.61519229317877,-16.13847401417531 L 30.271787400088044,-17.07766147118341 A 56.650252236915634 56.650252236915634 0 0 0 21.40063509461097,-12.933012701892217 Z M 65.73830731203928,-18.212582534720923 L 65.4556510931048,-17.2533612558193 A 55.650252236915634 55.650252236915634 0 0 1 74.4126862335797,-13.747361720947382 L 73.08186072813115,-11.058699697924109 L 80.90803520487543,-11.090212545404633 L 76.18712024084445,-17.332244418311745 L 74.85629473539589,-14.643582395288472 A 56.650252236915634 56.650252236915634 0 0 0 65.73830731203928,-18.212582534720923"/><text text-anchor="middle" pointer-events="none" font-size="8px" fill="#000000" x="47.92988437341664" y="-16.99398088515774" transform="rotate(180 47.92988437341664 -19.99398088515774)" font-family="sans-serif">WROTE</text></g><g class="relationship" transform="translate(357.8402917940174 194.05220794404931) rotate(276.92302334334465)"><path class="outline" fill="#A5ABB6" stroke="none" d="M 24.018736134675446,6.953439040707552 L 24.277555179777966,5.987513214418485 A 107.59964951911569 107.59964951911569 0 0 0 27.31553649349048,6.754308967619579 L 27.08495156743286,7.727361171704743 A 108.59964951911569 108.59964951911569 0 0 1 24.018736134675446,6.953439040707552 Z M 73.81818228490425,8.465464321964475 L 73.61844141410701,7.485615566016307 A 107.59964951911569 107.59964951911569 0 0 0 76.6791229150566,6.815141898122956 L 75.99456503862002,3.894289194919892 L 83.60853886860318,5.704648970304793 L 77.59186675030536,10.709612169060374 L 76.90730887386879,7.788759465857311 A 108.59964951911569 108.59964951911569 0 0 1 73.81818228490425,8.465464321964475"/><text text-anchor="middle" pointer-events="none" font-size="8px" fill="#000000" x="50.419284222359195" y="13.140402187573088" font-family="sans-serif">DIRECTED</text></g><g class="relationship" transform="translate(357.8402917940174 194.05220794404931) rotate(276.92302334334465)"><path class="outline" fill="#A5ABB6" stroke="none" d="M 24.018736134675446,-6.953439040707552 L 24.277555179777966,-5.987513214418485 A 107.59964951911569 107.59964951911569 0 0 1 32.72974270357506,-7.891156958279595 L 32.54947584299704,-8.874774698551363 A 108.59964951911569 108.59964951911569 0 0 0 24.018736134675446,-6.953439040707552 Z M 68.32014818818251,-9.439735552734717 L 68.1710339457498,-8.45091557786381 A 107.59964951911569 107.59964951911569 0 0 1 76.6791229150566,-6.815141898122956 L 75.99456503862002,-3.894289194919892 L 83.60853886860318,-5.704648970304793 L 77.59186675030536,-10.709612169060374 L 76.90730887386879,-7.788759465857311 A 108.59964951911569 108.59964951911569 0 0 0 68.32014818818251,-9.439735552734717"/><text text-anchor="middle" pointer-events="none" font-size="8px" fill="#000000" x="50.419284222359174" y="-7.140402187573088" font-family="sans-serif">WROTE</text></g><g class="relationship" transform="translate(264.39449838748556 92.13302529868275) rotate(357.1806189500112)"><path class="outline" fill="#A5ABB6" stroke="none" d="M 24.018736134675446,6.953439040707552 L 24.277555179777966,5.987513214418485 A 104.8763115582872 104.8763115582872 0 0 0 26.64767567592351,6.5930491387125585 L 26.411455828494223,7.564748775267219 A 105.8763115582872 105.8763115582872 0 0 1 24.018736134675446,6.953439040707552 Z M 73.13086358386589,8.311503069153787 L 72.92581940284768,7.332750350725604 A 104.8763115582872 104.8763115582872 0 0 0 75.31408176284086,6.803271529903028 L 74.63063267648373,3.882159182464539 L 82.2439187545902,5.695409052976125 L 76.22534721131704,10.698087993154346 L 75.54189812495991,7.776975645715857 A 105.8763115582872 105.8763115582872 0 0 1 73.13086358386589,8.311503069153787"/><text text-anchor="middle" pointer-events="none" font-size="8px" fill="#000000" x="49.73744180972304" y="13.047628560662034" font-family="sans-serif">DIRECTED</text></g><g class="relationship" transform="translate(264.39449838748556 92.13302529868275) rotate(357.1806189500112)"><path class="outline" fill="#A5ABB6" stroke="none" d="M 24.018736134675446,-6.953439040707552 L 24.277555179777966,-5.987513214418485 A 104.8763115582872 104.8763115582872 0 0 1 32.05529733354952,-7.757513193617001 L 31.870639383914668,-8.740316043448374 A 105.8763115582872 105.8763115582872 0 0 0 24.018736134675446,-6.953439040707552 Z M 67.63689826838154,-9.311997250069894 L 67.48374449830251,-8.32379488075955 A 104.8763115582872 104.8763115582872 0 0 1 75.31408176284086,-6.803271529903028 L 74.63063267648373,-3.882159182464539 L 82.2439187545902,-5.695409052976125 L 76.22534721131704,-10.698087993154346 L 75.54189812495991,-7.776975645715857 A 105.8763115582872 105.8763115582872 0 0 0 67.63689826838154,-9.311997250069894"/><text text-anchor="middle" pointer-events="none" font-size="8px" fill="#000000" x="49.73744180972304" y="-7.047628560662034" font-family="sans-serif">WROTE</text></g><g class="relationship" transform="translate(267.1060794668721 -132.0472255742323) rotate(492.8484477019383)"><path class="outline" fill="#A5ABB6" stroke="none" d="M 21.40063509461097,12.933012701892217 L 21.90063509461097,12.06698729810778 A 58.67769416234266 58.67769416234266 0 0 0 32.036107882516376,16.697003914174104 L 31.708839155150635,17.64193522389371 A 59.67769416234266 59.67769416234266 0 0 1 21.40063509461097,12.933012701892217 Z M 67.2204919867512,18.748739626236933 L 66.95270332575676,17.785261949773798 A 58.67769416234266 58.67769416234266 0 0 0 77.35683462793041,13.795410530666643 L 76.02153918943432,11.108965650917282 L 83.84775525376159,11.127461987467345 L 79.13722854592518,17.377337036999123 L 77.8019331074291,14.690892157249763 A 59.67769416234266 59.67769416234266 0 0 1 67.2204919867512,18.748739626236933"/><text text-anchor="middle" pointer-events="none" font-size="8px" fill="#000000" x="49.39596497011082" y="23.399585873292324" transform="rotate(180 49.39596497011082 20.399585873292324)" font-family="sans-serif">WROTE</text></g><g class="relationship" transform="translate(267.1060794668721 -132.0472255742323) rotate(492.8484477019383)"><path class="outline" fill="#A5ABB6" stroke="none" d="M 25 0.5 L 26.172085459169793 0.5 L 26.172085459169793 -0.5 L 25 -0.5 Z M 73.0627104591698 0.5 L 74.23479591833959 0.5 L 74.23479591833959 3.5 L 81.23479591833959 0 L 74.23479591833959 -3.5 L 74.23479591833959 -0.5 L 73.0627104591698 -0.5 Z"/><text text-anchor="middle" pointer-events="none" font-size="8px" fill="#000000" x="49.61739795916979" y="3" transform="rotate(180 49.61739795916979 0)" font-family="sans-serif">DIRECTED</text></g><g class="relationship" transform="translate(267.1060794668721 -132.0472255742323) rotate(492.8484477019383)"><path class="outline" fill="#A5ABB6" stroke="none" d="M 21.40063509461097,-12.933012701892217 L 21.90063509461097,-12.06698729810778 A 58.67769416234266 58.67769416234266 0 0 1 24.73508868537671,-13.601247878223411 L 24.283394155304066,-14.49342053612235 A 59.67769416234266 59.67769416234266 0 0 0 21.40063509461097,-12.933012701892217 Z M 74.82759607490074,-16.068749779816514 L 74.43233760806133,-15.150179834525595 A 58.67769416234266 58.67769416234266 0 0 1 77.35683462793041,-13.795410530666643 L 76.02153918943432,-11.108965650917282 L 83.84775525376159,-11.127461987467345 L 79.13722854592518,-17.377337036999123 L 77.8019331074291,-14.690892157249763 A 59.67769416234266 59.67769416234266 0 0 0 74.82759607490074,-16.068749779816514"/><text text-anchor="middle" pointer-events="none" font-size="8px" fill="#000000" x="49.39596497011081" y="-17.399585873292324" transform="rotate(180 49.39596497011081 -20.399585873292324)" font-family="sans-serif">PRODUCED</text></g><g class="relationship" transform="translate(68.69618318283895 -114.87241082596341) rotate(206.09799669296194)"><path class="outline" fill="#A5ABB6" stroke="none" d="M 21.40063509461097,12.933012701892217 L 21.90063509461097,12.06698729810778 A 54.758987844961055 54.758987844961055 0 0 0 30.198652195224934,15.971147748433232 L 29.85018927483839,16.908470314637455 A 55.758987844961055 55.758987844961055 0 0 1 21.40063509461097,12.933012701892217 Z M 65.30183200827784,18.051894211488637 L 65.01449352509492,17.094065105602766 A 54.758987844961055 54.758987844961055 0 0 0 73.54684489912874,13.732735509447338 L 72.2173800841064,11.043400404701629 L 80.04353761270578,11.078873458519494 L 75.31946465249186,17.31851564910828 L 73.98999983746951,14.629180544362573 A 55.758987844961055 55.758987844961055 0 0 1 65.30183200827784,18.051894211488637"/><text text-anchor="middle" pointer-events="none" font-size="8px" fill="#000000" x="47.49878395526453" y="22.874581137800057" transform="rotate(180 47.49878395526453 19.874581137800057)" font-family="sans-serif">WROTE</text></g><g class="relationship" transform="translate(68.69618318283895 -114.87241082596341) rotate(206.09799669296194)"><path class="outline" fill="#A5ABB6" stroke="none" d="M 25 0.5 L 26.28201924279334 0.5 L 26.28201924279334 -0.5 L 25 -0.5 Z M 69.17264424279334 0.5 L 70.45466348558668 0.5 L 70.45466348558668 3.5 L 77.45466348558668 0 L 70.45466348558668 -3.5 L 70.45466348558668 -0.5 L 69.17264424279334 -0.5 Z"/><text text-anchor="middle" pointer-events="none" font-size="8px" fill="#000000" x="47.72733174279334" y="3" transform="rotate(180 47.72733174279334 0)" font-family="sans-serif">PRODU…</text></g><g class="relationship" transform="translate(68.69618318283895 -114.87241082596341) rotate(206.09799669296194)"><path class="outline" fill="#A5ABB6" stroke="none" d="M 21.40063509461097,-12.933012701892217 L 21.90063509461097,-12.06698729810778 A 54.758987844961055 54.758987844961055 0 0 1 25.140761404275715,-13.795484454870746 L 24.699932079943395,-14.693075401131189 A 55.758987844961055 55.758987844961055 0 0 0 21.40063509461097,-12.933012701892217 Z M 70.58414314432468,-16.172981531678126 L 70.20206995844711,-15.24884946285173 A 54.758987844961055 54.758987844961055 0 0 1 73.54684489912874,-13.732735509447338 L 72.2173800841064,-11.043400404701629 L 80.04353761270578,-11.078873458519494 L 75.31946465249186,-17.31851564910828 L 73.98999983746951,-14.629180544362573 A 55.758987844961055 55.758987844961055 0 0 0 70.58414314432468,-16.172981531678126"/><text text-anchor="middle" pointer-events="none" font-size="8px" fill="#000000" x="47.49878395526453" y="-16.874581137800057" transform="rotate(180 47.49878395526453 -19.874581137800057)" font-family="sans-serif">DIRECTED</text></g><g class="relationship" transform="translate(-41.50368914898069 52.99339149662611) rotate(205.8582265756275)"><path class="outline" fill="#A5ABB6" stroke="none" d="M 24.018736134675446,-6.953439040707552 L 24.277555179777966,-5.987513214418485 A 108.53298288108549 108.53298288108549 0 0 1 27.544767385412605,-6.80883093661275 L 27.316051744076425,-7.782324211067277 A 109.53298288108549 109.53298288108549 0 0 0 24.018736134675446,-6.953439040707552 Z M 74.05375325205468,-8.51750368232581 L 73.85576909686729,-7.5372984618261825 A 108.53298288108549 108.53298288108549 0 0 1 77.1471969941539,-6.8191475066629605 L 76.46226496247516,-3.8983825192015527 L 84.07647063684364,-5.707766930656142 L 78.06043970305888,-10.71350082327817 L 77.37550767138013,-7.792735835816763 A 109.53298288108549 109.53298288108549 0 0 0 74.05375325205468,-8.51750368232581"/><text text-anchor="middle" pointer-events="none" font-size="8px" fill="#000000" x="50.65309216113528" y="-7.172198423397347" transform="rotate(180 50.65309216113528 -10.172198423397347)" font-family="sans-serif">DIRECTED</text></g><g class="relationship" transform="translate(-41.50368914898069 52.99339149662611) rotate(205.8582265756275)"><path class="outline" fill="#A5ABB6" stroke="none" d="M 24.018736134675446,6.953439040707552 L 24.277555179777966,5.987513214418485 A 108.53298288108549 108.53298288108549 0 0 0 32.961124626304056,7.936517227405545 L 32.78231415754408,8.92040076536206 A 109.53298288108549 109.53298288108549 0 0 1 24.018736134675446,6.953439040707552 Z M 68.55440039314901,9.48309218141334 L 68.40662351538852,8.494071456453867 A 108.53298288108549 108.53298288108549 0 0 0 77.1471969941539,6.8191475066629605 L 76.46226496247516,3.8983825192015527 L 84.07647063684364,5.707766930656142 L 78.06043970305888,10.71350082327817 L 77.37550767138013,7.792735835816763 A 109.53298288108549 109.53298288108549 0 0 1 68.55440039314901,9.48309218141334"/><text text-anchor="middle" pointer-events="none" font-size="8px" fill="#000000" x="50.65309216113531" y="13.172198423397347" transform="rotate(180 50.65309216113531 10.172198423397347)" font-family="sans-serif">WROTE</text></g><g class="relationship" transform="translate(-176.07244368033673 106.04616068066792) rotate(290.24546733751265)"><path class="outline" fill="#A5ABB6" stroke="none" d="M 24.018736134675446,-6.953439040707552 L 24.277555179777966,-5.987513214418485 A 105.59357359947151 105.59357359947151 0 0 1 32.232827405163164,-7.792902937831656 L 32.0493469621574,-8.775926298202307 A 106.59357359947151 106.59357359947151 0 0 0 24.018736134675446,-6.953439040707552 Z M 67.81681157675361,-9.345823158292745 L 67.66474210425514,-8.357453351219476 A 105.59357359947151 105.59357359947151 0 0 1 75.6734934446161,-6.806424595310162 L 74.98974983532753,-3.885381172702917 L 82.60321869891443,-5.697863410738048 L 76.58515159033419,-10.701149158786487 L 75.90140798104562,-7.780105736179243 A 106.59357359947151 106.59357359947151 0 0 0 67.81681157675361,-9.345823158292745"/><text text-anchor="middle" pointer-events="none" font-size="8px" fill="#000000" x="49.91696762466819" y="-7.072062410035585" font-family="sans-serif">WROTE</text></g><g class="relationship" transform="translate(-176.07244368033673 106.04616068066792) rotate(290.24546733751265)"><path class="outline" fill="#A5ABB6" stroke="none" d="M 24.018736134675446,6.953439040707552 L 24.277555179777966,5.987513214418485 A 105.59357359947151 105.59357359947151 0 0 0 26.82342543193159,6.63584332911671 L 26.58871647388617,7.607909018776226 A 106.59357359947151 106.59357359947151 0 0 1 24.018736134675446,6.953439040707552 Z M 73.31188165332797,8.352367297163227 L 73.10826057325116,7.373317525318939 A 105.59357359947151 105.59357359947151 0 0 0 75.6734934446161,6.806424595310162 L 74.98974983532753,3.885381172702917 L 82.60321869891443,5.697863410738048 L 76.58515159033419,10.701149158786487 L 75.90140798104562,7.780105736179243 A 106.59357359947151 106.59357359947151 0 0 1 73.31188165332797,8.352367297163227"/><text text-anchor="middle" pointer-events="none" font-size="8px" fill="#000000" x="49.91696762466821" y="13.072062410035585" font-family="sans-serif">DIRECTED</text></g><g class="relationship" transform="translate(1.5438871857138872 249.5559907749625) rotate(498.4711720961237)"><path class="outline" fill="#A5ABB6" stroke="none" d="M 21.40063509461097,12.933012701892217 L 21.90063509461097,12.06698729810778 A 56.66519355793436 56.66519355793436 0 0 0 26.003099223714262,14.216969477610625 L 25.57549753159102,15.120936729723965 A 57.66519355793436 57.66519355793436 0 0 1 21.40063509461097,12.933012701892217 Z M 71.53818498792822,16.578688877313255 L 71.16872549599145,15.649442040451369 A 56.66519355793436 56.66519355793436 0 0 0 75.39918513115092,13.76374678987522 L 74.066835322877,11.075839799595895 L 81.89302640984832,11.1029150689493 L 77.17565154218279,17.34762277691432 L 75.84330173390887,14.659715786634994 A 57.66519355793436 57.66519355793436 0 0 1 71.53818498792822,16.578688877313255"/><text text-anchor="middle" pointer-events="none" font-size="8px" fill="#000000" x="48.421092341758616" y="23.129954047648674" transform="rotate(180 48.421092341758616 20.129954047648674)" font-family="sans-serif">DIRECTED</text></g><g class="relationship" transform="translate(1.5438871857138872 249.5559907749625) rotate(498.4711720961237)"><path class="outline" fill="#A5ABB6" stroke="none" d="M 25 0.5 L 30.759406914421334 0.5 L 30.759406914421334 -0.5 L 25 -0.5 Z M 66.53284441442133 0.5 L 72.29225132884267 0.5 L 72.29225132884267 3.5 L 79.29225132884267 0 L 72.29225132884267 -3.5 L 72.29225132884267 -0.5 L 66.53284441442133 -0.5 Z"/><text text-anchor="middle" pointer-events="none" font-size="8px" fill="#000000" x="48.646125664421334" y="3" transform="rotate(180 48.646125664421334 0)" font-family="sans-serif">WROTE</text></g><g class="relationship" transform="translate(1.5438871857138872 249.5559907749625) rotate(498.4711720961237)"><path class="outline" fill="#A5ABB6" stroke="none" d="M 21.40063509461097,-12.933012701892217 L 21.90063509461097,-12.06698729810778 A 56.66519355793436 56.66519355793436 0 0 1 23.834783992880702,-13.133953970255519 L 23.36891691958274,-14.018808687153609 A 57.66519355793436 57.66519355793436 0 0 0 21.40063509461097,-12.933012701892217 Z M 73.81017075645181,-15.618603002436942 L 73.40131166090075,-14.70600547888936 A 56.66519355793436 56.66519355793436 0 0 1 75.39918513115092,-13.76374678987522 L 74.066835322877,-11.075839799595895 L 81.89302640984832,-11.1029150689493 L 77.17565154218279,-17.34762277691432 L 75.84330173390887,-14.659715786634994 A 57.66519355793436 57.66519355793436 0 0 0 73.81017075645181,-15.618603002436942"/><text text-anchor="middle" pointer-events="none" font-size="8px" fill="#000000" x="48.42109234175861" y="-17.129954047648674" transform="rotate(180 48.42109234175861 -20.129954047648674)" font-family="sans-serif">PRODUCED</text></g></g><g class="layer nodes"><g class="node" transform="translate(173.7109076760853,377.6629316862564)"><circle class="outline" cx="0" cy="0" r="25" fill="#F79767" stroke="#f36924" stroke-width="2px"/><text text-anchor="middle" pointer-events="none" font-family="sans-serif" dy="1.5625" font-size="25" fill="#FFFFFF"/><text text-anchor="middle" pointer-events="none" font-family="sans-serif" dy="1.5625" font-size="25" fill="#FFFFFF"/><text text-anchor="middle" pointer-events="none" x="0" y="0" font-size="10px" fill="#FFFFFF" font-family="sans-serif"> Cameron</text><text text-anchor="middle" pointer-events="none" x="0" y="10" font-size="10px" fill="#FFFFFF" font-family="sans-serif"> Crowe</text></g><g class="node" transform="translate(160.43961149387044,275.20531733963327)"><circle class="outline" cx="0" cy="0" r="25" fill="#57C7E3" stroke="#23b3d7" stroke-width="2px"/><text text-anchor="middle" pointer-events="none" font-family="sans-serif" dy="1.5625" font-size="25" fill="#2A2C34"/><text text-anchor="middle" pointer-events="none" font-family="sans-serif" dy="1.5625" font-size="25" fill="#2A2C34"/><text text-anchor="middle" pointer-events="none" x="0" y="0" font-size="10px" fill="#2A2C34" font-family="sans-serif"> Jerry</text><text text-anchor="middle" pointer-events="none" x="0" y="10" font-size="10px" fill="#2A2C34" font-family="sans-serif"> Maguire</text></g><g class="node" transform="translate(357.8402917940174,194.05220794404931)"><circle class="outline" cx="0" cy="0" r="25" fill="#F79767" stroke="#f36924" stroke-width="2px"/><text text-anchor="middle" pointer-events="none" font-family="sans-serif" dy="1.5625" font-size="25" fill="#FFFFFF"/><text text-anchor="middle" pointer-events="none" font-family="sans-serif" dy="1.5625" font-size="25" fill="#FFFFFF"/><text text-anchor="middle" pointer-events="none" x="0" y="0" font-size="10px" fill="#FFFFFF" font-family="sans-serif"> Lilly</text><text text-anchor="middle" pointer-events="none" x="0" y="10" font-size="10px" fill="#FFFFFF" font-family="sans-serif"> Wacho…</text></g><g class="node" transform="translate(370.8520030348746,86.89028730426928)"><circle class="outline" cx="0" cy="0" r="25" fill="#57C7E3" stroke="#23b3d7" stroke-width="2px"/><text text-anchor="middle" pointer-events="none" font-family="sans-serif" dy="1.5625" font-size="25" fill="#2A2C34"/><text text-anchor="middle" pointer-events="none" font-family="sans-serif" dy="1.5625" font-size="25" fill="#2A2C34"/><text text-anchor="middle" pointer-events="none" x="0" y="0" font-size="10px" fill="#2A2C34" font-family="sans-serif"> Speed</text><text text-anchor="middle" pointer-events="none" x="0" y="10" font-size="10px" fill="#2A2C34" font-family="sans-serif"> Racer</text></g><g class="node" transform="translate(264.39449838748556,92.13302529868275)"><circle class="outline" cx="0" cy="0" r="25" fill="#F79767" stroke="#f36924" stroke-width="2px"/><text text-anchor="middle" pointer-events="none" font-family="sans-serif" dy="1.5625" font-size="25" fill="#FFFFFF"/><text text-anchor="middle" pointer-events="none" font-family="sans-serif" dy="1.5625" font-size="25" fill="#FFFFFF"/><text text-anchor="middle" pointer-events="none" x="0" y="0" font-size="10px" fill="#FFFFFF" font-family="sans-serif"> Lana</text><text text-anchor="middle" pointer-events="none" x="0" y="10" font-size="10px" fill="#FFFFFF" font-family="sans-serif"> Wacho…</text></g><g class="node" transform="translate(267.1060794668721,-132.0472255742323)"><circle class="outline" cx="0" cy="0" r="25" fill="#F79767" stroke="#f36924" stroke-width="2px"/><text text-anchor="middle" pointer-events="none" font-family="sans-serif" dy="1.5625" font-size="25" fill="#FFFFFF"/><text text-anchor="middle" pointer-events="none" font-family="sans-serif" dy="1.5625" font-size="25" fill="#FFFFFF"/><text text-anchor="middle" pointer-events="none" x="0" y="0" font-size="10px" fill="#FFFFFF" font-family="sans-serif"> Nancy</text><text text-anchor="middle" pointer-events="none" x="0" y="10" font-size="10px" fill="#FFFFFF" font-family="sans-serif"> Meyers</text></g><g class="node" transform="translate(194.85988664500212,-54.160644659697056)"><circle class="outline" cx="0" cy="0" r="25" fill="#57C7E3" stroke="#23b3d7" stroke-width="2px"/><text text-anchor="middle" pointer-events="none" font-family="sans-serif" dy="1.5625" font-size="25" fill="#2A2C34"/><text text-anchor="middle" pointer-events="none" x="0" y="5" font-size="10px" fill="#2A2C34" font-family="sans-serif"> Somethi…</text></g><g class="node" transform="translate(68.69618318283895,-114.87241082596341)"><circle class="outline" cx="0" cy="0" r="25" fill="#F79767" stroke="#f36924" stroke-width="2px"/><text text-anchor="middle" pointer-events="none" font-family="sans-serif" dy="1.5625" font-size="25" fill="#FFFFFF"/><text text-anchor="middle" pointer-events="none" font-family="sans-serif" dy="1.5625" font-size="25" fill="#FFFFFF"/><text text-anchor="middle" pointer-events="none" x="0" y="0" font-size="10px" fill="#FFFFFF" font-family="sans-serif"> Cameron</text><text text-anchor="middle" pointer-events="none" x="0" y="10" font-size="10px" fill="#FFFFFF" font-family="sans-serif"> Crowe</text></g><g class="node" transform="translate(-23.31250581097171,-159.94301343548076)"><circle class="outline" cx="0" cy="0" r="25" fill="#57C7E3" stroke="#23b3d7" stroke-width="2px"/><text text-anchor="middle" pointer-events="none" font-family="sans-serif" dy="1.5625" font-size="25" fill="#2A2C34"/><text text-anchor="middle" pointer-events="none" font-family="sans-serif" dy="1.5625" font-size="25" fill="#2A2C34"/><text text-anchor="middle" pointer-events="none" x="0" y="0" font-size="10px" fill="#2A2C34" font-family="sans-serif"> Jerry</text><text text-anchor="middle" pointer-events="none" x="0" y="10" font-size="10px" fill="#2A2C34" font-family="sans-serif"> Maguire</text></g><g class="node" transform="translate(-41.50368914898069,52.99339149662611)"><circle class="outline" cx="0" cy="0" r="25" fill="#F79767" stroke="#f36924" stroke-width="2px"/><text text-anchor="middle" pointer-events="none" font-family="sans-serif" dy="1.5625" font-size="25" fill="#FFFFFF"/><text text-anchor="middle" pointer-events="none" font-family="sans-serif" dy="1.5625" font-size="25" fill="#FFFFFF"/><text text-anchor="middle" pointer-events="none" x="0" y="0" font-size="10px" fill="#FFFFFF" font-family="sans-serif"> Lilly</text><text text-anchor="middle" pointer-events="none" x="0" y="10" font-size="10px" fill="#FFFFFF" font-family="sans-serif"> Wacho…</text></g><g class="node" transform="translate(-139.06480705821957,5.708128336349696)"><circle class="outline" cx="0" cy="0" r="25" fill="#57C7E3" stroke="#23b3d7" stroke-width="2px"/><text text-anchor="middle" pointer-events="none" font-family="sans-serif" dy="1.5625" font-size="25" fill="#2A2C34"/><text text-anchor="middle" pointer-events="none" font-family="sans-serif" dy="1.5625" font-size="25" fill="#2A2C34"/><text text-anchor="middle" pointer-events="none" x="0" y="0" font-size="10px" fill="#2A2C34" font-family="sans-serif"> Speed</text><text text-anchor="middle" pointer-events="none" x="0" y="10" font-size="10px" fill="#2A2C34" font-family="sans-serif"> Racer</text></g><g class="node" transform="translate(-176.07244368033673,106.04616068066792)"><circle class="outline" cx="0" cy="0" r="25" fill="#F79767" stroke="#f36924" stroke-width="2px"/><text text-anchor="middle" pointer-events="none" font-family="sans-serif" dy="1.5625" font-size="25" fill="#FFFFFF"/><text text-anchor="middle" pointer-events="none" font-family="sans-serif" dy="1.5625" font-size="25" fill="#FFFFFF"/><text text-anchor="middle" pointer-events="none" x="0" y="0" font-size="10px" fill="#FFFFFF" font-family="sans-serif"> Lana</text><text text-anchor="middle" pointer-events="none" x="0" y="10" font-size="10px" fill="#FFFFFF" font-family="sans-serif"> Wacho…</text></g><g class="node" transform="translate(1.5438871857138872,249.5559907749625)"><circle class="outline" cx="0" cy="0" r="25" fill="#F79767" stroke="#f36924" stroke-width="2px"/><text text-anchor="middle" pointer-events="none" font-family="sans-serif" dy="1.5625" font-size="25" fill="#FFFFFF"/><text text-anchor="middle" pointer-events="none" font-family="sans-serif" dy="1.5625" font-size="25" fill="#FFFFFF"/><text text-anchor="middle" pointer-events="none" x="0" y="0" font-size="10px" fill="#FFFFFF" font-family="sans-serif"> Nancy</text><text text-anchor="middle" pointer-events="none" x="0" y="10" font-size="10px" fill="#FFFFFF" font-family="sans-serif"> Meyers</text></g><g class="node" transform="translate(-76.53161100691587,318.70141917924065)"><circle class="outline" cx="0" cy="0" r="25" fill="#57C7E3" stroke="#23b3d7" stroke-width="2px"/><text text-anchor="middle" pointer-events="none" font-family="sans-serif" dy="1.5625" font-size="25" fill="#2A2C34"/><text text-anchor="middle" pointer-events="none" x="0" y="5" font-size="10px" fill="#2A2C34" font-family="sans-serif"> Somethi…</text></g></g></svg>