<svg xmlns="http://www.w3.org/2000/svg" width="288.0218811035156" height="284.5794677734375" viewBox="-47.74024200439453 -41.41484069824219 288.0218811035156 284.5794677734375"><title>Neo4j Graph Visualization</title><desc>Created using Neo4j (http://www.neo4j.com/)</desc><g class="layer relationships"><g class="relationship" transform="translate(155.48275873781446 205.5015641585742) rotate(238.37461635350758)"><path class="outline" fill="#A5ABB6" stroke="none" d="M 25 0.5 L 32.44360581002358 0.5 L 32.44360581002358 -0.5 L 25 -0.5 Z M 78.00610581002357 0.5 L 85.44971162004715 0.5 L 85.44971162004715 3.5 L 92.44971162004715 0 L 85.44971162004715 -3.5 L 85.44971162004715 -0.5 L 78.00610581002357 -0.5 Z"/><text text-anchor="middle" pointer-events="none" font-size="8px" fill="#000000" x="55.22485581002358" y="3" transform="rotate(180 55.22485581002358 0)" font-family="sans-serif">ACTED_IN</text></g><g class="relationship" transform="translate(211.28160358607778 117.04783203464397) rotate(185.62144583490112)"><path class="outline" fill="#A5ABB6" stroke="none" d="M 25 0.5 L 37.589484675779296 0.5 L 37.589484675779296 -0.5 L 25 -0.5 Z M 73.36292217577929 0.5 L 85.95240685155859 0.5 L 85.95240685155859 3.5 L 92.95240685155859 0 L 85.95240685155859 -3.5 L 85.95240685155859 -0.5 L 73.36292217577929 -0.5 Z"/><text text-anchor="middle" pointer-events="none" font-size="8px" fill="#000000" x="55.476203425779296" y="3" transform="rotate(180 55.476203425779296 0)" font-family="sans-serif">WROTE</text></g><g class="relationship" transform="translate(180.93651049465996 27.43439895984056) rotate(498.1135763501429)"><path class="outline" fill="#A5ABB6" stroke="none" d="M 25 0.5 L 37.07103278170376 0.5 L 37.07103278170376 -0.5 L 25 -0.5 Z M 72.84447028170376 0.5 L 84.91550306340751 0.5 L 84.91550306340751 3.5 L 91.91550306340751 0 L 84.91550306340751 -3.5 L 84.91550306340751 -0.5 L 72.84447028170376 -0.5 Z"/><text text-anchor="middle" pointer-events="none" font-size="8px" fill="#000000" x="54.95775153170376" y="3" transform="rotate(180 54.95775153170376 0)" font-family="sans-serif">WROTE</text></g><g class="relationship" transform="translate(95.11853665788054 -12.414837494930463) rotate(450.59383064631334)"><path class="outline" fill="#A5ABB6" stroke="none" d="M 25 0.5 L 32.676213296455344 0.5 L 32.676213296455344 -0.5 L 25 -0.5 Z M 78.23871329645534 0.5 L 85.91492659291069 0.5 L 85.91492659291069 3.5 L 92.91492659291069 0 L 85.91492659291069 -3.5 L 85.91492659291069 -0.5 L 78.23871329645534 -0.5 Z"/><text text-anchor="middle" pointer-events="none" font-size="8px" fill="#000000" x="55.457463296455344" y="3" transform="rotate(180 55.457463296455344 0)" font-family="sans-serif">ACTED_IN</text></g><g class="relationship" transform="translate(1.1365751162638835 33.53697338818516) rotate(397.80186879082316)"><path class="outline" fill="#A5ABB6" stroke="none" d="M 25 0.5 L 37.31203227351393 0.5 L 37.31203227351393 -0.5 L 25 -0.5 Z M 73.08546977351392 0.5 L 85.39750204702786 0.5 L 85.39750204702786 3.5 L 92.39750204702786 0 L 85.39750204702786 -3.5 L 85.39750204702786 -0.5 L 73.08546977351392 -0.5 Z"/><text text-anchor="middle" pointer-events="none" font-size="8px" fill="#000000" x="55.19875102351393" y="3" font-family="sans-serif">WROTE</text></g><g class="relationship" transform="translate(-18.740244540633437 136.7292804882914) rotate(344.5006595367279)"><path class="outline" fill="#A5ABB6" stroke="none" d="M 25 0.5 L 31.498428806385867 0.5 L 31.498428806385867 -0.5 L 25 -0.5 Z M 78.38905380638587 0.5 L 84.88748261277173 0.5 L 84.88748261277173 3.5 L 91.88748261277173 0 L 84.88748261277173 -3.5 L 84.88748261277173 -0.5 L 78.38905380638587 -0.5 Z"/><text text-anchor="middle" pointer-events="none" font-size="8px" fill="#000000" x="54.94374130638587" y="3" font-family="sans-serif">DIRECTED</text></g><g class="relationship" transform="translate(50.784404249146604 214.16462802069418) rotate(291.6392816211115)"><path class="outline" fill="#A5ABB6" stroke="none" d="M 25 0.5 L 37.06840753803709 0.5 L 37.06840753803709 -0.5 L 25 -0.5 Z M 72.84184503803709 0.5 L 84.91025257607419 0.5 L 84.91025257607419 3.5 L 91.91025257607419 0 L 84.91025257607419 -3.5 L 84.91025257607419 -0.5 L 72.84184503803709 -0.5 Z"/><text text-anchor="middle" pointer-events="none" font-size="8px" fill="#000000" x="54.95512628803709" y="3" font-family="sans-serif">WROTE</text></g></g><g class="layer nodes"><g class="node" transform="translate(93.89645286624268,105.49375601978215)"><circle class="outline" cx="0" cy="0" r="25" fill="#57C7E3" stroke="#23b3d7" stroke-width="2px"/><text text-anchor="middle" pointer-events="none" font-family="sans-serif" dy="1.5625" font-size="25" fill="#2A2C34"/><text text-anchor="middle" pointer-events="none" font-family="sans-serif" dy="1.5625" font-size="25" fill="#2A2C34"/><text text-anchor="middle" pointer-events="none" font-family="sans-serif" dy="1.5625" font-size="25" fill="#2A2C34"/><text text-anchor="middle" pointer-events="none" x="0" y="-5" font-size="10px" fill="#2A2C34" font-family="sans-serif"> Captain</text><text text-anchor="middle" pointer-events="none" x="0" y="5" font-size="10px" fill="#2A2C34" font-family="sans-serif"> America:</text><text text-anchor="middle" pointer-events="none" x="0" y="15" font-size="10px" fill="#2A2C34" font-family="sans-serif"> The Fi…</text></g><g class="node" transform="translate(155.48275873781446,205.5015641585742)"><circle class="outline" cx="0" cy="0" r="25" fill="#F79767" stroke="#f36924" stroke-width="2px"/><text text-anchor="middle" pointer-events="none" font-family="sans-serif" dy="1.5625" font-size="25" fill="#FFFFFF"/><text text-anchor="middle" pointer-events="none" font-family="sans-serif" dy="1.5625" font-size="25" fill="#FFFFFF"/><text text-anchor="middle" pointer-events="none" x="0" y="0" font-size="10px" fill="#FFFFFF" font-family="sans-serif"> Chris</text><text text-anchor="middle" pointer-events="none" x="0" y="10" font-size="10px" fill="#FFFFFF" font-family="sans-serif"> Evans</text></g><g class="node" transform="translate(211.28160358607778,117.04783203464397)"><circle class="outline" cx="0" cy="0" r="25" fill="#F79767" stroke="#f36924" stroke-width="2px"/><text text-anchor="middle" pointer-events="none" font-family="sans-serif" dy="1.5625" font-size="25" fill="#FFFFFF"/><text text-anchor="middle" pointer-events="none" x="0" y="5" font-size="10px" fill="#FFFFFF" font-family="sans-serif"> Jack Kirby</text></g><g class="node" transform="translate(180.93651049465996,27.43439895984056)"><circle class="outline" cx="0" cy="0" r="25" fill="#F79767" stroke="#f36924" stroke-width="2px"/><text text-anchor="middle" pointer-events="none" font-family="sans-serif" dy="1.5625" font-size="25" fill="#FFFFFF"/><text text-anchor="middle" pointer-events="none" x="0" y="5" font-size="10px" fill="#FFFFFF" font-family="sans-serif"> Christop…</text></g><g class="node" transform="translate(95.11853665788054,-12.414837494930463)"><circle class="outline" cx="0" cy="0" r="25" fill="#F79767" stroke="#f36924" stroke-width="2px"/><text text-anchor="middle" pointer-events="none" font-family="sans-serif" dy="1.5625" font-size="25" fill="#FFFFFF"/><text text-anchor="middle" pointer-events="none" font-family="sans-serif" dy="1.5625" font-size="25" fill="#FFFFFF"/><text text-anchor="middle" pointer-events="none" x="0" y="0" font-size="10px" fill="#FFFFFF" font-family="sans-serif"> Hayley</text><text text-anchor="middle" pointer-events="none" x="0" y="10" font-size="10px" fill="#FFFFFF" font-family="sans-serif"> Atwell</text></g><g class="node" transform="translate(1.1365751162638835,33.53697338818516)"><circle class="outline" cx="0" cy="0" r="25" fill="#F79767" stroke="#f36924" stroke-width="2px"/><text text-anchor="middle" pointer-events="none" font-family="sans-serif" dy="1.5625" font-size="25" fill="#FFFFFF"/><text text-anchor="middle" pointer-events="none" font-family="sans-serif" dy="1.5625" font-size="25" fill="#FFFFFF"/><text text-anchor="middle" pointer-events="none" x="0" y="0" font-size="10px" fill="#FFFFFF" font-family="sans-serif"> Joe</text><text text-anchor="middle" pointer-events="none" x="0" y="10" font-size="10px" fill="#FFFFFF" font-family="sans-serif"> Simon</text></g><g class="node" transform="translate(-18.740244540633437,136.7292804882914)"><circle class="outline" cx="0" cy="0" r="25" fill="#F79767" stroke="#f36924" stroke-width="2px"/><text text-anchor="middle" pointer-events="none" font-family="sans-serif" dy="1.5625" font-size="25" fill="#FFFFFF"/><text text-anchor="middle" pointer-events="none" font-family="sans-serif" dy="1.5625" font-size="25" fill="#FFFFFF"/><text text-anchor="middle" pointer-events="none" x="0" y="0" font-size="10px" fill="#FFFFFF" font-family="sans-serif"> Joe</text><text text-anchor="middle" pointer-events="none" x="0" y="10" font-size="10px" fill="#FFFFFF" font-family="sans-serif"> Johnston</text></g><g class="node" transform="translate(50.784404249146604,214.16462802069418)"><circle class="outline" cx="0" cy="0" r="25" fill="#F79767" stroke="#f36924" stroke-width="2px"/><text text-anchor="middle" pointer-events="none" font-family="sans-serif" dy="1.5625" font-size="25" fill="#FFFFFF"/><text text-anchor="middle" pointer-events="none" font-family="sans-serif" dy="1.5625" font-size="25" fill="#FFFFFF"/><text text-anchor="middle" pointer-events="none" x="0" y="0" font-size="10px" fill="#FFFFFF" font-family="sans-serif"> Stephen</text><text text-anchor="middle" pointer-events="none" x="0" y="10" font-size="10px" fill="#FFFFFF" font-family="sans-serif"> McFeely</text></g></g></svg>