<svg xmlns="http://www.w3.org/2000/svg" width="249.16436767578125" height="478.92584228515625" viewBox="-30.020423889160156 -145.52854919433594 249.16436767578125 478.92584228515625"><title>Neo4j Graph Visualization</title><desc>Created using Neo4j (http://www.neo4j.com/)</desc><g class="layer relationships"><g class="relationship" transform="translate(108.94733054510667 304.39727174259906) rotate(325.65045392362737)"><path class="outline" fill="#A5ABB6" stroke="none" d="M 25 0.5 L 27.68584646998545 0.5 L 27.68584646998545 -0.5 L 25 -0.5 Z M 63.02178396998545 0.5 L 65.7076304399709 0.5 L 65.7076304399709 3.5 L 72.7076304399709 0 L 65.7076304399709 -3.5 L 65.7076304399709 -0.5 L 63.02178396998545 -0.5 Z"/><text text-anchor="middle" pointer-events="none" font-size="8px" fill="#000000" x="45.35381521998545" y="3" font-family="sans-serif">ACTE…</text></g><g class="relationship" transform="translate(108.94733054510667 304.39727174259906) rotate(295.01718157564056)"><path class="outline" fill="#A5ABB6" stroke="none" d="M 25 0.5 L 36.344738753499904 0.5 L 36.344738753499904 -0.5 L 25 -0.5 Z M 81.90723875349991 0.5 L 93.25197750699981 0.5 L 93.25197750699981 3.5 L 100.25197750699981 0 L 93.25197750699981 -3.5 L 93.25197750699981 -0.5 L 81.90723875349991 -0.5 Z"/><text text-anchor="middle" pointer-events="none" font-size="8px" fill="#000000" x="59.125988753499904" y="3" font-family="sans-serif">ACTED_IN</text></g><g class="relationship" transform="translate(108.94733054510667 304.39727174259906) rotate(191.16626358811033)"><path class="outline" fill="#A5ABB6" stroke="none" d="M 25 0.5 L 29.763592320950494 0.5 L 29.763592320950494 -0.5 L 25 -0.5 Z M 75.3260923209505 0.5 L 80.08968464190099 0.5 L 80.08968464190099 3.5 L 87.08968464190099 0 L 80.08968464190099 -3.5 L 80.08968464190099 -0.5 L 75.3260923209505 -0.5 Z"/><text text-anchor="middle" pointer-events="none" font-size="8px" fill="#000000" x="52.544842320950494" y="3" transform="rotate(180 52.544842320950494 0)" font-family="sans-serif">ACTED_IN</text></g><g class="relationship" transform="translate(66.9580725701503 201.4632688121433) rotate(381.2923695618012)"><path class="outline" fill="#A5ABB6" stroke="none" d="M 25 0.5 L 39.5406394173492 0.5 L 39.5406394173492 -0.5 L 25 -0.5 Z M 85.1031394173492 0.5 L 99.6437788346984 0.5 L 99.6437788346984 3.5 L 106.6437788346984 0 L 99.6437788346984 -3.5 L 99.6437788346984 -0.5 L 85.1031394173492 -0.5 Z"/><text text-anchor="middle" pointer-events="none" font-size="8px" fill="#000000" x="62.3218894173492" y="3" font-family="sans-serif">ACTED_IN</text></g><g class="relationship" transform="translate(66.9580725701503 201.4632688121433) rotate(353.6501673837396)"><path class="outline" fill="#A5ABB6" stroke="none" d="M 25 0.5 L 26.603638164606252 0.5 L 26.603638164606252 -0.5 L 25 -0.5 Z M 61.93957566460625 0.5 L 63.543213829212505 0.5 L 63.543213829212505 3.5 L 70.5432138292125 0 L 63.543213829212505 -3.5 L 63.543213829212505 -0.5 L 61.93957566460625 -0.5 Z"/><text text-anchor="middle" pointer-events="none" font-size="8px" fill="#000000" x="44.27160691460625" y="3" font-family="sans-serif">ACTE…</text></g><g class="relationship" transform="translate(66.9580725701503 201.4632688121433) rotate(489.925776494096)"><path class="outline" fill="#A5ABB6" stroke="none" d="M 25 0.5 L 26.678439536915377 0.5 L 26.678439536915377 -0.5 L 25 -0.5 Z M 72.24093953691538 0.5 L 73.91937907383075 0.5 L 73.91937907383075 3.5 L 80.91937907383075 0 L 73.91937907383075 -3.5 L 73.91937907383075 -0.5 L 72.24093953691538 -0.5 Z"/><text text-anchor="middle" pointer-events="none" font-size="8px" fill="#000000" x="49.45968953691538" y="3" transform="rotate(180 49.45968953691538 0)" font-family="sans-serif">ACTED_IN</text></g><g class="relationship" transform="translate(150.4386163292009 -70.28548757225896) rotate(192.61989238334775)"><path class="outline" fill="#A5ABB6" stroke="none" d="M 25 0.5 L 39.50001476590663 0.5 L 39.50001476590663 -0.5 L 25 -0.5 Z M 85.06251476590663 0.5 L 99.56252953181325 0.5 L 99.56252953181325 3.5 L 106.56252953181325 0 L 99.56252953181325 -3.5 L 99.56252953181325 -0.5 L 85.06251476590663 -0.5 Z"/><text text-anchor="middle" pointer-events="none" font-size="8px" fill="#000000" x="62.28126476590663" y="3" transform="rotate(180 62.28126476590663 0)" font-family="sans-serif">ACTED_IN</text></g><g class="relationship" transform="translate(150.4386163292009 -70.28548757225896) rotate(509.83507763565245)"><path class="outline" fill="#A5ABB6" stroke="none" d="M 25 0.5 L 28.41457110741821 0.5 L 28.41457110741821 -0.5 L 25 -0.5 Z M 73.97707110741821 0.5 L 77.39164221483642 0.5 L 77.39164221483642 3.5 L 84.39164221483642 0 L 77.39164221483642 -3.5 L 77.39164221483642 -0.5 L 73.97707110741821 -0.5 Z"/><text text-anchor="middle" pointer-events="none" font-size="8px" fill="#000000" x="51.19582110741821" y="3" transform="rotate(180 51.19582110741821 0)" font-family="sans-serif">ACTED_IN</text></g><g class="relationship" transform="translate(150.4386163292009 -70.28548757225896) rotate(420.217800615969)"><path class="outline" fill="#A5ABB6" stroke="none" d="M 25 0.5 L 26.800809079760498 0.5 L 26.800809079760498 -0.5 L 25 -0.5 Z M 46.1367465797605 0.5 L 47.937555659520996 0.5 L 47.937555659520996 3.5 L 54.937555659520996 0 L 47.937555659520996 -3.5 L 47.937555659520996 -0.5 L 46.1367465797605 -0.5 Z"/><text text-anchor="middle" pointer-events="none" font-size="8px" fill="#000000" x="36.4687778297605" y="3" font-family="sans-serif">A…</text></g><g class="relationship" transform="translate(112.51533911629024 -116.5285417849578) rotate(529.0517647723796)"><path class="outline" fill="#A5ABB6" stroke="none" d="M 25 0.5 L 27.568906617156998 0.5 L 27.568906617156998 -0.5 L 25 -0.5 Z M 57.568906617157 0.5 L 60.137813234313995 0.5 L 60.137813234313995 3.5 L 67.137813234314 0 L 60.137813234313995 -3.5 L 60.137813234313995 -0.5 L 57.568906617157 -0.5 Z"/><text text-anchor="middle" pointer-events="none" font-size="8px" fill="#000000" x="42.568906617157" y="3" transform="rotate(180 42.568906617157 0)" font-family="sans-serif">ACT…</text></g><g class="relationship" transform="translate(112.51533911629024 -116.5285417849578) rotate(479.23869050031396)"><path class="outline" fill="#A5ABB6" stroke="none" d="M 25 0.5 L 31.713373549492196 0.5 L 31.713373549492196 -0.5 L 25 -0.5 Z M 77.27587354949219 0.5 L 83.98924709898439 0.5 L 83.98924709898439 3.5 L 90.98924709898439 0 L 83.98924709898439 -3.5 L 83.98924709898439 -0.5 L 77.27587354949219 -0.5 Z"/><text text-anchor="middle" pointer-events="none" font-size="8px" fill="#000000" x="54.494623549492196" y="3" transform="rotate(180 54.494623549492196 0)" font-family="sans-serif">ACTED_IN</text></g><g class="relationship" transform="translate(112.51533911629024 -116.5285417849578) rotate(416.1226909517678)"><path class="outline" fill="#A5ABB6" stroke="none" d="M 25 0.5 L 43.35126750971227 0.5 L 43.35126750971227 -0.5 L 25 -0.5 Z M 88.91376750971227 0.5 L 107.26503501942454 0.5 L 107.26503501942454 3.5 L 114.26503501942454 0 L 107.26503501942454 -3.5 L 107.26503501942454 -0.5 L 88.91376750971227 -0.5 Z"/><text text-anchor="middle" pointer-events="none" font-size="8px" fill="#000000" x="66.13251750971227" y="3" font-family="sans-serif">ACTED_IN</text></g></g><g class="layer nodes"><g class="node" transform="translate(108.94733054510667,304.39727174259906)"><circle class="outline" cx="0" cy="0" r="25" fill="#F79767" stroke="#f36924" stroke-width="2px"/><text text-anchor="middle" pointer-events="none" font-family="sans-serif" dy="1.5625" font-size="25" fill="#FFFFFF"/><text text-anchor="middle" pointer-events="none" font-family="sans-serif" dy="1.5625" font-size="25" fill="#FFFFFF"/><text text-anchor="middle" pointer-events="none" x="0" y="0" font-size="10px" fill="#FFFFFF" font-family="sans-serif"> Hugo</text><text text-anchor="middle" pointer-events="none" x="0" y="10" font-size="10px" fill="#FFFFFF" font-family="sans-serif"> Weaving</text></g><g class="node" transform="translate(66.9580725701503,201.4632688121433)"><circle class="outline" cx="0" cy="0" r="25" fill="#F79767" stroke="#f36924" stroke-width="2px"/><text text-anchor="middle" pointer-events="none" font-family="sans-serif" dy="1.5625" font-size="25" fill="#FFFFFF"/><text text-anchor="middle" pointer-events="none" font-family="sans-serif" dy="1.5625" font-size="25" fill="#FFFFFF"/><text text-anchor="middle" pointer-events="none" x="0" y="0" font-size="10px" fill="#FFFFFF" font-family="sans-serif"> Keanu</text><text text-anchor="middle" pointer-events="none" x="0" y="10" font-size="10px" fill="#FFFFFF" font-family="sans-serif"> Reeves</text></g><g class="node" transform="translate(189.61579384684978,249.26669878412844)"><circle class="outline" cx="0" cy="0" r="25" fill="#57C7E3" stroke="#23b3d7" stroke-width="2px"/><text text-anchor="middle" pointer-events="none" font-family="sans-serif" dy="1.5625" font-size="25" fill="#2A2C34"/><text text-anchor="middle" pointer-events="none" font-family="sans-serif" dy="1.5625" font-size="25" fill="#2A2C34"/><text text-anchor="middle" pointer-events="none" font-family="sans-serif" dy="1.5625" font-size="25" fill="#2A2C34"/><text text-anchor="middle" pointer-events="none" x="0" y="-5" font-size="10px" fill="#2A2C34" font-family="sans-serif"> The</text><text text-anchor="middle" pointer-events="none" x="0" y="5" font-size="10px" fill="#2A2C34" font-family="sans-serif"> Matrix</text><text text-anchor="middle" pointer-events="none" x="0" y="15" font-size="10px" fill="#2A2C34" font-family="sans-serif"> Revol…</text></g><g class="node" transform="translate(161.91514204876293,190.89630780868737)"><circle class="outline" cx="0" cy="0" r="25" fill="#57C7E3" stroke="#23b3d7" stroke-width="2px"/><text text-anchor="middle" pointer-events="none" font-family="sans-serif" dy="1.5625" font-size="25" fill="#2A2C34"/><text text-anchor="middle" pointer-events="none" font-family="sans-serif" dy="1.5625" font-size="25" fill="#2A2C34"/><text text-anchor="middle" pointer-events="none" font-family="sans-serif" dy="1.5625" font-size="25" fill="#2A2C34"/><text text-anchor="middle" pointer-events="none" x="0" y="-5" font-size="10px" fill="#2A2C34" font-family="sans-serif"> The</text><text text-anchor="middle" pointer-events="none" x="0" y="5" font-size="10px" fill="#2A2C34" font-family="sans-serif"> Matrix</text><text text-anchor="middle" pointer-events="none" x="0" y="15" font-size="10px" fill="#2A2C34" font-family="sans-serif"> Reloa…</text></g><g class="node" transform="translate(-1.0204238117088171,282.6903510756804)"><circle class="outline" cx="0" cy="0" r="25" fill="#57C7E3" stroke="#23b3d7" stroke-width="2px"/><text text-anchor="middle" pointer-events="none" font-family="sans-serif" dy="1.5625" font-size="25" fill="#2A2C34"/><text text-anchor="middle" pointer-events="none" font-family="sans-serif" dy="1.5625" font-size="25" fill="#2A2C34"/><text text-anchor="middle" pointer-events="none" x="0" y="0" font-size="10px" fill="#2A2C34" font-family="sans-serif"> The</text><text text-anchor="middle" pointer-events="none" x="0" y="10" font-size="10px" fill="#2A2C34" font-family="sans-serif"> Matrix</text></g><g class="node" transform="translate(150.4386163292009,-70.28548757225896)"><circle class="outline" cx="0" cy="0" r="25" fill="#F79767" stroke="#f36924" stroke-width="2px"/><text text-anchor="middle" pointer-events="none" font-family="sans-serif" dy="1.5625" font-size="25" fill="#FFFFFF"/><text text-anchor="middle" pointer-events="none" font-family="sans-serif" dy="1.5625" font-size="25" fill="#FFFFFF"/><text text-anchor="middle" pointer-events="none" x="0" y="0" font-size="10px" fill="#FFFFFF" font-family="sans-serif"> Hugo</text><text text-anchor="middle" pointer-events="none" x="0" y="10" font-size="10px" fill="#FFFFFF" font-family="sans-serif"> Weaving</text></g><g class="node" transform="translate(112.51533911629024,-116.5285417849578)"><circle class="outline" cx="0" cy="0" r="25" fill="#F79767" stroke="#f36924" stroke-width="2px"/><text text-anchor="middle" pointer-events="none" font-family="sans-serif" dy="1.5625" font-size="25" fill="#FFFFFF"/><text text-anchor="middle" pointer-events="none" font-family="sans-serif" dy="1.5625" font-size="25" fill="#FFFFFF"/><text text-anchor="middle" pointer-events="none" x="0" y="0" font-size="10px" fill="#FFFFFF" font-family="sans-serif"> Keanu</text><text text-anchor="middle" pointer-events="none" x="0" y="10" font-size="10px" fill="#FFFFFF" font-family="sans-serif"> Reeves</text></g><g class="node" transform="translate(22.05451035610242,-99.02953930992206)"><circle class="outline" cx="0" cy="0" r="25" fill="#57C7E3" stroke="#23b3d7" stroke-width="2px"/><text text-anchor="middle" pointer-events="none" font-family="sans-serif" dy="1.5625" font-size="25" fill="#2A2C34"/><text text-anchor="middle" pointer-events="none" font-family="sans-serif" dy="1.5625" font-size="25" fill="#2A2C34"/><text text-anchor="middle" pointer-events="none" font-family="sans-serif" dy="1.5625" font-size="25" fill="#2A2C34"/><text text-anchor="middle" pointer-events="none" x="0" y="-5" font-size="10px" fill="#2A2C34" font-family="sans-serif"> The</text><text text-anchor="middle" pointer-events="none" x="0" y="5" font-size="10px" fill="#2A2C34" font-family="sans-serif"> Matrix</text><text text-anchor="middle" pointer-events="none" x="0" y="15" font-size="10px" fill="#2A2C34" font-family="sans-serif"> Revol…</text></g><g class="node" transform="translate(55.860505999262095,-15.317201871532339)"><circle class="outline" cx="0" cy="0" r="25" fill="#57C7E3" stroke="#23b3d7" stroke-width="2px"/><text text-anchor="middle" pointer-events="none" font-family="sans-serif" dy="1.5625" font-size="25" fill="#2A2C34"/><text text-anchor="middle" pointer-events="none" font-family="sans-serif" dy="1.5625" font-size="25" fill="#2A2C34"/><text text-anchor="middle" pointer-events="none" font-family="sans-serif" dy="1.5625" font-size="25" fill="#2A2C34"/><text text-anchor="middle" pointer-events="none" x="0" y="-5" font-size="10px" fill="#2A2C34" font-family="sans-serif"> The</text><text text-anchor="middle" pointer-events="none" x="0" y="5" font-size="10px" fill="#2A2C34" font-family="sans-serif"> Matrix</text><text text-anchor="middle" pointer-events="none" x="0" y="15" font-size="10px" fill="#2A2C34" font-family="sans-serif"> Reloa…</text></g><g class="node" transform="translate(190.14394717297918,-0.9060993693847254)"><circle class="outline" cx="0" cy="0" r="25" fill="#57C7E3" stroke="#23b3d7" stroke-width="2px"/><text text-anchor="middle" pointer-events="none" font-family="sans-serif" dy="1.5625" font-size="25" fill="#2A2C34"/><text text-anchor="middle" pointer-events="none" font-family="sans-serif" dy="1.5625" font-size="25" fill="#2A2C34"/><text text-anchor="middle" pointer-events="none" x="0" y="0" font-size="10px" fill="#2A2C34" font-family="sans-serif"> The</text><text text-anchor="middle" pointer-events="none" x="0" y="10" font-size="10px" fill="#2A2C34" font-family="sans-serif"> Matrix</text></g></g></svg>