<svg xmlns="http://www.w3.org/2000/svg" width="163.18020629882812" height="245.77879333496094" viewBox="-3.7016239166259766 -22.12093734741211 163.18020629882812 245.77879333496094"><title>Neo4j Graph Visualization</title><desc>Created using Neo4j (http://www.neo4j.com/)</desc><g class="layer relationships"><g class="relationship" transform="translate(130.47857911955626 6.879061485583813) rotate(523.1584618283024)"><path class="outline" fill="#A5ABB6" stroke="none" d="M 21.40063509461097,12.933012701892217 L 21.90063509461097,12.06698729810778 A 60.71088359970883 60.71088359970883 0 0 0 39.57511021498983,18.86156790682533 L 39.36623553012959,19.839510321297944 A 61.71088359970883 61.71088359970883 0 0 1 21.40063509461097,12.933012701892217 Z M 61.42803092777554,20.515293297914823 L 61.279403108851334,19.526400092638426 A 60.71088359970883 60.71088359970883 0 0 0 79.3366064843596,13.826329682127346 L 77.99843474392932,11.141316387353223 L 85.82466612890427,11.151431170252373 L 81.12083547159997,17.40634740849284 L 79.78266373116969,14.72133411371872 A 61.71088359970883 61.71088359970883 0 0 1 61.42803092777554,20.515293297914823"/><text text-anchor="middle" pointer-events="none" font-size="8px" fill="#000000" x="50.38198279188866" y="23.672007110796606" transform="rotate(180 50.38198279188866 20.672007110796606)" font-family="sans-serif">road</text></g><g class="relationship" transform="translate(26.919522625826108 38.22732369232178) rotate(450.8719647655232)"><path class="outline" fill="#A5ABB6" stroke="none" d="M 25 0.5 L 40.09587731746315 0.5 L 40.09587731746315 -0.5 L 25 -0.5 Z M 59.43181481746315 0.5 L 74.5276921349263 0.5 L 74.5276921349263 3.5 L 81.5276921349263 0 L 74.5276921349263 -3.5 L 74.5276921349263 -0.5 L 59.43181481746315 -0.5 Z"/><text text-anchor="middle" pointer-events="none" font-size="8px" fill="#000000" x="49.76384606746315" y="3" transform="rotate(180 49.76384606746315 0)" font-family="sans-serif">trek</text></g><g class="relationship" transform="translate(25.29837689193409 144.7426797594313) rotate(387.7792680210444)"><path class="outline" fill="#A5ABB6" stroke="none" d="M 25 0.5 L 40.381435713904146 0.5 L 40.381435713904146 -0.5 L 25 -0.5 Z M 59.717373213904146 0.5 L 75.09880892780829 0.5 L 75.09880892780829 3.5 L 82.09880892780829 0 L 75.09880892780829 -3.5 L 75.09880892780829 -0.5 L 59.717373213904146 -0.5 Z"/><text text-anchor="middle" pointer-events="none" font-size="8px" fill="#000000" x="50.049404463904146" y="3" font-family="sans-serif">trek</text></g><g class="relationship" transform="translate(130.47857911955626 6.879061485583813) rotate(523.1584618283024)"><path class="outline" fill="#A5ABB6" stroke="none" d="M 25 0.5 L 40.93191970934433 0.5 L 40.93191970934433 -0.5 L 25 -0.5 Z M 60.26785720934433 0.5 L 76.19977691868866 0.5 L 76.19977691868866 3.5 L 83.19977691868866 0 L 76.19977691868866 -3.5 L 76.19977691868866 -0.5 L 60.26785720934433 -0.5 Z"/><text text-anchor="middle" pointer-events="none" font-size="8px" fill="#000000" x="50.59988845934433" y="3" transform="rotate(180 50.59988845934433 0)" font-family="sans-serif">trek</text></g><g class="relationship" transform="translate(130.47857911955626 6.879061485583813) rotate(523.1584618283024)"><path class="outline" fill="#A5ABB6" stroke="none" d="M 21.40063509461097,-12.933012701892217 L 21.90063509461097,-12.06698729810778 A 60.71088359970883 60.71088359970883 0 0 1 23.81377811831443,-13.126067145870799 L 23.345290475082578,-14.009537195243759 A 61.71088359970883 61.71088359970883 0 0 0 21.40063509461097,-12.933012701892217 Z M 77.77576518140978,-15.676817103915042 L 77.36222891684291,-14.766329455515532 A 60.71088359970883 60.71088359970883 0 0 1 79.3366064843596,-13.826329682127346 L 77.99843474392932,-11.141316387353223 L 85.82466612890427,-11.151431170252373 L 81.12083547159997,-17.40634740849284 L 79.78266373116969,-14.72133411371872 A 61.71088359970883 61.71088359970883 0 0 0 77.77576518140978,-15.676817103915042"/><text text-anchor="middle" pointer-events="none" font-size="8px" fill="#000000" x="50.381982791888646" y="-17.672007110796606" transform="rotate(180 50.381982791888646 -20.672007110796606)" font-family="sans-serif">PublicTrans…</text></g></g><g class="layer nodes"><g class="node" transform="translate(130.47857911955626,6.879061485583813)"><circle class="outline" cx="0" cy="0" r="25" fill="#F16667" stroke="#eb2728" stroke-width="2px"/><text text-anchor="middle" pointer-events="none" font-family="sans-serif" dy="1.5625" font-size="25" fill="#FFFFFF"/><text text-anchor="middle" pointer-events="none" x="0" y="5" font-size="10px" fill="#FFFFFF" font-family="sans-serif"> Darjeeling</text></g><g class="node" transform="translate(120.05401331023677,194.65785020607626)"><circle class="outline" cx="0" cy="0" r="25" fill="#D9C8AE" stroke="#c0a378" stroke-width="2px"/><text text-anchor="middle" pointer-events="none" font-family="sans-serif" dy="1.5625" font-size="25" fill="#2A2C34"/><text text-anchor="middle" pointer-events="none" x="0" y="5" font-size="10px" fill="#2A2C34" font-family="sans-serif"> Sandak…</text></g><g class="node" transform="translate(26.919522625826108,38.22732369232178)"><circle class="outline" cx="0" cy="0" r="25" fill="#F16667" stroke="#eb2728" stroke-width="2px"/><text text-anchor="middle" pointer-events="none" font-family="sans-serif" dy="1.5625" font-size="25" fill="#FFFFFF"/><text text-anchor="middle" pointer-events="none" x="0" y="5" font-size="10px" fill="#FFFFFF" font-family="sans-serif"> Rimbik</text></g><g class="node" transform="translate(25.29837689193409,144.7426797594313)"><circle class="outline" cx="0" cy="0" r="25" fill="#8DCC93" stroke="#5db665" stroke-width="2px"/><text text-anchor="middle" pointer-events="none" font-family="sans-serif" dy="1.5625" font-size="25" fill="#2A2C34"/><text text-anchor="middle" pointer-events="none" x="0" y="5" font-size="10px" fill="#2A2C34" font-family="sans-serif"> BhikeBh…</text></g></g></svg>