<svg xmlns="http://www.w3.org/2000/svg" width="333.41082763671875" height="427.1051330566406" viewBox="-65.40424346923828 -115.4679946899414 333.41082763671875 427.1051330566406"><title>Neo4j Graph Visualization</title><desc>Created using Neo4j (http://www.neo4j.com/)</desc><g class="layer relationships"><g class="relationship" transform="translate(166.31248425643378 282.63714163544853) rotate(248.50118233187976)"><path class="outline" fill="#A5ABB6" stroke="none" d="M 21.40063509461097,12.933012701892217 L 21.90063509461097,12.06698729810778 A 62.33698129984519 62.33698129984519 0 0 0 22.02101005197248,12.13630710306392 L 21.52294108801002,13.003444524201633 A 63.33698129984519 63.33698129984519 0 0 1 21.40063509461097,12.933012701892217 Z M 81.24182331364362,14.80787084726962 L 80.79701686737904,13.9122441251574 A 62.33698129984519 62.33698129984519 0 0 0 80.92135745051841,13.850318483428849 L 79.5809541557865,11.166418521159052 L 87.4071912449366,11.170027456099334 L 82.70856184349431,17.428851766455242 L 81.3681585487624,14.744951804185446 A 63.33698129984519 63.33698129984519 0 0 1 81.24182331364362,14.80787084726962"/><text text-anchor="middle" pointer-events="none" font-size="8px" fill="#000000" x="51.171351103141674" y="23.88989478508023" transform="rotate(180 51.171351103141674 20.88989478508023)" font-family="sans-serif">PublicTransport</text></g><g class="relationship" transform="translate(126.08264382129597 180.50156118184023) rotate(303.50340949684187)"><path class="outline" fill="#A5ABB6" stroke="none" d="M 24.018736134675446,-6.953439040707552 L 24.277555179777966,-5.987513214418485 A 131.65092509949568 131.65092509949568 0 0 1 33.47615522000389,-8.101996370790886 L 33.28720731354528,-9.083983483050986 A 132.65092509949568 132.65092509949568 0 0 0 24.018736134675446,-6.953439040707552 Z M 79.6832385818265,-9.746956193481708 L 79.52242615880772,-8.759971206461728 A 131.65092509949568 131.65092509949568 0 0 1 88.7776876531403,-6.909183160749473 L 88.08434579331093,-3.990403096166267 L 95.70373144713935,-5.777848831911464 L 89.70214346624614,-10.800889913527081 L 89.00880160641677,-7.882109848943875 A 132.65092509949568 132.65092509949568 0 0 0 79.6832385818265,-9.746956193481708"/><text text-anchor="middle" pointer-events="none" font-size="8px" fill="#000000" x="56.46315363995215" y="-7.959919972600034" font-family="sans-serif">twowheeler</text></g><g class="relationship" transform="translate(192.33588427690722 80.41677448002278) rotate(299.39108377582824)"><path class="outline" fill="#A5ABB6" stroke="none" d="M 24.018736134675446,-6.953439040707552 L 24.277555179777966,-5.987513214418485 A 81.80697465539157 81.80697465539157 0 0 1 25.958654682578874,-6.418902657095842 L 25.720385223986334,-7.3901017433299785 A 82.80697465539157 82.80697465539157 0 0 0 24.018736134675446,-6.953439040707552 Z M 62.308664945981036,-8.040887617524987 L 62.10508418755671,-7.0618294605192915 A 81.80697465539157 81.80697465539157 0 0 1 63.80046149746012,-6.6904965012555095 L 63.12754687134377,-3.766939437341981 L 70.73424708427774,-5.607621884302941 L 64.69768099894858,-10.588572586473546 L 64.02476637283223,-7.665015522560019 A 82.80697465539157 82.80697465539157 0 0 0 62.308664945981036,-8.040887617524987"/><text text-anchor="middle" pointer-events="none" font-size="8px" fill="#000000" x="43.9870177807293" y="-6.2620017303879365" font-family="sans-serif">twowh…</text></g><g class="relationship" transform="translate(239.00657434328633 -2.440503040871) rotate(532.5539391493692)"><path class="outline" fill="#A5ABB6" stroke="none" d="M 24.018736134675446,6.953439040707552 L 24.277555179777966,5.987513214418485 A 168.4919498130632 168.4919498130632 0 0 0 42.718162223071644,9.838386685070901 L 42.56878821118141,10.827167451758754 A 169.4919498130632 169.4919498130632 0 0 1 24.018736134675446,6.953439040707552 Z M 89.02084612535778,11.405927376390963 L 88.89615368178858,10.413731934697779 A 168.4919498130632 168.4919498130632 0 0 0 107.42697984222842,7.0234964821515495 L 106.72296106005679,4.107273316077048 L 114.34883702676419,5.866823184763517 L 108.36567155179058,10.91179403691755 L 107.66165276961895,7.995570870843049 A 169.4919498130632 169.4919498130632 0 0 1 89.02084612535778,11.405927376390963"/><text text-anchor="middle" pointer-events="none" font-size="8px" fill="#000000" x="65.78112347233005" y="15.215622055856471" transform="rotate(180 65.78112347233005 12.215622055856471)" font-family="sans-serif">twowheeler</text></g><g class="relationship" transform="translate(239.00657434328633 -2.440503040871) rotate(532.5539391493692)"><path class="outline" fill="#A5ABB6" stroke="none" d="M 24.018736134675446,-6.953439040707552 L 24.277555179777966,-5.987513214418485 A 168.4919498130632 168.4919498130632 0 0 1 56.15742793827732,-11.320000308176503 L 56.08781599056948,-12.31757445416082 A 169.4919498130632 169.4919498130632 0 0 0 24.018736134675446,-6.953439040707552 Z M 75.46888184261392,-12.55904888426133 L 75.42414578811034,-11.560050042706735 A 168.4919498130632 168.4919498130632 0 0 1 107.42697984222842,-7.0234964821515495 L 106.72296106005679,-4.107273316077048 L 114.34883702676419,-5.866823184763517 L 108.36567155179058,-10.91179403691755 L 107.66165276961895,-7.995570870843049 A 169.4919498130632 169.4919498130632 0 0 0 75.46888184261392,-12.55904888426133"/><text text-anchor="middle" pointer-events="none" font-size="8px" fill="#000000" x="65.78112347233001" y="-9.215622055856471" transform="rotate(180 65.78112347233001 -12.215622055856471)" font-family="sans-serif">trek</text></g><g class="relationship" transform="translate(192.33588427690722 80.41677448002278) rotate(299.39108377582824)"><path class="outline" fill="#A5ABB6" stroke="none" d="M 24.018736134675446,6.953439040707552 L 24.277555179777966,5.987513214418485 A 81.80697465539157 81.80697465539157 0 0 0 34.42029519477759,8.027959656810694 L 34.285459954940144,9.0188276894457 A 82.80697465539157 82.80697465539157 0 0 1 24.018736134675446,6.953439040707552 Z M 53.69108683363005,9.363990346682044 L 53.59157433936117,8.368954034035923 A 81.80697465539157 81.80697465539157 0 0 0 63.80046149746012,6.6904965012555095 L 63.12754687134377,3.766939437341981 L 70.73424708427774,5.607621884302941 L 64.69768099894858,10.588572586473546 L 64.02476637283223,7.665015522560019 A 82.80697465539157 82.80697465539157 0 0 1 53.69108683363005,9.363990346682044"/><text text-anchor="middle" pointer-events="none" font-size="8px" fill="#000000" x="43.98701778072932" y="12.262001730387937" font-family="sans-serif">trek</text></g><g class="relationship" transform="translate(192.33588427690722 80.41677448002278) rotate(257.6500609738551)"><path class="outline" fill="#A5ABB6" stroke="none" d="M 24.018736134675446,-6.953439040707552 L 24.277555179777966,-5.987513214418485 A 162.5038145203635 162.5038145203635 0 0 1 54.640710642756204,-11.1032530368999 L 54.568737399105146,-12.100659600041695 A 163.5038145203635 163.5038145203635 0 0 0 24.018736134675446,-6.953439040707552 Z M 73.9510475082555,-12.347297764537615 L 73.90447727837348,-11.34838274628595 A 162.5038145203635 162.5038145203635 0 0 1 104.38797491175612,-7.00691114832954 L 103.68550516829913,-4.090314457059478 L 111.31044548196242,-5.853914528808247 L 105.32460123636542,-10.895706736689624 L 104.62213149290844,-7.979110045419561 A 163.5038145203635 163.5038145203635 0 0 0 73.9510475082555,-12.347297764537615"/><text text-anchor="middle" pointer-events="none" font-size="8px" fill="#000000" x="64.2625962137187" y="-9.01150095958414" transform="rotate(180 64.2625962137187 -12.01150095958414)" font-family="sans-serif">trek</text></g><g class="relationship" transform="translate(163.33020121598008 -52.060438371318334) rotate(198.0443830483839)"><path class="outline" fill="#A5ABB6" stroke="none" d="M 25 0.5 L 42.37222373475182 0.5 L 42.37222373475182 -0.5 L 25 -0.5 Z M 61.70816123475182 0.5 L 79.08038496950364 0.5 L 79.08038496950364 3.5 L 86.08038496950364 0 L 79.08038496950364 -3.5 L 79.08038496950364 -0.5 L 61.70816123475182 -0.5 Z"/><text text-anchor="middle" pointer-events="none" font-size="8px" fill="#000000" x="52.04019248475182" y="3" transform="rotate(180 52.04019248475182 0)" font-family="sans-serif">trek</text></g><g class="relationship" transform="translate(57.713098700244515 -86.4679895941783) rotate(426.7541712919525)"><path class="outline" fill="#A5ABB6" stroke="none" d="M 25 0.5 L 42.335623225822395 0.5 L 42.335623225822395 -0.5 L 25 -0.5 Z M 61.671560725822395 0.5 L 79.00718395164479 0.5 L 79.00718395164479 3.5 L 86.00718395164479 0 L 79.00718395164479 -3.5 L 79.00718395164479 -0.5 L 61.671560725822395 -0.5 Z"/><text text-anchor="middle" pointer-events="none" font-size="8px" fill="#000000" x="52.003591975822395" y="3" font-family="sans-serif">trek</text></g><g class="relationship" transform="translate(163.33020121598008 -52.060438371318334) rotate(393.2522932339073)"><path class="outline" fill="#A5ABB6" stroke="none" d="M 21.40063509461097,12.933012701892217 L 21.90063509461097,12.06698729810778 A 42.28294523421312 42.28294523421312 0 0 0 22.14800466190002,12.20869644391044 L 21.65385500098872,13.078073296961662 A 43.28294523421312 43.28294523421312 0 0 1 21.40063509461097,12.933012701892217 Z M 61.64979935306792,14.527868746575578 L 61.21989118622159,13.624996126501827 A 42.28294523421312 42.28294523421312 0 0 0 61.47687156413876,13.501568940718336 L 60.16891415362909,10.80170831240938 L 67.99453926527794,10.899645087580593 L 63.22081477815166,17.101383111796945 L 61.91285736764199,14.401522483487987 A 43.28294523421312 43.28294523421312 0 0 1 61.64979935306792,14.527868746575578"/><text text-anchor="middle" pointer-events="none" font-size="8px" fill="#000000" x="41.49230534268706" y="21.20374798030676" font-family="sans-serif">twowhe…</text></g><g class="relationship" transform="translate(163.33020121598008 -52.060438371318334) rotate(393.2522932339073)"><path class="outline" fill="#A5ABB6" stroke="none" d="M 25 0.5 L 30.74082954225961 0.5 L 30.74082954225961 -0.5 L 25 -0.5 Z M 52.75254829225961 0.5 L 58.49337783451922 0.5 L 58.49337783451922 3.5 L 65.49337783451922 0 L 58.49337783451922 -3.5 L 58.49337783451922 -0.5 L 52.75254829225961 -0.5 Z"/><text text-anchor="middle" pointer-events="none" font-size="8px" fill="#000000" x="41.74668891725961" y="3" font-family="sans-serif">road</text></g><g class="relationship" transform="translate(163.33020121598008 -52.060438371318334) rotate(393.2522932339073)"><path class="outline" fill="#A5ABB6" stroke="none" d="M 21.40063509461097,-12.933012701892217 L 21.90063509461097,-12.06698729810778 A 42.28294523421312 42.28294523421312 0 0 1 32.081712360325696,-16.286575846078428 L 31.822496847057167,-17.252395351825193 A 43.28294523421312 43.28294523421312 0 0 0 21.40063509461097,-12.933012701892217 Z M 51.205615558870335,-17.95500552300502 L 51.01700760248062,-16.972953060665816 A 42.28294523421312 42.28294523421312 0 0 1 61.47687156413876,-13.501568940718336 L 60.16891415362909,-10.80170831240938 L 67.99453926527794,-10.899645087580593 L 63.22081477815166,-17.101383111796945 L 61.91285736764199,-14.401522483487987 A 43.28294523421312 43.28294523421312 0 0 0 51.205615558870335,-17.95500552300502"/><text text-anchor="middle" pointer-events="none" font-size="8px" fill="#000000" x="41.49230534268706" y="-15.203747980306758" font-family="sans-serif">trek</text></g><g class="relationship" transform="translate(192.33588427690722 80.41677448002278) rotate(257.6500609738551)"><path class="outline" fill="#A5ABB6" stroke="none" d="M 24.018736134675446,6.953439040707552 L 24.277555179777966,5.987513214418485 A 162.5038145203635 162.5038145203635 0 0 0 41.20897008905243,9.570220344053098 L 41.05434192069485,10.55819308130367 A 163.5038145203635 163.5038145203635 0 0 1 24.018736134675446,6.953439040707552 Z M 87.50031624474813,11.14921395502813 L 87.3708778030373,10.157626495543354 A 162.5038145203635 162.5038145203635 0 0 0 104.38797491175612,7.00691114832954 L 103.68550516829913,4.090314457059478 L 111.31044548196242,5.853914528808247 L 105.32460123636542,10.895706736689624 L 104.62213149290844,7.979110045419561 A 163.5038145203635 163.5038145203635 0 0 1 87.50031624474813,11.14921395502813"/><text text-anchor="middle" pointer-events="none" font-size="8px" fill="#000000" x="64.26259621371871" y="15.01150095958414" transform="rotate(180 64.26259621371871 12.01150095958414)" font-family="sans-serif">twowheeler</text></g><g class="relationship" transform="translate(126.08264382129597 180.50156118184023) rotate(215.01440495706555)"><path class="outline" fill="#A5ABB6" stroke="none" d="M 25 0.5 L 46.611507280013235 0.5 L 46.611507280013235 -0.5 L 25 -0.5 Z M 65.94744478001323 0.5 L 87.55895206002647 0.5 L 87.55895206002647 3.5 L 94.55895206002647 0 L 87.55895206002647 -3.5 L 87.55895206002647 -0.5 L 65.94744478001323 -0.5 Z"/><text text-anchor="middle" pointer-events="none" font-size="8px" fill="#000000" x="56.279476030013235" y="3" transform="rotate(180 56.279476030013235 0)" font-family="sans-serif">trek</text></g><g class="relationship" transform="translate(28.162927934657223 111.90074297701375) rotate(307.2794943858935)"><path class="outline" fill="#A5ABB6" stroke="none" d="M 25 0.5 L 47.39147057857488 0.5 L 47.39147057857488 -0.5 L 25 -0.5 Z M 66.72740807857488 0.5 L 89.11887865714976 0.5 L 89.11887865714976 3.5 L 96.11887865714976 0 L 89.11887865714976 -3.5 L 89.11887865714976 -0.5 L 66.72740807857488 -0.5 Z"/><text text-anchor="middle" pointer-events="none" font-size="8px" fill="#000000" x="57.05943932857488" y="3" font-family="sans-serif">trek</text></g><g class="relationship" transform="translate(126.08264382129597 180.50156118184023) rotate(303.50340949684187)"><path class="outline" fill="#A5ABB6" stroke="none" d="M 24.018736134675446,6.953439040707552 L 24.277555179777966,5.987513214418485 A 131.65092509949568 131.65092509949568 0 0 0 46.85351113732409,9.970364601026063 L 46.766175550772914,10.966543548465609 A 132.65092509949568 132.65092509949568 0 0 1 24.018736134675446,6.953439040707552 Z M 66.15598327411185,11.24361279403837 L 66.09714718708595,10.245345137112878 A 131.65092509949568 131.65092509949568 0 0 0 88.7776876531403,6.909183160749473 L 88.08434579331093,3.990403096166267 L 95.70373144713935,5.777848831911464 L 89.70214346624614,10.800889913527081 L 89.00880160641677,7.882109848943875 A 132.65092509949568 132.65092509949568 0 0 1 66.15598327411185,11.24361279403837"/><text text-anchor="middle" pointer-events="none" font-size="8px" fill="#000000" x="56.46315363995216" y="13.959919972600034" font-family="sans-serif">trek</text></g><g class="relationship" transform="translate(126.08264382129597 180.50156118184023) rotate(486.88629840944805)"><path class="outline" fill="#A5ABB6" stroke="none" d="M 25 0.5 L 43.72851420525676 0.5 L 43.72851420525676 -0.5 L 25 -0.5 Z M 63.06445170525676 0.5 L 81.79296591051352 0.5 L 81.79296591051352 3.5 L 88.79296591051352 0 L 81.79296591051352 -3.5 L 81.79296591051352 -0.5 L 63.06445170525676 -0.5 Z"/><text text-anchor="middle" pointer-events="none" font-size="8px" fill="#000000" x="53.39648295525676" y="3" transform="rotate(180 53.39648295525676 0)" font-family="sans-serif">trek</text></g><g class="relationship" transform="translate(57.78080872686603 271.51638642171304) rotate(214.69835121854862)"><path class="outline" fill="#A5ABB6" stroke="none" d="M 21.40063509461097,-12.933012701892217 L 21.90063509461097,-12.06698729810778 A 67.27377500658406 67.27377500658406 0 0 1 44.045994630566696,-20.091222049453762 L 43.87517728062295,-21.07652476078576 A 68.27377500658406 68.27377500658406 0 0 0 21.40063509461097,-12.933012701892217 Z M 63.27960305727815,-21.639577253718485 L 63.1662054831931,-20.646027561860237 A 67.27377500658406 67.27377500658406 0 0 1 85.73958691940325,-13.919383312547172 L 84.39275908113146,-11.238701538435198 L 92.21898236537649,-11.223565318931643 L 87.53535737043231,-17.493625678029805 L 86.18852953216052,-14.81294390391783 A 68.27377500658406 68.27377500658406 0 0 0 63.27960305727815,-21.639577253718485"/><text text-anchor="middle" pointer-events="none" font-size="8px" fill="#000000" x="53.571778354978285" y="-18.551450431043065" transform="rotate(180 53.571778354978285 -21.551450431043065)" font-family="sans-serif">trek</text></g><g class="relationship" transform="translate(-36.40424262836076 206.30357470383893) rotate(304.3703224882026)"><path class="outline" fill="#A5ABB6" stroke="none" d="M 21.40063509461097,12.933012701892217 L 21.90063509461097,12.06698729810778 A 67.08148196496238 67.08148196496238 0 0 0 31.00724693734446,16.445902485980724 L 30.643001419445643,17.377205445651 A 68.08148196496238 68.08148196496238 0 0 1 21.40063509461097,12.933012701892217 Z M 76.51572759531459,18.710343279072404 L 76.20618157912962,17.759458815079007 A 67.08148196496238 67.08148196496238 0 0 0 85.55172623063521,13.916794030907196 L 84.20513924694558,11.23599126021375 L 92.03136385953485,11.221558197413625 L 87.34717554222138,17.491197725165122 L 86.00058855853175,14.810394954471677 A 68.08148196496238 68.08148196496238 0 0 1 76.51572759531459,18.710343279072404"/><text text-anchor="middle" pointer-events="none" font-size="8px" fill="#000000" x="53.47817450572846" y="24.52568082479334" font-family="sans-serif">twowheeler</text></g><g class="relationship" transform="translate(-36.40424262836076 206.30357470383893) rotate(304.3703224882026)"><path class="outline" fill="#A5ABB6" stroke="none" d="M 25 0.5 L 42.679834099323465 0.5 L 42.679834099323465 -0.5 L 25 -0.5 Z M 64.69155284932347 0.5 L 82.37138694864693 0.5 L 82.37138694864693 3.5 L 89.37138694864693 0 L 82.37138694864693 -3.5 L 82.37138694864693 -0.5 L 64.69155284932347 -0.5 Z"/><text text-anchor="middle" pointer-events="none" font-size="8px" fill="#000000" x="53.685693474323465" y="3" font-family="sans-serif">road</text></g><g class="relationship" transform="translate(-36.40424262836076 206.30357470383893) rotate(304.3703224882026)"><path class="outline" fill="#A5ABB6" stroke="none" d="M 21.40063509461097,-12.933012701892217 L 21.90063509461097,-12.06698729810778 A 67.08148196496238 67.08148196496238 0 0 1 43.95289944901802,-20.06311340186113 L 43.78163792808032,-21.04833900620062 A 68.08148196496238 68.08148196496238 0 0 0 21.40063509461097,-12.933012701892217 Z M 63.186067179211726,-21.612264042429246 L 63.07231097299246,-20.618755348181125 A 67.08148196496238 67.08148196496238 0 0 1 85.55172623063521,-13.916794030907196 L 84.20513924694558,-11.23599126021375 L 92.03136385953485,-11.221558197413625 L 87.34717554222138,-17.491197725165122 L 86.00058855853175,-14.810394954471677 A 68.08148196496238 68.08148196496238 0 0 0 63.186067179211726,-21.612264042429246"/><text text-anchor="middle" pointer-events="none" font-size="8px" fill="#000000" x="53.478174505728475" y="-18.52568082479334" font-family="sans-serif">trek</text></g><g class="relationship" transform="translate(57.78080872686603 271.51638642171304) rotate(214.69835121854862)"><path class="outline" fill="#A5ABB6" stroke="none" d="M 25 0.5 L 42.77313919982148 0.5 L 42.77313919982148 -0.5 L 25 -0.5 Z M 64.78485794982149 0.5 L 82.55799714964296 0.5 L 82.55799714964296 3.5 L 89.55799714964296 0 L 82.55799714964296 -3.5 L 82.55799714964296 -0.5 L 64.78485794982149 -0.5 Z"/><text text-anchor="middle" pointer-events="none" font-size="8px" fill="#000000" x="53.77899857482148" y="3" transform="rotate(180 53.77899857482148 0)" font-family="sans-serif">road</text></g><g class="relationship" transform="translate(57.78080872686603 271.51638642171304) rotate(214.69835121854862)"><path class="outline" fill="#A5ABB6" stroke="none" d="M 21.40063509461097,12.933012701892217 L 21.90063509461097,12.06698729810778 A 67.27377500658406 67.27377500658406 0 0 0 31.097287895971082,16.48342368803779 L 30.73399276797299,17.41509779950212 A 68.27377500658406 68.27377500658406 0 0 1 21.40063509461097,12.933012701892217 Z M 76.6109835767275,18.74629689502997 L 76.30232244034252,17.795124827060384 A 67.27377500658406 67.27377500658406 0 0 0 85.73958691940325,13.919383312547172 L 84.39275908113146,11.238701538435198 L 92.21898236537649,11.223565318931643 L 87.53535737043231,17.493625678029805 L 86.18852953216052,14.81294390391783 A 68.27377500658406 68.27377500658406 0 0 1 76.6109835767275,18.74629689502997"/><text text-anchor="middle" pointer-events="none" font-size="8px" fill="#000000" x="53.57177835497829" y="24.551450431043065" transform="rotate(180 53.57177835497829 21.551450431043065)" font-family="sans-serif">twowheeler</text></g><g class="relationship" transform="translate(166.31248425643378 282.63714163544853) rotate(248.50118233187976)"><path class="outline" fill="#A5ABB6" stroke="none" d="M 25 0.5 L 41.71854338192578 0.5 L 41.71854338192578 -0.5 L 25 -0.5 Z M 61.05448088192578 0.5 L 77.77302426385155 0.5 L 77.77302426385155 3.5 L 84.77302426385155 0 L 77.77302426385155 -3.5 L 77.77302426385155 -0.5 L 61.05448088192578 -0.5 Z"/><text text-anchor="middle" pointer-events="none" font-size="8px" fill="#000000" x="51.38651213192578" y="3" transform="rotate(180 51.38651213192578 0)" font-family="sans-serif">trek</text></g><g class="relationship" transform="translate(166.31248425643378 282.63714163544853) rotate(185.85042430002784)"><path class="outline" fill="#A5ABB6" stroke="none" d="M 24.018736134675446,-6.953439040707552 L 24.277555179777966,-5.987513214418485 A 109.89845642218424 109.89845642218424 0 0 1 41.39896295333097,-9.147404858247597 L 41.2959368859549,-10.142083514619102 A 110.89845642218424 110.89845642218424 0 0 0 24.018736134675446,-6.953439040707552 Z M 60.69225926695621,-10.44538520707735 L 60.62038369001037,-9.447971601074954 A 109.89845642218424 109.89845642218424 0 0 1 77.83221927391695,-6.824951360667052 L 77.14674511816786,-3.904313556727633 L 84.7612865090671,-5.712284631242414 L 78.74618481491574,-10.719135099252945 L 78.06071065916665,-7.798497295313526 A 110.89845642218424 110.89845642218424 0 0 0 60.69225926695621,-10.44538520707735"/><text text-anchor="middle" pointer-events="none" font-size="8px" fill="#000000" x="50.99527111930811" y="-7.218717577557712" transform="rotate(180 50.99527111930811 -10.218717577557712)" font-family="sans-serif">trek</text></g><g class="relationship" transform="translate(166.31248425643378 282.63714163544853) rotate(185.85042430002784)"><path class="outline" fill="#A5ABB6" stroke="none" d="M 24.018736134675446,6.953439040707552 L 24.277555179777966,5.987513214418485 A 109.89845642218424 109.89845642218424 0 0 0 40.07508267447915,9.002167861273705 L 39.96001021153074,9.995524961349489 A 110.89845642218424 110.89845642218424 0 0 1 24.018736134675446,6.953439040707552 Z M 62.03211515765379,10.340668058828243 L 61.94815775437849,9.344198714374897 A 109.89845642218424 109.89845642218424 0 0 0 77.83221927391695,6.824951360667052 L 77.14674511816786,3.904313556727633 L 84.7612865090671,5.712284631242414 L 78.74618481491574,10.719135099252945 L 78.06071065916665,7.798497295313526 A 110.89845642218424 110.89845642218424 0 0 1 62.03211515765379,10.340668058828243"/><text text-anchor="middle" pointer-events="none" font-size="8px" fill="#000000" x="50.99527111930809" y="13.218717577557712" transform="rotate(180 50.99527111930809 10.218717577557712)" font-family="sans-serif">road</text></g><g class="relationship" transform="translate(166.31248425643378 282.63714163544853) rotate(248.50118233187976)"><path class="outline" fill="#A5ABB6" stroke="none" d="M 21.40063509461097,-12.933012701892217 L 21.90063509461097,-12.06698729810778 A 62.33698129984519 62.33698129984519 0 0 1 40.35766469360219,-19.1087685217788 L 40.15374944480648,-20.087757066813204 A 63.33698129984519 63.33698129984519 0 0 0 21.40063509461097,-12.933012701892217 Z M 62.21728321601905,-20.754414238430314 L 62.07284694381692,-19.76490013379494 A 62.33698129984519 62.33698129984519 0 0 1 80.92135745051841,-13.850318483428849 L 79.5809541557865,-11.166418521159052 L 87.4071912449366,-11.170027456099334 L 82.70856184349431,-17.428851766455242 L 81.3681585487624,-14.744951804185446 A 63.33698129984519 63.33698129984519 0 0 0 62.21728321601905,-20.754414238430314"/><text text-anchor="middle" pointer-events="none" font-size="8px" fill="#000000" x="51.17135110314165" y="-17.88989478508023" transform="rotate(180 51.17135110314165 -20.88989478508023)" font-family="sans-serif">road</text></g></g><g class="layer nodes"><g class="node" transform="translate(166.31248425643378,282.63714163544853)"><circle class="outline" cx="0" cy="0" r="25" fill="#F16667" stroke="#eb2728" stroke-width="2px"/><text text-anchor="middle" pointer-events="none" font-family="sans-serif" dy="1.5625" font-size="25" fill="#FFFFFF"/><text text-anchor="middle" pointer-events="none" x="0" y="5" font-size="10px" fill="#FFFFFF" font-family="sans-serif"> Darjeeling</text></g><g class="node" transform="translate(101.52507713162368,15.527625188040012)"><circle class="outline" cx="0" cy="0" r="25" fill="#D9C8AE" stroke="#c0a378" stroke-width="2px"/><text text-anchor="middle" pointer-events="none" font-family="sans-serif" dy="1.5625" font-size="25" fill="#2A2C34"/><text text-anchor="middle" pointer-events="none" x="0" y="5" font-size="10px" fill="#2A2C34" font-family="sans-serif"> Sandak…</text></g><g class="node" transform="translate(126.08264382129597,180.50156118184023)"><circle class="outline" cx="0" cy="0" r="25" fill="#F16667" stroke="#eb2728" stroke-width="2px"/><text text-anchor="middle" pointer-events="none" font-family="sans-serif" dy="1.5625" font-size="25" fill="#FFFFFF"/><text text-anchor="middle" pointer-events="none" x="0" y="5" font-size="10px" fill="#FFFFFF" font-family="sans-serif"> Rimbik</text></g><g class="node" transform="translate(192.33588427690722,80.41677448002278)"><circle class="outline" cx="0" cy="0" r="25" fill="#8DCC93" stroke="#5db665" stroke-width="2px"/><text text-anchor="middle" pointer-events="none" font-family="sans-serif" dy="1.5625" font-size="25" fill="#2A2C34"/><text text-anchor="middle" pointer-events="none" x="0" y="5" font-size="10px" fill="#2A2C34" font-family="sans-serif"> Sirikhola</text></g><g class="node" transform="translate(239.00657434328633,-2.440503040871)"><circle class="outline" cx="0" cy="0" r="25" fill="#8DCC93" stroke="#5db665" stroke-width="2px"/><text text-anchor="middle" pointer-events="none" font-family="sans-serif" dy="1.5625" font-size="25" fill="#2A2C34"/><text text-anchor="middle" pointer-events="none" x="0" y="5" font-size="10px" fill="#2A2C34" font-family="sans-serif"> Gurdum</text></g><g class="node" transform="translate(163.33020121598008,-52.060438371318334)"><circle class="outline" cx="0" cy="0" r="25" fill="#8DCC93" stroke="#5db665" stroke-width="2px"/><text text-anchor="middle" pointer-events="none" font-family="sans-serif" dy="1.5625" font-size="25" fill="#2A2C34"/><text text-anchor="middle" pointer-events="none" x="0" y="5" font-size="10px" fill="#2A2C34" font-family="sans-serif"> Rammam</text></g><g class="node" transform="translate(57.713098700244515,-86.4679895941783)"><circle class="outline" cx="0" cy="0" r="25" fill="#D9C8AE" stroke="#c0a378" stroke-width="2px"/><text text-anchor="middle" pointer-events="none" font-family="sans-serif" dy="1.5625" font-size="25" fill="#2A2C34"/><text text-anchor="middle" pointer-events="none" x="0" y="5" font-size="10px" fill="#2A2C34" font-family="sans-serif"> Sabargr…</text></g><g class="node" transform="translate(28.162927934657223,111.90074297701375)"><circle class="outline" cx="0" cy="0" r="25" fill="#8DCC93" stroke="#5db665" stroke-width="2px"/><text text-anchor="middle" pointer-events="none" font-family="sans-serif" dy="1.5625" font-size="25" fill="#2A2C34"/><text text-anchor="middle" pointer-events="none" x="0" y="5" font-size="10px" fill="#2A2C34" font-family="sans-serif"> BhikeBh…</text></g><g class="node" transform="translate(57.78080872686603,271.51638642171304)"><circle class="outline" cx="0" cy="0" r="25" fill="#8DCC93" stroke="#5db665" stroke-width="2px"/><text text-anchor="middle" pointer-events="none" font-family="sans-serif" dy="1.5625" font-size="25" fill="#2A2C34"/><text text-anchor="middle" pointer-events="none" x="0" y="5" font-size="10px" fill="#2A2C34" font-family="sans-serif"> Tumbling</text></g><g class="node" transform="translate(-36.40424262836076,206.30357470383893)"><circle class="outline" cx="0" cy="0" r="25" fill="#8DCC93" stroke="#5db665" stroke-width="2px"/><text text-anchor="middle" pointer-events="none" font-family="sans-serif" dy="1.5625" font-size="25" fill="#2A2C34"/><text text-anchor="middle" pointer-events="none" x="0" y="5" font-size="10px" fill="#2A2C34" font-family="sans-serif"> Gairibus</text></g></g></svg>