<svg xmlns="http://www.w3.org/2000/svg" width="194.529541015625" height="237.6485595703125" viewBox="-12.262828826904297 -11.519620895385742 194.529541015625 237.6485595703125"><title>Neo4j Graph Visualization</title><desc>Created using Neo4j (http://www.neo4j.com/)</desc><g class="layer relationships"><g class="relationship" transform="translate(153.2667059937947 17.480379101654517) rotate(537.5840618500574)"><path class="outline" fill="#A5ABB6" stroke="none" d="M 21.40063509461097,12.933012701892217 L 21.90063509461097,12.06698729810778 A 61.79736290725572 61.79736290725572 0 0 0 40.09785260317205,19.02688783897696 L 39.89231852619001,20.005537798461525 A 62.79736290725572 62.79736290725572 0 0 1 21.40063509461097,12.933012701892217 Z M 61.955302797855495,20.675197529689164 L 61.80950071595694,19.685883750893964 A 61.79736290725572 61.79736290725572 0 0 0 80.39532800726224,13.842428908898196 L 79.05565863494101,11.15816253372891 L 86.88189444471077,11.163911436010219 L 82.18155383702387,17.421450742457242 L 80.84188446470264,14.73718436728796 A 62.79736290725572 62.79736290725572 0 0 1 61.955302797855495,20.675197529689164"/><text text-anchor="middle" pointer-events="none" font-size="8px" fill="#000000" x="50.90932598394362" y="23.817587974238393" transform="rotate(180 50.90932598394362 20.817587974238393)" font-family="sans-serif">road</text></g><g class="relationship" transform="translate(44.1130334370896 22.085690775884604) rotate(464.93034512936305)"><path class="outline" fill="#A5ABB6" stroke="none" d="M 25 0.5 L 39.95921834779388 0.5 L 39.95921834779388 -0.5 L 25 -0.5 Z M 59.29515584779388 0.5 L 74.25437419558776 0.5 L 74.25437419558776 3.5 L 81.25437419558776 0 L 74.25437419558776 -3.5 L 74.25437419558776 -0.5 L 59.29515584779388 -0.5 Z"/><text text-anchor="middle" pointer-events="none" font-size="8px" fill="#000000" x="49.62718709779388" y="3" transform="rotate(180 49.62718709779388 0)" font-family="sans-serif">trek</text></g><g class="relationship" transform="translate(16.7371707269334 124.752891850866) rotate(402.5353051742247)"><path class="outline" fill="#A5ABB6" stroke="none" d="M 25 0.5 L 40.36109167051405 0.5 L 40.36109167051405 -0.5 L 25 -0.5 Z M 59.69702917051405 0.5 L 75.0581208410281 0.5 L 75.0581208410281 3.5 L 82.0581208410281 0 L 75.0581208410281 -3.5 L 75.0581208410281 -0.5 L 59.69702917051405 -0.5 Z"/><text text-anchor="middle" pointer-events="none" font-size="8px" fill="#000000" x="50.02906042051405" y="3" font-family="sans-serif">trek</text></g><g class="relationship" transform="translate(153.2667059937947 17.480379101654517) rotate(537.5840618500574)"><path class="outline" fill="#A5ABB6" stroke="none" d="M 25 0.5 L 41.457421702227414 0.5 L 41.457421702227414 -0.5 L 25 -0.5 Z M 60.793359202227414 0.5 L 77.25078090445483 0.5 L 77.25078090445483 3.5 L 84.25078090445483 0 L 77.25078090445483 -3.5 L 77.25078090445483 -0.5 L 60.793359202227414 -0.5 Z"/><text text-anchor="middle" pointer-events="none" font-size="8px" fill="#000000" x="51.125390452227414" y="3" transform="rotate(180 51.125390452227414 0)" font-family="sans-serif">trek</text></g><g class="relationship" transform="translate(153.2667059937947 17.480379101654517) rotate(537.5840618500574)"><path class="outline" fill="#A5ABB6" stroke="none" d="M 21.40063509461097,-12.933012701892217 L 21.90063509461097,-12.06698729810778 A 61.79736290725572 61.79736290725572 0 0 1 22.359845609453924,-12.329498668875509 L 21.86727651739626,-13.199772010733966 A 62.79736290725572 62.79736290725572 0 0 0 21.40063509461097,-12.933012701892217 Z M 80.35992349201753,-14.97515152283934 L 79.92104189464087,-14.076606619407073 A 61.79736290725572 61.79736290725572 0 0 1 80.39532800726224,-13.842428908898196 L 79.05565863494101,-11.15816253372891 L 86.88189444471077,-11.163911436010219 L 82.18155383702387,-17.421450742457242 L 80.84188446470264,-14.73718436728796 A 62.79736290725572 62.79736290725572 0 0 0 80.35992349201753,-14.97515152283934"/><text text-anchor="middle" pointer-events="none" font-size="8px" fill="#000000" x="50.90932598394361" y="-17.817587974238393" transform="rotate(180 50.90932598394361 -20.817587974238393)" font-family="sans-serif">PublicTransp…</text></g></g><g class="layer nodes"><g class="node" transform="translate(153.2667059937947,17.480379101654517)"><circle class="outline" cx="0" cy="0" r="25" fill="#F16667" stroke="#eb2728" stroke-width="2px"/><text text-anchor="middle" pointer-events="none" font-family="sans-serif" dy="1.5625" font-size="25" fill="#FFFFFF"/><text text-anchor="middle" pointer-events="none" x="0" y="5" font-size="10px" fill="#FFFFFF" font-family="sans-serif"> Darjeeling</text></g><g class="node" transform="translate(95.62411441984551,197.1289331408087)"><circle class="outline" cx="0" cy="0" r="25" fill="#D9C8AE" stroke="#c0a378" stroke-width="2px"/><text text-anchor="middle" pointer-events="none" font-family="sans-serif" dy="1.5625" font-size="25" fill="#2A2C34"/><text text-anchor="middle" pointer-events="none" x="0" y="5" font-size="10px" fill="#2A2C34" font-family="sans-serif"> Sandak…</text></g><g class="node" transform="translate(44.1130334370896,22.085690775884604)"><circle class="outline" cx="0" cy="0" r="25" fill="#F16667" stroke="#eb2728" stroke-width="2px"/><text text-anchor="middle" pointer-events="none" font-family="sans-serif" dy="1.5625" font-size="25" fill="#FFFFFF"/><text text-anchor="middle" pointer-events="none" x="0" y="5" font-size="10px" fill="#FFFFFF" font-family="sans-serif"> Rimbik</text></g><g class="node" transform="translate(16.7371707269334,124.752891850866)"><circle class="outline" cx="0" cy="0" r="25" fill="#8DCC93" stroke="#5db665" stroke-width="2px"/><text text-anchor="middle" pointer-events="none" font-family="sans-serif" dy="1.5625" font-size="25" fill="#2A2C34"/><text text-anchor="middle" pointer-events="none" x="0" y="5" font-size="10px" fill="#2A2C34" font-family="sans-serif"> BhikeBh…</text></g></g></svg>